<?xml version="1.0" encoding="utf-8"?>
<!-- Generator: Adobe Illustrator 16.0.0, SVG Export Plug-In . SVG Version: 6.00 Build 0)  -->
<!DOCTYPE svg PUBLIC "-//W3C//DTD SVG 1.0//EN" "http://www.w3.org/TR/2001/REC-SVG-20010904/DTD/svg10.dtd">
<svg version="1.0" id="Layer_1" xmlns="http://www.w3.org/2000/svg" xmlns:xlink="http://www.w3.org/1999/xlink" x="0px" y="0px"
	 width="800px" height="800px" viewBox="0 0 800 800" enable-background="new 0 0 800 800" xml:space="preserve">
<g>
	<g id="g14">
		<g id="g16">
			<g id="g22">
				<g id="g24">
					
						<radialGradient id="path32_1_" cx="-17.1016" cy="693.8926" r="1.9494" gradientTransform="matrix(51.2558 0 0 -51.2558 1036.9873 36029.043)" gradientUnits="userSpaceOnUse">
						<stop  offset="0" style="stop-color:#F5FA17"/>
						<stop  offset="1" style="stop-color:#FF3800"/>
					</radialGradient>
					<path id="path32" fill="url(#path32_1_)" d="M331.245,322.231c-9.928,5.103-21.987,6.124-32.5,8.52l0,0
						c0.994,2.1,4.891,1.987,8.289,1.874l0,0c1.496-0.049,2.895-0.1,3.909,0.038l0,0c-11.088,5.833-18.987,12.83-25.477,22.897l0,0
						c-3.942,2.772-5.909,7.523-8.165,11.619l0,0c-1.369,2.486-3.868,5.256-2.634,7.882l0,0
						c2.438-0.859,13.859-20.186,33.029-24.251l0,0c-0.88,0.938-6.41,7.979-7.893,10.5l0,0c-3.726,6.35-6.302,12.641-8.562,20.045
						l0,0c-2.406,7.882-3.055,16.284-4.366,22.252l0,0c-0.477,2.154-2.235,4.358-1.278,6.674l0,0c1.83-0.688,2.674-3.235,3.6-5.041
						l0,0c3.204-6.249,5.871-13.065,10.976-17.324l0,0c0.034,0.363-0.256,0.453-0.302,0.757l0,0
						c-8.627,17.713-4.357,47.637,0.394,66.737l0,0c0.902-0.398,0.75,1.752,1.659,2.414l0,0
						c-0.809-15.757-5.623-31.595-4.187-46.355l0,0c1.291-13.244,6.359-24.61,12.14-34.203l0,0
						c-3.667-0.241-7.262,2.911-9.759,5.548l0,0c-3.793,4.005-6.145,10.055-9.525,12.826l0,0
						c3.913-19.295,14.9-36.168,28.218-47.207l0,0c1.833-1.519,15.706-6.233,14.023-11.371l0,0c-0.762,1.355-1.483,1.699-2.388,2.02
						l0,0c-5.688,2.018-12.512,2.591-18.606,4.453l0,0c-7.422,2.27-13.189,6.131-18.642,8.47l0,0
						c4.754-8.004,14.443-13.589,19.891-19.883l0,0c10.804-1.517,18.304-5.833,23.443-12.15l0,0
						c-0.348-0.106-0.668-0.154-0.968-0.154l0,0C333.788,319.816,332.739,321.466,331.245,322.231"/>
				</g>
			</g>
		</g>
	</g>
	<g id="g34">
		<g id="g36">
			<g id="g42">
				<g id="g44">
					
						<radialGradient id="path52_1_" cx="-17.1001" cy="693.8867" r="1.9523" gradientTransform="matrix(51.2553 0 0 -51.2553 1036.8752 36028.75)" gradientUnits="userSpaceOnUse">
						<stop  offset="0" style="stop-color:#F5FA17"/>
						<stop  offset="1" style="stop-color:#FF3800"/>
					</radialGradient>
					<path id="path52" fill="url(#path52_1_)" d="M228.193,338.024c-0.598,0.057-6.895,1.902-9.634,2.62l0,0
						c-1.559,0.407-3.871,1.515-4.622,1.475l0,0c-0.197-0.01,0.032-0.81-0.424-0.696l0,0c-1.934,0.491-3.676,1.751-5.649,2.293l0,0
						c-5.706,1.562-12.507,2.546-16.583,6.84l0,0c-1.365,0.191-3.3-0.101-3.172,1.355l0,0c1.461,1.588,4.666,0.783,6.612,0.55l0,0
						c5.812-0.7,12.194-3.794,17.763-5.842l0,0c2.665-0.983,6.043-2.473,9.214-3.314l0,0c4.996-1.329,10.427-2.795,15.01-3.792l0,0
						c18.963-4.127,38.033-6.219,58.259-5.898l0,0c-6.148-0.684-12.21-0.988-18.209-0.988l0,0
						C260.232,332.626,244.185,334.94,228.193,338.024"/>
				</g>
			</g>
		</g>
	</g>
	<g id="g54">
		<g id="g56">
			<g id="g62">
				<g id="g64">
					
						<radialGradient id="path72_1_" cx="-17.1089" cy="693.9229" r="1.9148" gradientTransform="matrix(51.2464 0 0 -51.2464 1037.0378 36022.1797)" gradientUnits="userSpaceOnUse">
						<stop  offset="0" style="stop-color:#F5FA17"/>
						<stop  offset="1" style="stop-color:#FF3800"/>
					</radialGradient>
					<path id="path72" fill="url(#path72_1_)" d="M143.377,358.151c0.13,0.512,0.65,0.563,0.815,1.029l0,0
						c1.553-1.041,3.779-1.518,4.471-3.287l0,0c-0.483-0.042-0.967-0.072-1.438-0.072l0,0
						C145.499,355.821,143.961,356.242,143.377,358.151"/>
				</g>
			</g>
		</g>
	</g>
	<g id="g74">
		<g id="g76">
			<g id="g82">
				<g id="g84">
					
						<radialGradient id="path92_1_" cx="-17.1055" cy="693.9297" r="1.9116" gradientTransform="matrix(51.2486 0 0 -51.2486 1037.0927 36023.75)" gradientUnits="userSpaceOnUse">
						<stop  offset="0" style="stop-color:#F5FA17"/>
						<stop  offset="1" style="stop-color:#FF3800"/>
					</radialGradient>
					<path id="path92" fill="url(#path92_1_)" d="M175.693,356.218c0.426,0.027,0.441,0.54,0.451,1.059l0,0
						c1.773,0.195,4.431,0.446,5.496,0.274l0,0c0.474-1.619,2.717-1.743,2.992-3.529l0,0c-0.822-0.509-1.863-0.746-2.954-0.746l0,0
						C179.344,353.275,176.788,354.364,175.693,356.218"/>
				</g>
			</g>
		</g>
	</g>
	<g id="g94">
		<g id="g96">
			<g id="g102">
				<g id="g104">
					
						<radialGradient id="path112_1_" cx="-17.103" cy="693.877" r="1.9614" gradientTransform="matrix(51.2608 0 0 -51.2608 1037.1069 36032.3945)" gradientUnits="userSpaceOnUse">
						<stop  offset="0" style="stop-color:#F5FA17"/>
						<stop  offset="1" style="stop-color:#FF3800"/>
					</radialGradient>
					<path id="path112" fill="url(#path112_1_)" d="M165.391,359.622c0.95,3.407,5.033,2.192,8.182,1.88l0,0
						c0.323-1.173-0.642-0.834-0.843-1.392l0,0c0.554-0.766,2.044-0.736,1.634-2.322l0,0c-0.821-0.647-1.736-0.902-2.673-0.902l0,0
						C169.317,356.886,166.812,358.533,165.391,359.622"/>
				</g>
			</g>
		</g>
	</g>
	<g id="g114">
		<g id="g116">
			<g id="g122">
				<g id="g124">
					
						<radialGradient id="path132_1_" cx="-17.0996" cy="693.876" r="1.9696" gradientTransform="matrix(51.2654 0 0 -51.2654 1036.9496 36035.8945)" gradientUnits="userSpaceOnUse">
						<stop  offset="0" style="stop-color:#F5FA17"/>
						<stop  offset="1" style="stop-color:#FF3800"/>
					</radialGradient>
					<path id="path132" fill="url(#path132_1_)" d="M156.688,364.72c-0.004,1.067,0.912,1.045,0.906,2.112l0,0
						c1.37-1.439,3.196-0.419,3.807-2.503l0,0c-0.333-0.449-0.908-0.62-1.555-0.62l0,0
						C158.686,363.709,157.303,364.256,156.688,364.72"/>
				</g>
			</g>
		</g>
	</g>
	<g id="g134">
		<g id="g136">
			<g id="g142">
				<g id="g144">
					
						<radialGradient id="path152_1_" cx="-17.1035" cy="693.8799" r="1.9594" gradientTransform="matrix(51.2551 0 0 -51.2551 1037.0173 36028.3906)" gradientUnits="userSpaceOnUse">
						<stop  offset="0" style="stop-color:#F5FA17"/>
						<stop  offset="1" style="stop-color:#FF3800"/>
					</radialGradient>
					<path id="path152" fill="url(#path152_1_)" d="M196.25,366.564c-0.495,0.035-1.207,0.015-2.044-0.006l0,0
						c-1.62-0.038-3.71-0.078-5.597,0.271l0,0c0.331,2.125,2.06,2.609,3.56,3.354l0,0c2.707-1.414,4.822-3.33,8.821-3.644l0,0
						c-0.797-1.314-2.6-1.442-4.498-1.456l0,0C195.644,365.64,197.001,366.401,196.25,366.564"/>
				</g>
			</g>
		</g>
	</g>
	<g id="g154">
		<g id="g156">
			<g id="g162">
				<g id="g164">
					
						<radialGradient id="path172_1_" cx="-17.1035" cy="693.9072" r="1.9347" gradientTransform="matrix(51.255 0 0 -51.255 1037.1196 36028.3477)" gradientUnits="userSpaceOnUse">
						<stop  offset="0" style="stop-color:#F5FA17"/>
						<stop  offset="1" style="stop-color:#FF3800"/>
					</radialGradient>
					<path id="path172" fill="url(#path172_1_)" d="M177.945,370.265c0.881,3.093,3.688,2.596,6.097,3.145l0,0
						c0.95-1.667,2.828-2.544,3.659-4.314l0,0c-0.468-0.035-0.908-0.05-1.331-0.05l0,0
						C183.211,369.045,181.19,369.9,177.945,370.265"/>
				</g>
			</g>
		</g>
	</g>
	<g id="g174">
		<g id="g176">
			<g id="g182">
				<g id="g184">
					
						<radialGradient id="path192_1_" cx="-17.1025" cy="693.8926" r="1.9492" gradientTransform="matrix(51.2564 0 0 -51.2564 1037.0284 36029.3789)" gradientUnits="userSpaceOnUse">
						<stop  offset="0" style="stop-color:#F5FA17"/>
						<stop  offset="1" style="stop-color:#FF3800"/>
					</radialGradient>
					<path id="path192" fill="url(#path192_1_)" d="M200.199,370.251c-0.361,0.031-0.403,0.332-0.694,0.423l0,0
						c0.082,0.967,0.16,1.934,0.24,2.9l0,0c2.594,2.881,5.904,0.875,8.457,0.762l0,0c6.71-0.296,13.479,1.554,19.898,2.374l0,0
						c12.851,1.643,23.802,4.001,35.294,7.67l0,0c5.743,1.835,11.494,3.859,17.179,4.788l0,0
						c-22.982-10.138-48.988-18.924-78.897-18.924l0,0C201.187,370.244,200.692,370.248,200.199,370.251"/>
				</g>
			</g>
		</g>
	</g>
	<g id="g194">
		<g id="g196">
			<g id="g202">
				<g id="g204">
					
						<radialGradient id="path212_1_" cx="-17.0957" cy="693.8945" r="1.9473" gradientTransform="matrix(51.2515 0 0 -51.2515 1036.8363 36026.1328)" gradientUnits="userSpaceOnUse">
						<stop  offset="0" style="stop-color:#F5FA17"/>
						<stop  offset="1" style="stop-color:#FF3800"/>
					</radialGradient>
					<path id="path212" fill="url(#path212_1_)" d="M275.699,405.26c0.017,0.464-0.425,0.541-0.275,1.115l0,0
						c10.484,17.09,10.872,46.261,13.559,67.112l0,0c2.256-14.364,0.884-37.481-3.363-54.085l0,0
						c-1.152-4.511-5.357-14.221-9.316-14.22l0,0C276.1,405.183,275.898,405.206,275.699,405.26"/>
				</g>
			</g>
		</g>
	</g>
	<g id="g214">
		<g id="g216">
			<g id="g222">
				<g id="g224">
					
						<radialGradient id="path232_1_" cx="-17.105" cy="693.8945" r="1.9492" gradientTransform="matrix(51.2555 0 0 -51.2555 1037.0144 36028.6719)" gradientUnits="userSpaceOnUse">
						<stop  offset="0" style="stop-color:#F5FA17"/>
						<stop  offset="1" style="stop-color:#FF3800"/>
					</radialGradient>
					<path id="path232" fill="url(#path232_1_)" d="M371.695,204.882c-33.955,8.956-64.801,23.438-72.015,57.56l0,0
						c3.388-3.016,4.722-7.838,7.046-11.895l0,0c1.249-2.173,2.511-3.812,3.901-5.793l0,0c1.357-1.935,3.019-4.19,3.174-5.734l0,0
						c1.375-2.857,8.315-8.609,12.242-10.861l0,0c34.308-19.667,72.167-22.335,83.622-34.625l0,0
						c-1.963,4.253-6.941,7.533-10.792,10.741l0,0c-53.257,10.464-73.703,52.573-76.635,57.402l0,0
						c8.863-5.831,36.417-57.097,112.027-57.4l0,0c9.484-0.039,21.619-0.312,30.566-5.44l0,0
						c-5.658,8.14-20.805,6.342-29.273,12.266l0,0c14.27-3.247,36.176-4.13,50.801-7.836l0,0
						c-5.328,4.95-14.881,8.295-23.082,12.118l0,0c-7.656,3.57-18.477,4.084-27.998,5.592l0,0
						c-59.667,9.454-75.196,42.215-74.42,44.447l0,0c5.576-4.193,16.133-23.677,60.971-34.946l0,0
						c15.955-4.01,32.822-3.448,49.348-3.337l0,0c30.215,0.202,59.596,13.612,89.869,5.726l0,0
						c-12.225,8.083-22.938,11.027-38.852,15.607l0,0c-62.119-15.834-98.566,9.612-100.754,12.687l0,0
						c1.838,0.417,17.238-6.121,22.625-7.268l0,0c50.889-10.835,89.85,1.866,126.854,14.646l0,0c0,0,16.43,6.748,38.498,6.68l0,0
						c-14.822,11.121-37.178,18.403-59.418,18.396l0,0c-12.838-6.113-27.682-11.366-43.895-14.623l0,0
						c-9.791-1.968-19.123-3.804-30.588-3.682l0,0c-2.309,0.025-4.779-0.036-7.328-0.097l0,0c-8.27-0.197-17.352-0.396-24.232,2.333
						l0,0c1.746,1.457,6.297,0.868,8.453,0.764l0,0c22.906-1.123,48.621,3.163,67.215,9.782l0,0
						c24.76,8.814,45.291,20.412,65.32,35.479l0,0c14.797,11.137,27.506,28.518,47.32,34.046l0,0
						c-3.17,0.559-6.08,1.003-9.395,1.141l0,0c-8.207,0.336-17.479-0.115-23.582-2.799l0,0c-4.904-2.159-39.26-26.567-41.316-27.608
						l0,0c2.102,4.282,48.141,37.717,68.414,50.914l0,0c-2.014,0.992-31.559-10.513-45.615-17.768l0,0
						c0.105,1.6,10.211,10.193,13.941,14.179l0,0c9.572,10.222,17.254,23.64,23.795,36.349l0,0
						c9.938,19.305,18.631,43.836,31.113,58.733l0,0c-3.445-0.31-12.066-6.441-14.158-7.953l0,0
						c-1.949-1.412-4.131-3.971-6.098-3.149l0,0c-0.43,1.668,1.646,2.798,2.535,4.169l0,0c2.848,4.409,4.898,11.86,6.656,18.793l0,0
						c3.604,14.204,5.941,27.471,10.203,39.658l0,0c-4.188-4.501-7.385-9.708-11.738-13.992l0,0
						c-2.506-2.47-11.301-12.13-13.01-7.32l0,0c-0.146,2.887,2.217,10.729,2.408,11.478l0,0c2.197,8.617,6.539,18.253,10.576,26.494
						l0,0c2.939,5.997,7.172,12.944,10.676,18.823l0,0c4.34,7.274,16.221,21.912,17.043,20.851l0,0
						c-4.422-5.432-8.105-13.001-11.973-16.892l0,0c-6.637-12.849-16.746-32.129-19.797-49.816l0,0
						c11.572,8.544,16.441,20.467,26.414,31.314l0,0c1.82,1.177,4.422,6.376,5.053,8.192l0,0c0.645-3.19-3.355-9.441-4.797-12.511
						l0,0c-1.311-2.798-2.332-5.282-2.5-8.188l0,0c-7.008-18.422-8.455-37.149-14.656-58.268l0,0
						c7.092,3.434,16.336,6.575,25.451,7.756l0,0c3.047,0.395,6.227,1.541,8.426,0.398l0,0c-2.904-0.898-4.557-2.178-4.557-2.178
						l0,0c-28.93-25.035-42.414-67.055-64.297-98.322l0,0c11.92,4.963,34.258,9.538,46.219,4.144l0,0
						c-9.145-0.47-15.807-2.828-19.938-4.692l0,0c-4.496-2.026-9.484-6.205-13.559-8.892l0,0c-4.467-2.946-9.055-5.422-12.768-8.8
						l0,0c7.592,2.904,38.521,9.482,56.748-6.504l0,0c0.99-0.865,2.695-1.527,3.416-2.836l0,0
						c-29.471,8.281-74.041-30.429-79.713-34.872l0,0c-3.475-2.725-6.582-5.109-7.555-5.729l0,0
						c-2.537-1.614-4.828-3.594-7.363-5.233l0,0c-5.443-3.514-11.875-5.699-16.873-9.918l0,0c5.615,0.658,11.078-0.277,16.277-1.708
						l0,0c0.701,0.234,10.725-1.399,15.797-3.126l0,0c20.963-7.136,35.35-24.336,53.453-33.232l0,0
						c-7.256-1.264-17.041,6.237-38.422,7.545l0,0c-22.477,1.375-33.867-4.465-40.309-6.526l0,0
						c-3.832-1.227-25.6-7.801-31.369-8.726l0,0c39.709-7.595,53.311-37.121,53.311-37.121l0,0c-5.52,5.246-8.742,6.81-8.742,6.81
						l0,0c-7.936,4.099-18.619,5.658-27.545,6.649l0,0c-6.672,0.743-20.936-1.436-37.271-3.613l0,0
						c-15.064-2.009-31.895-4.018-46.16-3.736l0,0c8.484-3.522,15.961-6.273,23.201-10.672l0,0
						c8.688-5.274,17.057-12.984,20.434-22.115l0,0c-10.451,10.515-33.215,14.552-43.893,16.388l0,0
						c6.771-5.435,13.01-9.219,15.961-18.829l0,0c-19.459,15.467-48.006,13.152-74.457,17.449l0,0c0,0,12.488-11.113,21.855-27.391
						l0,0C428.219,174.807,402.756,197.271,371.695,204.882"/>
				</g>
			</g>
		</g>
	</g>
	<g id="g234">
		<g id="g236">
			<g id="g242">
				<g id="g244">
					
						<radialGradient id="path252_1_" cx="-17.1045" cy="693.8916" r="1.9493" gradientTransform="matrix(51.256 0 0 -51.256 1037.1235 36029.0625)" gradientUnits="userSpaceOnUse">
						<stop  offset="0" style="stop-color:#F5FA17"/>
						<stop  offset="1" style="stop-color:#FF3800"/>
					</radialGradient>
					<path id="path252" fill="url(#path252_1_)" d="M320.228,210.758c3.935-5.101,10.941-9.37,12.216-15.602l0,0
						c-6.631,6.469-15.672,11.064-22.995,17.587l0,0c-7.393,6.58-12.837,14.75-18.593,22.329l0,0
						c1.26-9.946,9.583-15.691,13.488-22.274l0,0c-13.47,7.143-20.531,19.169-21.972,21.149l0,0
						c-5.788,7.954-6.468,18.917-11.984,27.258l0,0c-4.415-5.92-1.022-12.31,1.466-17.632l0,0
						c-13.692,5.686-9.688,25.65-32.065,33.34l0,0c-3.615,1.243-7.849,3.438-11.48,5.142l0,0c-4.397,2.058-9.298,3.815-12.339,6.684
						l0,0c-1.721,1.621-7.542,9.591-8.789,11.25l0,0c-1.334,1.77-2.334,4.021-3.569,5.402l0,0c-1.852,2.067-4.286,1.758-6.971,1.448
						l0,0c-1.361-0.156-2.789-0.313-4.236-0.159l0,0c-9.941,1.05-18.75,9.781-32.231,11.777l0,0c-1.153,0.171-2.33,0.145-3.527,0.12
						l0,0c-1.111-0.022-2.24-0.046-3.386,0.086l0,0c-4.98,0.568-10.028,2.541-14.288,3.73l0,0
						c-9.749,2.721-15.817,6.164-24.32,10.396l0,0c-4.791,2.388-11.136,6.018-12.752,9.079l0,0
						c-3.104,5.885,3.914,11.459,7.083,15.107l0,0c1.158,8.398,5.414,6.603,7.092,6.348l0,0c2.65,2.75,1.743,5.55,2.226,9.302l0,0
						c1.778,13.819,6.823,20.354,16.646,24.897l0,0c2.538,5.437,1.73,14.845,3.908,20.841l0,0
						c2.561,7.046,6.591,14.367,10.311,18.853l0,0c-2.289-7.488-4.456-18.351-2.816-25.306l0,0c1.229-1.58,2.724-4.23,2.813-5.708
						l0,0c0.281,0.678,0.575,0.313,0.875-0.049l0,0c0.179-0.22,0.362-0.437,0.547-0.432l0,0c-0.497,9.68,2.421,18.119,5.625,23.982
						l0,0c3.021,5.527,5.503,9.93,8.835,14.23l0,0c1.806,2.334,3.799,4.896,5.944,5.716l0,0c0.177-2.975-2.786-4.054-2.891-8.521
						l0,0c-5.97-13.729-7.21-40.525,7.108-46.559l0,0c2.16,2.597,4.757,7.188,8.48,5.502l0,0c3.419,6.835,7.544,12.844,8.767,22.265
						l0,0c2.27,0.465,2.117-1.127,3.143-1.72l0,0c4.114,7.343,8.087,14.851,10.065,24.71l0,0c0.587,0.195,0.987,0.102,1.332,0.005
						l0,0c0.413-0.113,0.747-0.231,1.235,0.151l0,0c2.981,13.489,3.746,22.102,3.142,33.676l0,0
						c-3.28,0.967-10.754,8.063-11.665,8.988l0,0c-1.327,0.636-11.011,12.411-17.11,18.194l0,0
						c-3.803-6.519-4.268-18.663-3.541-25.249l0,0c-1.586,1.135-3.009,3.417-3.931,5.434l0,0
						c-5.158,11.284-5.183,29.595-2.148,40.309l0,0c-7.807-4.188-12.868-24.915-10.448-33.799l0,0
						c-5.159,3.159-7.59,13.164-7.418,20.679l0,0c0.214,9.347,6.432,13.833,7.47,19.816l0,0
						c-1.184,12.427-8.202,21.959-2.263,34.485l0,0c2.385,5.034,11.536,11.676,11.612,16.923l0,0
						c0.537-1.089,0.339,0.064,0.297,1.218l0,0c-0.033,0.923,0.036,1.846,0.666,1.619l0,0c2.168-2.685,2.999-7.436,1.552-12.169l0,0
						c3.626,4.011,8.195,8.354,9.227,14.566l0,0c0.86,5.175-2.355,9.423-1.732,14.372l0,0c5.357-4.785,5.991-13.575,8.111-21.104
						l0,0c5.85,7.174,13.488,13.371,11.33,26.8l0,0c3.118-4.886,4.169-10.446,1.77-18.389l0,0
						c-1.512-5.004-5.935-9.168-4.879-14.924l0,0c1.207,3.611,4.826,4.377,8.119,5.531l0,0c0.705,1.429,1.342,2.925,3.167,3.023l0,0
						c-1.557-4.395-4.5-7.15-5.395-12.324l0,0c4.417,2.376,9.697,5.304,15.701,4.545l0,0c2.469,2.651,4.948,5.296,8.901,6.194l0,0
						c0.362-1.872-1.799-1.478-2.745-2.325l0,0c-4.75-4.262-6.728-14.373-5.085-21.838l0,0c0.479,2.661,1.954,5.068,3.164,7.401l0,0
						c1.1,2.115,1.911,5.652,4.86,5.802l0,0c-1.839-8.197-1.441-19.397,0.746-26.334l0,0c0.619,2.498,2.201,4.789,3.83,6.616l0,0
						c1.539,1.729,3.474,4.212,5.461,4.295l0,0c-0.978-8.829,2.159-17.029,7.719-21.434l0,0c6.625,3.454,9.456,11.383,13.181,18.251
						l0,0c-2.911,7.302-5.796,14.056-5.817,22.375l0,0c-0.041,17.718,9.173,37.834,6.99,53.79l0,0
						c-0.664,4.844-2.566,13.046-3.942,18.568l0,0c2.155-3.19,4.997-11.643,5.205-12.107l0,0
						c5.713-12.827,0.558-37.777-1.494-53.514l0,0c0.362-0.368-0.393-15.455,2.042-19.506l0,0
						c3.995,8.218,7.454,17.005,10.09,29.451l0,0c-0.149-21.713-6.472-40.489-13.716-60.167l0,0
						c-8.813-23.925-4.669-50.788,2.631-74.286l0,0c-4.211,4.059-6.554,11.333-8.38,17.84l0,0c-2.104,7.489-3.913,18.618-4.1,25.516
						l0,0c-0.25,9.135,0.602,17.841,1.878,27.21l0,0c-1.45-6.072-7.517-0.845-9.333,1.866l0,0
						c-3.537,5.271-5.387,15.433-7.085,20.285l0,0c-3.042-4.707-2.064-10.737-1.343-16.308l0,0c-3.17-0.983-3.85,3.307-4.657,5.489
						l0,0c-2.232,6.039-3.278,13.787-3.73,21.107l0,0c-0.852-4.176-3.36-8.881-4.369-13.139l0,0
						c-0.818-3.449-0.792-8.426-5.309-6.859l0,0c1.947,13.24-1.04,22.507,2.025,33.398l0,0c-5.595,0.465-9.233-4.739-11.257-8.193
						l0,0c-1.379-2.347-2.093-5.576-3.771-5.893l0,0c-2.869,3.88-0.281,12.103-0.104,16.429l0,0
						c-1.943-2.345-2.795-5.981-4.372-8.76l0,0c-1.436-0.097-2.079,0.486-2.838,0.963l0,0c1.204,8.181,1.032,13.671,4.512,19.333
						l0,0c-6.474-5.312-9.863-16.048-11.664-26.407l0,0c-0.725-4.166-0.601-6.717-2.95-9.245l0,0
						c-1.853-0.478-2.932,0.606-3.868,1.779l0,0c0.356,2.631,1.026,7.671,1.412,8.277l0,0c1.727,7.956,6.235,15.824,3.813,24.133
						l0,0c-0.768-2.346-0.577-4.622-1.261-6.464l0,0c-2.566-6.9-8.39-8.456-12.37-12.846l0,0c-1.43-1.575-1.209-3.75-3.318-4.835
						l0,0c-1.577,4.313,2.265,10.278,2.702,15.103l0,0c-6.604-6.738-12.322-24.757-6.157-34.885l0,0
						c1.318,0.729,3.839,1.143,5.162,0.67l0,0c7.365,3.339,15.627,3.381,24.581,1.622l0,0c3.623-2.481,6.583-6,9.943-7.751l0,0
						c5.538-8.882,8.178-17.666,14.757-24.571l0,0c0.282,0.86,1.436,0.692,2.263,0.909l0,0c6.526-7.055,12.932-14.212,17.447-22.969
						l0,0c0.36,0.504,0.404,1.38,1.54,0.968l0,0c0.968-3.225,3.874-4.806,4.806-8.056l0,0c-3.276-10.188-7.111-19.711-9.152-31.355
						l0,0c0.263-1.321,1.345-2.901,0.064-3.655l0,0c-0.952-0.583-1.323,0.13-1.669,0.841l0,0c-0.338,0.696-0.657,1.39-1.473,0.881
						l0,0c0.922-3.222-1.214-7.131-0.474-10.181l0,0c-0.688-0.031-1.179,0.448-1.602,0.929l0,0
						c-0.537,0.602-0.965,1.207-1.542,0.791l0,0c-0.518-4.274,1.338-7.552,0.917-11.023l0,0c-0.803-0.583-0.982,0.068-1.271,0.717
						l0,0c-0.218,0.49-0.498,0.976-1.146,0.942l0,0c-4.08-6.425-2.201-18.309-7.44-23.83l0,0c-2.318,1.698-0.988,4.437-3.144,6.097
						l0,0c-0.507-7.593-3.77-15.748-8.075-22.687l0,0c-4.396-7.085-8.509-13.956-15.846-10.735l0,0
						c-1.335-0.809-3.104-1.109-3.862-2.602l0,0c2.257-0.636,4.862,0.05,6.101-1.231l0,0c-6.313-1.611-18.242-0.688-24.431,0.189
						l0,0c3.088,3.913,11.667,1.348,15.336,4.573l0,0c-4.695,4.639-11.004,2.518-16.219,2.432l0,0
						c0.344,0.683,1.987,1.865,1.631,2.056l0,0c-4.658,0.192-8.957-0.041-11.838-1.944l0,0c-0.365-1.304-1.782-3.445-3.108-2.297
						l0,0c-0.659,1.572,2.1,2.795,2.29,5.649l0,0c-7.251-0.517-10.761-4.596-15.333-8.953l0,0c-0.468,1.986,1.491,2.418,0.663,3.595
						l0,0c-4.527,1.62-9.663,0.663-12.532-1.521l0,0c-5.489-4.176-6.058-13.886-9.647-19.639l0,0
						c-0.868,8.07,3.415,16.572,6.32,23.561l0,0c-7.704-2.839-7.225-15.334-10.335-23.595l0,0c0.623-0.595,1.176-1.248,1.662-1.96
						l0,0c-5.41-3.825-12.664-5.476-14.604-13.393l0,0c10.333-10.584,28.76-21.973,46.801-25.385l0,0
						c4.462-0.844,8.027-0.652,11.434-0.458l0,0c2.718,0.152,5.333,0.306,8.225-0.069l0,0c8.572-5.95,19.663-11.277,30.39-11.99l0,0
						c3.964-0.264,7.789,0.273,10.452-1.593l0,0c3.976-2.781,5.512-12.336,9.647-15.755l0,0
						c18.513-15.315,45.822-16.577,50.721-22.06l0,0c8.475-9.482,12.195-31.126,13.347-32.845l0,0
						c-0.865,5.79-1.98,15.336,1.584,19.207l0,0c2.055-18.857,13.457-34.414,25.89-44.46l0,0
						c-3.629,5.643-9.582,15.039-8.747,22.248l0,0c8.216-10.001,16.379-20.048,30.01-25.46l0,0c0.842-0.563,0.167-0.744,0.634-1.148
						l0,0c9.405-3.456,19.965-8.217,30.42-11.63l0,0c-9.606,10.213-22.538,12.703-31.996,19.057l0,0
						c3.208-0.694,9.046-2.133,13.894-4.063l0,0c8.881-3.533,17.366-8.727,22.845-15.018l0,0c2.169-2.49,3.441-5.609,5.532-8.119
						l0,0c2.246-2.69,5.55-4.878,6.199-8.902l0,0C369.13,194.565,338.868,197.814,320.228,210.758 M264.807,255.465
						c2.417,4.558,2.874,11.768-1.34,14.704l0,0C265.069,266.247,264.746,260.692,264.807,255.465 M164.277,390.364
						c3.485,0.526,6.188,1.979,10.688,1.308l0,0c-1.498,2.521-6.097,0.601-8.155,2.861l0,0
						C167.511,392.523,164.843,392.091,164.277,390.364 M183.662,390.954c7.596-0.708,14.956,0.438,17.692,6.569l0,0
						c-0.316,0.631-1.507,0.521-2.115,0.904l0,0c0.181-0.834,0.941-1.905,0.153-2.567l0,0c-2.313,0.174-3.343,1.437-4.925,2.229l0,0
						c-3.492-3.667-8.066-8.172-13.011-2.938l0,0c-1.367-2.098-4.725-2.614-6.129-3.51l0,0c3.076-0.803,6.052-1.145,8.035,0.067l0,0
						C183.92,391.535,182.991,391.097,183.662,390.954 M142.196,396.928c3.417-2.634,8.745-0.979,11.269-4.944l0,0
						c5.113,1.238,6.399,0.833,12.287,3.002l0,0c-6.382,7.603-8.416,23.592-4.26,36.836l0,0c-2.879-3.495-6.254-11.456-7.41-19.092
						l0,0c-1.075-7.082,0.243-12.904,0.346-17.904l0,0c-2.456,0.727-2.152,3.793-2.783,6.066l0,0
						c-1.573-0.447-2.145,0.296-4.711,0.389l0,0c-0.303-2.031-0.269-4.458-2.534-4.169l0,0c-0.618,1.842-1.09,6.022,0.567,6.884l0,0
						c-0.817,5.258-2.507,11.209-2.701,15.914l0,0C139.725,413.615,137.323,400.684,142.196,396.928 M228.01,477.424
						c0.894,0.273,3.125,0.167,2.294,1.268l0,0c0.74,0.148,0.963-0.141,1.188-0.435l0,0c0.192-0.251,0.388-0.506,0.927-0.467l0,0
						c-0.567,3.476-5.609,6.014-7.226,9.715l0,0c-14.829,10.396-21.033,26.646-21.737,28.428l0,0
						c-1.245,3.144-4.565,8.486-6.898,13.705l0,0c-5.583-3.354-8.368-10.013-11.554-16.197l0,0
						c7.335-11.912,15.467-24.816,28.868-30.478l0,0c-3.028,3.742-8.204,6.446-9.554,12.464l0,0
						C210.884,489.645,218.104,481.496,228.01,477.424 M179.704,533.216c-5.536-8.771-7.813-26.215-4.557-37.571l0,0
						c1.664,15.937,8.89,27.418,15.4,36.312l0,0c-2.226,1.14-4.734,2.068-7.192,2.068l0,0
						C182.109,534.024,180.876,533.788,179.704,533.216 M159.347,503.147c2.633,10.018,5.271,20.026,10.938,26.467l0,0
						C159.463,529.231,157.123,513.165,159.347,503.147 M170.066,535.832c1.964-0.978,4.068,1.298,6.312,1.31l0,0
						c-0.702,0.229-1.423,0.334-2.124,0.334l0,0C172.506,537.476,170.894,536.822,170.066,535.832"/>
				</g>
			</g>
		</g>
	</g>
	<g id="g254">
		<g id="g256">
			<g id="g262">
				<g id="g264">
					
						<radialGradient id="path272_1_" cx="-17.1064" cy="693.8936" r="1.948" gradientTransform="matrix(51.2561 0 0 -51.2561 1037.1478 36029.1328)" gradientUnits="userSpaceOnUse">
						<stop  offset="0" style="stop-color:#F5FA17"/>
						<stop  offset="1" style="stop-color:#FF3800"/>
					</radialGradient>
					<path id="path272" fill="url(#path272_1_)" d="M272.235,288.056c-0.04-0.038-1.028-0.12-1.818,0.064l0,0
						c-9.368,2.176-50.92,22.226-68,33.787l0,0c-12.152-1.293-23.914,2.858-32.981,7.096l0,0c-2.141,1.001-4.61,1.602-5.922,3.409
						l0,0c0.334,1.24,1.762,1.193,3.187,1.144l0,0c0.887-0.03,1.775-0.06,2.398,0.219l0,0c8.363-5.088,19.256-10.874,31.295-9.877
						l0,0c-0.997,0.395-18.791,11.231-10.462,14.728l0,0c1.069-0.328,1.15-1.496,2.809-1.326l0,0
						c4.248-5.836,9.777-10.588,16.712-14.147l0,0c7.837-8.639,19.3-14.203,30.067-20.358l0,0c-1.6,2.69-4.118,4.601-5.593,7.394
						l0,0c0.651,2.546,2.73,3.406,3.739,5.529l0,0c-0.796,1.686-0.864,3.987-1.334,5.949l0,0c-2.597-0.817-7.991-2.453-9.966-1.369
						l0,0c0.052,1.811,3.002,1.825,3.775,1.513l0,0c5.387,1.694,9.103,3.195,15.033,5.329l0,0c1.841-3.399,5.914-5.213,10.396-6.695
						l0,0c5.946-1.966,12.275-1.392,18.542-0.798l0,0c-0.604-2.338-3.396-2.094-5.676-2.451l0,0
						c-4.975-2.01-14.327-3.801-22.615-4.338l0,0c-1.112-1.474-3.723-1.176-4.949-2.512l0,0c-2.208-4.731,4.039-8.554,5.263-11.38
						l0,0c7.742-4.175,15.311-6.568,23.292-9.581l0,0c2.216-0.838,4.934-1.054,6.676-3.106l0,0
						C274.395,286.512,272.886,286.921,272.235,288.056 M242.77,315.66c-0.27,0.446-0.397,1.013-0.214,1.844l0,0
						c-0.484,0.04-0.965,0.078-1.449,0.119l0,0C240.916,316.339,241.472,315.685,242.77,315.66L242.77,315.66L242.77,315.66
						 M247.964,316.692c2.295,1.001,6.249,0.048,7.817,1.908l0,0c-4.772,0.521-9.268,2.612-13.049,5.457l0,0
						c-1.709-0.109-2.572-1.211-4.136-1.484l0,0c-0.219-1.647,0.4-2.582,0.79-3.712l0,0c0.862,1.163,2.44,1.752,4.011,1.752l0,0
						C245.721,320.613,248.025,319.322,247.964,316.692"/>
				</g>
			</g>
		</g>
	</g>
	<g id="g274">
		<g id="g276">
			<g id="g282">
				<g id="g284">
					
						<radialGradient id="path292_1_" cx="-17.1055" cy="693.8789" r="1.9564" gradientTransform="matrix(51.2554 0 0 -51.2554 1037.1479 36028.5703)" gradientUnits="userSpaceOnUse">
						<stop  offset="0" style="stop-color:#F5FA17"/>
						<stop  offset="1" style="stop-color:#FF3800"/>
					</radialGradient>
					<path id="path292" fill="url(#path292_1_)" d="M175.524,340.908c-3.38-0.805-8.406-0.285-10.301,3.402l0,0
						c3.56,4.657,8.773-0.971,11.026-3.463l0,0c2.755,2.134,7.208-1.902,9.185-3.676l0,0c-0.474-0.074-0.969-0.11-1.478-0.11l0,0
						C180.275,337.062,175.991,338.919,175.524,340.908"/>
				</g>
			</g>
		</g>
	</g>
	<g id="g294">
		<g id="g296">
			<g id="g302">
				<g id="g304">
					
						<radialGradient id="path312_1_" cx="-16.9023" cy="693.6836" r="1.947" gradientTransform="matrix(48.8681 0 0 -48.8681 992.986 34361.9219)" gradientUnits="userSpaceOnUse">
						<stop  offset="0" style="stop-color:#F5FA17"/>
						<stop  offset="1" style="stop-color:#FF3800"/>
					</radialGradient>
					<path id="path312" fill="url(#path312_1_)" d="M281.298,455.514c0.584,13.065-0.871,26.175-4.257,36.841l0,0
						c0.475,5.183-2.818,7.715-3.306,13.039l0,0c0.044,0.603-0.689,1.212-0.272,1.121l0,0c6.356-9.246,9.44-22.681,10.629-34.81l0,0
						c0.952-9.697,0.853-20.489-1.393-30.172l0,0c-0.711-3.079-0.89-7.389-4.038-9.155l0,0
						C279.127,439.745,280.931,447.274,281.298,455.514"/>
				</g>
			</g>
		</g>
	</g>
	<g id="g314">
		<g id="g316">
			<g id="g322">
				<g id="g324">
					
						<radialGradient id="path332_1_" cx="-17.1143" cy="693.874" r="1.9508" gradientTransform="matrix(51.2602 0 0 -51.2602 1037.6283 36031.4961)" gradientUnits="userSpaceOnUse">
						<stop  offset="0" style="stop-color:#F5FA17"/>
						<stop  offset="1" style="stop-color:#FF3800"/>
					</radialGradient>
					<path id="path332" fill="url(#path332_1_)" d="M335.928,286.088c-1.691,0.777-7.145,3.634-11.377,6.304l0,0
						c-1.956,1.233-9.295,6.476-12.522,9.973l0,0c-6.814,7.38-9.652,5.944-9.158,7.611l0,0c1.041,1.073,2.112,1.416,3.411,1.544l0,0
						c5.772,0.563,9.434-1.977,11.992-5.003l0,0c6.392-7.558,17.826-16.744,27.527-20.147l0,0
						c8.966-3.146,17.208-1.589,25.565-0.032l0,0c4.93,0.917,9.9,1.836,15.081,1.786l0,0c-7.467-3.535-18.624-5.953-29.527-5.953
						l0,0C349.362,282.17,341.925,283.333,335.928,286.088"/>
				</g>
			</g>
		</g>
	</g>
	<g id="g334">
		<g id="g336">
			<g id="g342">
				<g id="g344">
					
						<radialGradient id="path352_1_" cx="-17.1025" cy="693.8926" r="1.9498" gradientTransform="matrix(51.2566 0 0 -51.2566 1036.9161 36029.6758)" gradientUnits="userSpaceOnUse">
						<stop  offset="0" style="stop-color:#F5FA17"/>
						<stop  offset="1" style="stop-color:#FF3800"/>
					</radialGradient>
					<path id="path352" fill="url(#path352_1_)" d="M142.096,338.191c-7.114,1.15-29.501,5.701-27.192,15.376l0,0
						c0.573,2.406,6.183,5.304,9.539,5.052l0,0c4.361-7.536,6.354-17.085,19.373-17.286l0,0c0.963-4.351,4.275-6.713,6.862-9.688
						l0,0c-0.478,0.035-0.383-0.608-0.785-0.664l0,0C147.891,333.774,142.803,335.378,142.096,338.191"/>
				</g>
			</g>
		</g>
	</g>
	<g id="g354">
		<g id="g356">
			<g id="g362">
				<g id="g364">
					
						<radialGradient id="path372_1_" cx="-17.0986" cy="693.8945" r="1.9508" gradientTransform="matrix(51.2509 0 0 -51.2509 1036.7015 36025.8281)" gradientUnits="userSpaceOnUse">
						<stop  offset="0" style="stop-color:#F5FA17"/>
						<stop  offset="1" style="stop-color:#FF3800"/>
					</radialGradient>
					<path id="path372" fill="url(#path372_1_)" d="M151.177,350.942c4.35,3.338,11.277-0.131,11.298-4.579l0,0
						c-0.312-0.148-0.706-0.216-1.16-0.216l0,0C158.522,346.147,153.476,348.712,151.177,350.942"/>
				</g>
			</g>
		</g>
	</g>
	<g id="g374">
		<g id="g376">
			<g id="g382">
				<g id="g384">
					
						<radialGradient id="path392_1_" cx="-17.1147" cy="693.8965" r="1.9501" gradientTransform="matrix(51.2556 0 0 -51.2555 1037.5669 36029.0156)" gradientUnits="userSpaceOnUse">
						<stop  offset="0" style="stop-color:#F5FA17"/>
						<stop  offset="1" style="stop-color:#FF3800"/>
					</radialGradient>
					<path id="path392" fill="url(#path392_1_)" d="M211.242,384.668c1.784,1.235,5.333,1.51,4.736,4.354l0,0
						c3.919,1.187,3.944,4.07,4.281,7.673l0,0c11.133,10.294,16.359,27.448,24.457,39.943l0,0c-0.362,0.031-0.457-0.259-0.754-0.305
						l0,0c1.827,1.732,2.597,4.355,4.434,5.108l0,0c-5.895-17.189-12.348-33.279-21.792-47.459l0,0
						c-0.061-0.726-0.12-1.451-0.179-2.174l0,0c-3.495-3.831-8.095-6.357-12.768-8.801l0,0
						C212.487,383.25,211.341,383.518,211.242,384.668"/>
				</g>
			</g>
		</g>
	</g>
	<g id="g394">
		<g id="g396">
			<g id="g402" transform="translate(348.4629,220.5371)">
				<path id="path404" fill="#0E1673" d="M-14.405,249.606H0.86l-21.014-60.9V180.9c0-1.27,0.821-2.539,2.463-3.812l-0.118,0.091
					c0.861-0.668,1.645-1.164,2.35-1.499c0.707-0.33,1.486-0.497,2.345-0.497h30.757v16.083l-5.632-4.18H-4.189l21.484,61.558v7.441
					c0,0.549-0.12,1.125-0.353,1.729c-0.236,0.606-0.608,1.177-1.117,1.726c-0.505,0.541-1.153,0.982-1.934,1.317
					c-0.786,0.332-1.723,0.494-2.82,0.494h-31.346v-15.833l5.4,4.088H-14.405z"/>
			</g>
		</g>
		<rect x="17.039" y="129.221" fill="none" width="765.922" height="541.559"/>
	</g>
	<g id="g406">
		<g id="g408">
			<g id="g414">
				<g id="g416">
					
						<linearGradient id="path424_1_" gradientUnits="userSpaceOnUse" x1="-12.8071" y1="707.6045" x2="-10.8575" y2="707.6045" gradientTransform="matrix(0 24.8801 24.8801 0 -17258.123 717.0016)">
						<stop  offset="0" style="stop-color:#51A1CA"/>
						<stop  offset="1" style="stop-color:#0E1673"/>
					</linearGradient>
					<path id="path424" fill="url(#path424_1_)" d="M335.35,397.431c-0.559,0-1.049,0.102-1.492,0.307l0,0
						c-0.533,0.256-1.184,0.674-1.92,1.239l0,0c-0.793,0.621-1.757,1.563-1.757,2.461l0,0v7.542
						c0.171,0.498,21.697,62.874,21.697,62.874l0,0h-18.963c0,0-1.708-1.295-2.852-2.159l0,0v10.489h29.472
						c0.813,0,1.496-0.118,2.034-0.343l0,0c0.533-0.228,0.958-0.514,1.293-0.872l0,0c0.358-0.388,0.622-0.789,0.781-1.196l0,0
						c0.159-0.41,0.243-0.802,0.243-1.149l0,0v-7.175c-0.176-0.502-22.174-63.531-22.174-63.531l0,0h19.427
						c0,0,1.815,1.346,3.097,2.293l0,0v-10.779H335.35z M331.864,399.022l0.115-0.09L331.864,399.022z"/>
				</g>
			</g>
		</g>
	</g>
	<g id="g426">
		<g id="g428">
			<g id="g434" transform="translate(384.7544,302.3423)">
				<path id="path436" fill="#0E1673" d="M-17.679,93.378H8.881l-4.813,5.45v69.134h10.538V98.739l-5.047-5.36h26.685l-5.051,5.355
					v75.365l6.57,5.447H3.203c-10.71,0-16.066-1.692-16.066-5.083V98.829L-17.679,93.378z"/>
			</g>
		</g>
		<rect x="17.039" y="129.221" fill="none" width="765.922" height="541.559"/>
	</g>
	<g id="g438">
		<g id="g440">
			<g id="g446">
				<g id="g448">
					
						<linearGradient id="path456_1_" gradientUnits="userSpaceOnUse" x1="-12.8071" y1="708.5283" x2="-10.8575" y2="708.5283" gradientTransform="matrix(0 24.8801 24.8801 0 -17233.9199 717.0016)">
						<stop  offset="0" style="stop-color:#51A1CA"/>
						<stop  offset="1" style="stop-color:#0E1673"/>
					</linearGradient>
					<path id="path456" fill="url(#path456_1_)" d="M398.393,397.431c1.191,1.265,2.841,3.016,2.841,3.016l0,0v71.567H386.95
						v-71.446c0,0,1.592-1.804,2.769-3.137l0,0h-18.727c1.176,1.333,2.771,3.137,2.771,3.137l0,0v76.238
						c0,2.113,5.306,3.378,14.194,3.378l0,0h29.716c-1.482-1.229-3.598-2.985-3.598-2.985l0,0v-76.754c0,0,1.648-1.753,2.836-3.014
						l0,0H398.393L398.393,397.431z"/>
				</g>
			</g>
		</g>
	</g>
	<g id="g458">
		<g id="g460">
			<g id="g466" transform="translate(468.8008,288.7373)">
				<path id="path468" fill="#0E1673" d="M-25.262,119.361v22.794h3.264c2.027,0,3.76-0.377,5.201-1.135
					c1.443-0.757,2.607-1.708,3.502-2.862c0.902-1.15,1.557-2.403,1.99-3.769c0.426-1.36,0.641-2.677,0.641-3.949
					c0-1.336-0.215-2.663-0.641-3.996c-0.434-1.332-1.113-2.528-2.045-3.588c-0.938-1.058-2.145-1.905-3.627-2.544
					c-1.479-0.634-3.309-0.951-5.482-0.951H-25.262z M-25.605,148.479v39.316l4.807,5.355h-26.555l4.814-5.355v-75.362l-4.814-5.45
					h25.412c21.766-0.166,25.262,13.339,25.73,14.976c0.475,1.634,1.57,9.76-0.604,14.439c-1.172,2.525-7.229,13.935-23.18,17.075
					L-25.605,148.479z"/>
			</g>
		</g>
		<rect x="17.039" y="129.221" fill="none" width="765.922" height="541.559"/>
	</g>
	<g id="g470">
		<g id="g472">
			<g id="g478">
				<g id="g480">
					
						<linearGradient id="path488_1_" gradientUnits="userSpaceOnUse" x1="-12.6763" y1="709.7598" x2="-10.7265" y2="709.7598" gradientTransform="matrix(0 24.5153 24.5153 0 -16951.5723 710.3339)">
						<stop  offset="0" style="stop-color:#51A1CA"/>
						<stop  offset="1" style="stop-color:#0E1673"/>
					</linearGradient>
					<path id="path488" fill="url(#path488_1_)" d="M447.561,397.431h-22.199c1.178,1.333,2.771,3.137,2.771,3.137l0,0v76.578
						c0,0-1.58,1.76-2.73,3.038l0,0h18.643c-1.148-1.283-2.725-3.038-2.725-3.038l0,0v-43.984c0,0,6.605,5.875,7.883,7.013l0,0
						c15.707-4.591,19.914-13.435,21.082-15.75l0,0c1.129-2.253,3.373-15.289-5.629-22.196l0,0
						c-5.9-4.526-14.617-4.804-16.656-4.804l0,0C447.715,397.424,447.561,397.431,447.561,397.431 M441.666,406.391h4.676
						c2.443,0,4.559,0.376,6.281,1.115l0,0c1.732,0.743,3.176,1.759,4.285,3.017l0,0c1.082,1.227,1.881,2.629,2.383,4.176l0,0
						c0.48,1.492,0.717,2.996,0.717,4.479l0,0c0,1.421-0.236,2.905-0.711,4.42l0,0c-0.492,1.559-1.256,3-2.264,4.292l0,0
						c-1.047,1.347-2.424,2.474-4.096,3.351l0,0c-1.721,0.901-3.783,1.358-6.135,1.358l0,0h-5.137V406.391z"/>
				</g>
			</g>
		</g>
	</g>
	<g id="g490">
		<g id="g492">
			<g id="g498" transform="translate(526.5684,255.374)">
				<path id="path500" fill="#0E1673" d="M-30.475,183.076v31.693h11.273l5.75-4.267v16.017h-38.592l4.811-5.455v-37.828h-5.518
					l5.518-11.518v-25.842l-4.811-5.529h38.592v15.731l-5.75-3.907h-11.273v18.924h18.551l-6.693,11.98H-30.475z"/>
			</g>
		</g>
		<rect x="17.039" y="129.221" fill="none" width="765.922" height="541.559"/>
	</g>
	<g id="g502">
		<g id="g504">
			<g id="g510">
				<g id="g512">
					
						<linearGradient id="path520_1_" gradientUnits="userSpaceOnUse" x1="-12.8071" y1="710.4824" x2="-10.8575" y2="710.4824" gradientTransform="matrix(0 24.8801 24.8801 0 -17182.7324 717.0016)">
						<stop  offset="0" style="stop-color:#51A1CA"/>
						<stop  offset="1" style="stop-color:#0E1673"/>
					</linearGradient>
					<path id="path520" fill="url(#path520_1_)" d="M478.402,397.431c1.199,1.379,2.807,3.225,2.807,3.225l0,0v26.797
						c0,0-3.09,6.441-4.531,9.448l0,0h4.531v40.139c0,0-1.594,1.805-2.771,3.145l0,0h32.807v-10.713
						c-1.344,0.996-3.209,2.383-3.209,2.383l0,0h-13.814v-35.112h12.582c0.688-1.229,3.211-5.75,4.785-8.563l0,0h-17.367v-22.34
						h13.768c0,0,1.879,1.274,3.256,2.21l0,0v-10.618H478.402z"/>
				</g>
			</g>
		</g>
	</g>
	<g id="g522">
		<g id="g524">
			<g id="g530" transform="translate(575.5244,263.6826)">
				<path id="path532" fill="#0E1673" d="M-34.894,167.21c2.049,0,3.795-0.377,5.248-1.135c1.453-0.757,2.65-1.708,3.596-2.862
					c0.949-1.146,1.631-2.403,2.064-3.765c0.43-1.364,0.652-2.681,0.652-3.953c0-1.336-0.223-2.663-0.652-3.996
					c-0.434-1.332-1.115-2.528-2.064-3.588c-0.945-1.06-2.184-1.909-3.713-2.544c-1.533-0.634-3.4-0.952-5.6-0.952h-2.828v22.795
					H-34.894z M-20.677,173.256l16.328,38.413h-0.123l0.592,1.09l6.457,5.452h-22.082v-4.546l-19.035-38.322v37.508l4.813,5.36
					h-26.676l4.934-5.36v-75.362l-4.934-5.45h25.631c0.551,0,0.979,0.027,1.293,0.078c1.336,0.062,2.766,0.182,4.291,0.365
					c0,0,19.01,1.446,20.953,18.841C-6.595,166.03-20.677,173.256-20.677,173.256"/>
			</g>
		</g>
		<rect x="17.039" y="129.221" fill="none" width="765.922" height="541.559"/>
	</g>
	<g id="g534">
		<g id="g536">
			<g id="g542">
				<g id="g544">
					
						<linearGradient id="path552_1_" gradientUnits="userSpaceOnUse" x1="-12.7847" y1="711.5234" x2="-10.835" y2="711.5234" gradientTransform="matrix(0 24.8863 24.8863 0 -17160.9844 716.5316)">
						<stop  offset="0" style="stop-color:#51A1CA"/>
						<stop  offset="1" style="stop-color:#0E1673"/>
					</linearGradient>
					<path id="path552" fill="url(#path552_1_)" d="M540.752,397.431H519.1c1.197,1.325,2.826,3.125,2.826,3.125l0,0v76.602
						c0,0-1.615,1.755-2.785,3.026l0,0h18.699c-1.148-1.283-2.727-3.038-2.727-3.038l0,0v-38.12l3.578-0.709l19.203,38.661v3.206
						h15.422c-1.461-1.233-3.197-2.703-3.197-2.703l0,0l-0.783-1.438l0.092-0.068L552.568,436.3
						c16.281-9.139,12.664-23.598,12.664-23.598l0,0c-3.996-14.356-19.551-15.293-23.543-15.293l0,0
						C541.092,397.409,540.752,397.431,540.752,397.431 M535.463,406.391h4.699c2.457,0,4.602,0.368,6.373,1.104l0,0
						c1.791,0.742,3.268,1.759,4.395,3.023l0,0c1.088,1.22,1.9,2.626,2.404,4.177l0,0c0.484,1.498,0.73,3.007,0.73,4.483l0,0
						c0,1.412-0.244,2.902-0.727,4.425l0,0c-0.496,1.567-1.293,3.023-2.367,4.32l0,0c-1.088,1.334-2.49,2.447-4.164,3.32l0,0
						c-1.732,0.901-3.809,1.355-6.176,1.355l0,0h-5.168V406.391L535.463,406.391z"/>
				</g>
			</g>
		</g>
	</g>
	<g id="g554">
		<g id="g556">
			<g id="g562" transform="translate(581.2549,199.8564)">
				<path id="path564" fill="#0E1673" d="M-35.411,289.102c-0.357,0.005-35.91,0.814-39.813,32.453
					c-0.043,0.331-3.754,33.781,43.309,42.631l19.637,3.416c0,0-0.748-26.36-0.795-28.012c0.738-0.606,5.27-4.34,5.27-4.34
					l-25.633-2.422c0,0,0.363,14.801,0.449,18.277c-5.604-1.371-20.535-6.938-20.535-27.411c0-0.362,0.006-0.73,0.016-1.104
					c1.953-21.513,17.139-21.464,17.789-21.453c0,0,15.494,0.141,16.385,0.152c0.67,0.381,6.701,3.833,6.701,3.833l-0.465-16.021
					H-35.411z"/>
			</g>
			<g id="g566" transform="translate(302.5059,191.0342)">
				<path id="path568" fill="#0E1673" d="M-10.258,305.949c-3.22-2.534-6.478-5.154-9.771-7.864
					c18.21-0.011,35.789-0.02,52.775-0.027c-3.115,2.238-6.239,4.547-9.383,6.933c-0.239,10.154-0.476,20.312-0.719,30.477
					c7.044-11.238,14.083-21.696,21.064-31.485c0.059-1.979,0.121-3.956,0.181-5.931c13.365-0.004,26.362-0.009,39.017-0.016
					c-2.941,1.881-9.111,5.946-9.219,6.02c0.118-0.061-17.048,24.3-25.908,38.201c7.894,16.746,15.625,32.074,23.308,46.331
					c2.859,0.986,5.711,1.954,8.554,2.895c-12.777,4.093-25.745,8.791-38.829,14.108c0.059-2.021,0.122-4.043,0.182-6.064
					c-6.217-11.688-12.518-24.179-18.972-37.646c-0.358,15.101-0.713,30.21-1.072,45.328c2.936,1.051,5.857,2.057,8.768,3.027
					c-16.525,7.127-33.209,15.235-49.913,24.357c3.024-4.366,6.063-8.607,9.12-12.739
					C-10.941,402.428-10.351,319.313-10.258,305.949"/>
			</g>
		</g>
		<rect x="17.039" y="129.221" fill="none" width="765.922" height="541.559"/>
	</g>
	<g id="g570">
		<g id="g572">
			<g id="g578">
				<g id="g580">
					
						<linearGradient id="path588_1_" gradientUnits="userSpaceOnUse" x1="-9.646" y1="708.7402" x2="-7.6965" y2="708.7402" gradientTransform="matrix(0 21.6618 21.6618 0 -15019.1162 699.7274)">
						<stop  offset="0" style="stop-color:#51A1CA"/>
						<stop  offset="1" style="stop-color:#0E1673"/>
					</linearGradient>
					<path id="path588" fill="url(#path588_1_)" d="M348.052,490.794c-0.05,1.722-0.146,4.793-0.146,4.793l0,0l-0.301,0.423
						c-7.265,10.185-14.333,20.749-21.007,31.401l0,0l-3.304,5.273l0.885-37.536c0,0,3.298-2.436,5.88-4.347l0,0
						c-0.313,0.003-34.959,0.02-42.735,0.021l0,0c2.834,2.286,6.624,5.336,6.624,5.336l0,0l0.01,0.837l-0.825,116.448
						c0,0-2.773,3.875-5.193,7.258l0,0c13.066-6.935,26.344-13.384,39.63-19.23l0,0c-2.336-0.808-5.872-2.025-5.872-2.025l0,0
						l0.046-1.242l1.073-45.326l3.25-0.701c6.382,13.313,12.756,25.956,18.941,37.579l0,0l0.212,0.4c0,0-0.07,2.314-0.12,3.948l0,0
						c10.549-4.23,21.18-8.086,31.734-11.583l0,0c-1.876-0.631-4.44-1.499-4.44-1.499l0,0l-0.312-0.59
						c-7.913-14.688-15.55-29.87-23.346-46.416l0,0l-0.402-0.854l0.507-0.796c8.35-13.099,26.401-38.703,26.401-38.703l0,0
						c0,0,2.213-1.442,4.418-2.882l0,0C373.002,490.782,350.673,490.794,348.052,490.794"/>
				</g>
			</g>
		</g>
	</g>
	<g id="g590">
		<g id="g592">
			<g id="g598" transform="translate(403.394,97.6748)">
				<path id="path600" fill="#0E1673" d="M-19.363,484.246c2.712-2.69,5.417-5.305,8.108-7.865
					c0.909-26.581,1.817-53.114,2.725-79.595c-2.52-1.757-5.052-3.554-7.593-5.392c14.255-0.004,28.081-0.008,41.501-0.012
					c-2.436,1.626-4.889,3.278-7.363,4.966c-0.691,24.364-1.385,48.76-2.08,73.203c2.457,1.104,4.896,2.199,7.338,3.288
					C9.354,475.879-4.884,479.671-19.363,484.246"/>
			</g>
		</g>
		<rect x="17.039" y="129.221" fill="none" width="765.922" height="541.559"/>
	</g>
	<g id="g602">
		<g id="g604">
			<g id="g610">
				<g id="g612">
					
						<linearGradient id="path620_1_" gradientUnits="userSpaceOnUse" x1="-9.6484" y1="710.3848" x2="-7.6996" y2="710.3848" gradientTransform="matrix(0 21.6618 21.6618 0 -14981.4756 699.7743)">
						<stop  offset="0" style="stop-color:#51A1CA"/>
						<stop  offset="1" style="stop-color:#0E1673"/>
					</linearGradient>
					<path id="path620" fill="url(#path620_1_)" d="M392.63,490.774c1.566,1.115,3.959,2.813,3.959,2.813l0,0l-0.019,0.93
						l-2.748,80.288c0,0-2.116,2.053-3.534,3.426l0,0c10.39-3.121,20.775-5.882,31.035-8.238l0,0
						c-1.254-0.563-3.74-1.673-3.74-1.673l0,0l0.545-19.03l1.594-56.195c0,0,2.18-1.468,3.453-2.324l0,0
						C415.654,490.771,396.698,490.774,392.63,490.774"/>
				</g>
			</g>
		</g>
	</g>
	<g id="g622">
		<g id="g624">
			<g id="g630" transform="translate(480.4951,199.8457)">
				<path id="path632" fill="#0E1673" d="M-26.319,289.121c7.514,8.931,14.996,17.521,22.479,26.025
					c0.006-3.449,0.012-6.898,0.016-10.344c0.102-3.762,0.209-7.523,0.307-11.277c-2.195-1.462-4.387-2.927-6.592-4.404h36.664
					c-2.055,1.508-4.127,3.011-6.217,4.52c0.313,24.79,0.615,49.567,0.926,74.322c-0.656,0.08-1.307,0.168-1.963,0.252
					C6.866,353.489-5.657,339.456-18.202,324.93c-0.107,11.665-0.223,23.338-0.332,35.016c2.379,1.198,4.754,2.405,7.127,3.623
					c-13.205,1.501-26.795,3.732-40.713,6.712c2.559-2.154,5.094-4.254,7.619-6.312c0.523-23.392,1.037-46.759,1.557-70.092
					c-2.369-1.562-4.746-3.146-7.131-4.756H-26.319z"/>
			</g>
		</g>
		<rect x="17.039" y="129.221" fill="none" width="765.922" height="541.559"/>
	</g>
	<g id="g634">
		<g id="g636">
			<g id="g642">
				<g id="g644">
					
						<linearGradient id="path652_1_" gradientUnits="userSpaceOnUse" x1="-9.6479" y1="711.7715" x2="-7.6987" y2="711.7715" gradientTransform="matrix(0 21.6618 21.6618 0 -14949.9912 699.6649)">
						<stop  offset="0" style="stop-color:#51A1CA"/>
						<stop  offset="1" style="stop-color:#0E1673"/>
					</linearGradient>
					<path id="path652" fill="url(#path652_1_)" d="M476.021,490.677c0.781,0.521,2.688,1.796,2.688,1.796l0,0l-0.023,0.945
						c0,0-0.307,11.287-0.307,11.307l0,0c0,0.403-0.018,14.791-0.018,14.791l0,0l-2.99-3.396
						c-6.465-7.349-14.119-16.105-21.986-25.443l0,0h-17.318c1.088,0.727,3.203,2.14,3.203,2.14l0,0l-0.01,0.943l-1.576,70.874
						c0,0-1.963,1.625-2.982,2.47l0,0c9.664-1.915,19.25-3.484,28.654-4.687l0,0c-0.916-0.464-3.107-1.58-3.107-1.58l0,0
						l0.004-1.062l0.373-39.519l16.822,19.321c7.412,8.482,15.063,17.247,22.576,26.122l0,0c-0.047-3.796-0.91-73.078-0.91-73.078
						l0,0c0,0,1.832-1.332,2.674-1.945l0,0H476.021z"/>
				</g>
			</g>
		</g>
	</g>
	<g id="g656">
		<g id="g662" transform="translate(621.2285,122.1182)">
			<path id="path664" fill="#0E1673" d="M-39.018,437.565c5.439,1.344,10.74,2.841,15.898,4.503
				c-7.334-23.009-15.223-43.651-23.379-62.713c-0.064-2.395-0.121-4.794-0.184-7.189c-0.027-1.159,0.797-2.283,2.467-3.396
				c1.586-1.209,3.262-1.83,5.01-1.83c10.928,0.004,21.539,0.008,31.84,0.012v16.934c-1.771-1.584-3.566-3.126-5.373-4.625
				c-5.533-0.309-8.01-0.59-13.744-0.842c7.84,20.41,15.283,42.8,21.994,68.005c0,2.731,0.15,9.552-0.064,10.096
				c-0.215,0.551-0.549,1.001-1.01,1.347c-0.457,0.348-1.045,0.536-1.756,0.574c-0.713,0.035-1.568-0.172-2.57-0.613
				c-9.939-4.365-23.945-8.203-35.137-11.051c-0.115-4.782-0.236-9.568-0.357-14.356c1.959,1.629,3.904,3.296,5.83,5.013
				C-39.377,437.475-39.193,437.52-39.018,437.565"/>
		</g>
	</g>
	<g id="g666">
		<g id="g668">
			<g id="g674">
				<g id="g676">
					
						<linearGradient id="path684_1_" gradientUnits="userSpaceOnUse" x1="-9.6431" y1="714.6406" x2="-7.6937" y2="714.6406" gradientTransform="matrix(0 21.6618 21.6618 0 -14884.7412 699.5555)">
						<stop  offset="0" style="stop-color:#51A1CA"/>
						<stop  offset="1" style="stop-color:#0E1673"/>
					</linearGradient>
					<path id="path684" fill="url(#path684_1_)" d="M578.109,492.325l-0.047,0.034l-0.049,0.033c-1.043,0.689-1.66,1.379-1.66,1.836
						l0,0c0,0.004,0.156,6.288,0.172,6.863l0,0c8.904,20.836,16.531,41.299,23.303,62.548l0,0l1.064,3.342l-3.338-1.076
						c-5.061-1.629-10.369-3.134-15.775-4.471l0,0c-0.016-0.004-0.934-0.228-0.934-0.228l0,0l-0.373-0.309
						c0,0-1.365-1.172-2.723-2.341l0,0c0.092,3.624,0.186,7.393,0.223,8.927l0,0c10.16,2.604,24.139,6.434,34.094,10.809l0,0
						c0.928,0.408,1.465,0.477,1.752,0.465l0,0c0.23-0.016,0.557-0.061,0.752-0.209l0,0c0.174-0.131,0.275-0.298,0.365-0.492l0,0
						c0.037-0.43,0.051-1.377,0.051-2.52l0,0c0-1.36-0.016-2.947-0.029-4.128l0,0c0,0-0.018-2.191-0.021-2.615l0,0
						c-6.244-23.421-13.398-45.545-21.875-67.609l0,0l-1.004-2.616l10.721,0.637l6.418,0.41l0.447,0.372
						c0,0,1.223,1.051,2.418,2.084l0,0v-11.197c-2.977,0-30.037-0.011-30.037-0.011l0,0
						C580.68,490.863,579.398,491.339,578.109,492.325"/>
				</g>
			</g>
		</g>
	</g>
	<g id="g686">
		<g id="g688">
			<g id="g694">
				<g id="g696">
					
						<linearGradient id="path704_1_" gradientUnits="userSpaceOnUse" x1="-9.0845" y1="714.1152" x2="-7.1353" y2="714.1152" gradientTransform="matrix(0 20.6135 20.6135 0 -14182.1064 679.9245)">
						<stop  offset="0" style="stop-color:#51A1CA"/>
						<stop  offset="1" style="stop-color:#0E1673"/>
					</linearGradient>
					<path id="path704" fill="url(#path704_1_)" d="M545.867,490.764c0,0-34.291,0.431-38.043,30.868l0,0
						c0,0-4.094,31.994,41.848,40.637l0,0l17.438,3.029l-0.758-26.682l2.576-2.125l-19.256-1.82l0.455,18.498
						c0,0-24.941-3.098-24.182-30.844l0,0c2.121-23.628,19.635-23.133,19.635-23.133l0,0l16.83,0.151l4.314,2.468l-0.314-11.048
						H545.867L545.867,490.764z"/>
				</g>
			</g>
		</g>
	</g>
	<g id="g708">
		<g id="g714" transform="translate(476,418.626)">
			<path id="path716" fill="#29409A" d="M-25.912-128.696l-4.664-4.787l-5.006,4.431l4.668,4.771L-25.912-128.696z M-31.75-95.229
				l-4.057-4.175l4.355-3.856l4.08,4.17L-31.75-95.229z M2.07-85.476c-13.355-5.102-7.551-17.648-7.551-17.648
				s-2.162,4.646-9.461,3.902c-14.609-1.482-15.586-22.08-15.586-22.08c-2.758,13.239-8.568,19.322-16.457,20.603
				c-8.646,1.396-10.594-4.94-10.594-4.94s3.262,10.585-6.438,15.709c-8.918,4.723-15.223-4.339-15.223-4.339l13.327,22.9
				c7.762-8.256,18.393-16.196,32.896-16.233c14.621-0.036,27.738,6.985,34.746,16.181l0.07,0.002l11.963-17.758
				C7.449-83.147,2.07-85.476,2.07-85.476 M1.492-106.9l-1.441-4.848l-5.084,1.364l1.445,4.843L1.492-106.9z M19.506-97.498
				l-5.42,1.017l1.078,5.385l5.416-1.012L19.506-97.498z M-56.914-113.1l-4.871-1.944l-2.025,4.633l4.879,1.941L-56.914-113.1z
				 M-83.285-101.968l-1.449,4.824l5.076,1.398l1.453-4.828L-83.285-101.968z"/>
		</g>
		<g id="g718" transform="translate(394.3628,335.3379)">
			<path id="path720" fill="#29409A" d="M-18.547,30.365V19.274l-2.8-2.326h15.453l-2.813,2.325v10.818h6.072V19.273l-2.846-2.325
				H10.04l-2.936,2.29v32.265l2.936,2.25H-5.458l2.871-2.25V35.336h-6.12V51.47l2.813,2.283h-15.453l2.8-2.283V35.336l-3.208-0.003
				L-18.547,30.365z"/>
		</g>
		<g id="g722" transform="translate(439.8887,330.0176)">
			<path id="path724" fill="#29409A" d="M-22.654,40.525V54.06h6.563l3.344-1.822v6.836h-22.496l2.801-2.327V40.59h-3.209
				l3.209-4.92V24.63l-2.801-2.361h22.496v6.715l-3.344-1.67h-6.563v8.099h10.797l-3.9,5.113H-22.654z"/>
		</g>
		<g id="g726" transform="translate(462.2344,350.1211)">
			<path id="path728" fill="#29409A" d="M-24.67,2.133l8.885,12.868v-4.964l0.068-5.578l-2.797-2.326H-2.66l-2.801,2.364v37.829
				l-0.957,0.121L-21.32,19.885V36.67l2.807,2.288h-15.445l2.799-2.288V4.459l-2.799-2.326H-24.67z"/>
		</g>
		<g id="g730" transform="translate(496.9248,350.1211)">
			<path id="path732" fill="#29409A" d="M-27.8,2.133l8.881,12.868v-4.964l0.068-5.578l-2.793-2.326H-5.79l-2.801,2.364v37.829
				l-0.957,0.121L-24.45,19.885V36.67l2.801,2.288h-15.439l2.801-2.288V4.459l-2.801-2.326H-27.8z"/>
		</g>
		<path id="path734" fill="#29409A" d="M504.039,365.43h6.061v-8.226h-6.061V365.43z M507.291,389.09l2.865-2.249v-16.167h-6.117
			v16.134l2.797,2.282h-15.443l2.803-2.282v-16.134h-3.213l3.262-4.968v-10.315c0.049-0.852,1.117-1.618,3.219-2.289
			c1.904-0.543,3.945-0.813,6.078-0.813h7.104c0.992,0.024,1.967,0.109,2.898,0.251c0.934,0.143,1.893,0.356,2.896,0.641
			c1.943,0.545,3.084,1.278,3.406,2.211v31.49l2.941,2.209H507.291L507.291,389.09z"/>
		<g id="g736" transform="translate(556.1895,309.6309)">
			<path id="path738" fill="#29409A" d="M-33.148,79.46l2.738-2.283V44.981l-2.738-2.326h14.848l-2.666,2.326v32.195l2.666,2.283
				H-33.148z"/>
		</g>
		<g id="g740" transform="translate(390.1899,341.3247)">
			<path id="path742" fill="#29409A" d="M-18.17,18.932v-8.036c0,0-20.621-2.275-22.062,18.118c0,0-0.302,16.604,17.211,18.65
				l4.851,0.151v-8.188l-3.411,1.972c0,0-8.794,0.758-9.401-12.358c0,0,0.379-12.66,9.476-12.356L-18.17,18.932z"/>
		</g>
	</g>
</g>
</svg>
