<?xml version="1.0" encoding="utf-8"?>
<!-- Generator: Adobe Illustrator 16.0.0, SVG Export Plug-In . SVG Version: 6.00 Build 0)  -->
<!DOCTYPE svg PUBLIC "-//W3C//DTD SVG 1.1//EN" "http://www.w3.org/Graphics/SVG/1.1/DTD/svg11.dtd">
<svg version="1.1" id="Layer_1" xmlns="http://www.w3.org/2000/svg" xmlns:xlink="http://www.w3.org/1999/xlink" x="0px" y="0px"
	  viewBox="0 0 3000 3000" enable-background="new 0 0 3000 3000" xml:space="preserve">
<g>
	<path fill="#FAAD1B" d="M2340.053,2120.599c-65.836,108.88-142.88,210.883-229.532,303.657
		c-86.936,92.492-181.781,177.544-284.822,251.572c-51.426,37.017-265.045,158.425-319.578,185.174
		c-54.627-26.749-518.875-343.029-606.091-435.333c-87.03-92.586-164.169-194.591-229.817-303.755
		c-66.591-108.595-120.654-225.011-161.625-346.23c8.572,30.801,18.179,61.411,28.539,91.739
		c10.831,30.141,22.134,60.185,34.66,89.665c24.677,59.245,53.122,116.889,84.392,173.022
		c63.389,111.894,139.114,216.818,225.013,312.795c85.71,96.166,182.629,182.439,286.33,258.919
		c51.991,38.052,106.053,73.372,161.246,106.62c55.479,32.779,112.365,63.106,170.291,91.457l7.157,3.485l7.161-3.485
		c57.827-28.351,114.623-58.771,170.004-91.645c55.101-33.341,108.975-68.853,160.779-107.092
		c51.896-38.146,101.629-79.305,149.285-122.536c47.754-43.231,93.059-89.101,135.816-137.135
		c85.521-96.165,161.158-200.997,224.732-312.608c31.458-55.947,60.092-113.494,85.05-172.551
		c12.81-29.388,24.206-59.337,35.32-89.384c10.55-30.233,20.345-60.657,29.198-91.361
		C2461.555,1896.338,2406.831,2012.282,2340.053,2120.599z"/>
	
		<linearGradient id="SVGID_1_" gradientUnits="userSpaceOnUse" x1="1089.9985" y1="2252.3184" x2="1089.9985" y2="1510.2817" gradientTransform="matrix(3.3333 0 0 -3.3333 -2133.3274 7750.0381)">
		<stop  offset="0.1263" style="stop-color:#2561AE"/>
		<stop  offset="0.2144" style="stop-color:#255CA7"/>
		<stop  offset="0.3427" style="stop-color:#264C93"/>
		<stop  offset="0.495" style="stop-color:#283374"/>
		<stop  offset="0.5437" style="stop-color:#282968"/>
	</linearGradient>
	<path fill="url(#SVGID_1_)" d="M2583.716,1429.359l48.883,5.558l0.094-123.479l139.114-139.115H2557.72V889.385
		c-179.991-99.179-413.105-209.754-676.359-269.186c0.284,1.789,0.756,3.578,1.133,5.368l19.592,21.945l62.632,40.971l15.54,97.484
		l2.545,4.238c235.092,48.602,385.414,160.965,481.485,264.477v4.804c-97.296-104.359-284.54-187.056-508.142-231.041
		l-16.764-27.315l-13.846-87.217l-51.521-33.719l-31.741-35.696c-20.251-151.924-129.318-248.654-269.752-278.322l-1.506-19.027
		l-14.789-12.998v-24.394c26.469-6.405,43.892-17.048,43.892-29.104c0-12.151-17.423-22.794-43.892-29.105v-25.995l-37.767-21.098
		l-1.979-13.751h13.374l5.651-19.497h-14.975l-21.286-74.596l-21.191,74.596h-14.979l5.744,19.497h13.376l-1.977,13.751
		l-37.771,21.098v25.995c-26.465,6.406-43.796,17.049-43.796,29.105s17.425,22.792,43.796,29.104v24.394l-14.693,12.998
		l-1.507,22.229c-134.025,34.284-237.066,128-256.658,275.026l-31.741,35.697l-51.521,33.718l-13.847,87.217l-19.967,30.611
		c-200.9,42.291-380.515,117.922-505.124,225.672v-2.638c118.864-102.852,265.796-214.087,478.846-261.086l5.37-8.193l15.445-96.92
		l62.635-40.971l19.498-21.945c0.375-2.167,0.94-4.333,1.318-6.498C867.158,677.087,633.95,785.213,453.959,883.263v289.059H228.193
		l153.053,140.433v399.824l126.776,59.811c91.926,314.396,338.507,773.272,997.817,1090.213
		c660.908-317.787,907.114-778.269,998.475-1092.664l131.108-57.359v-218.044l-11.113-14.034
		C2608.016,1459.688,2595.771,1444.241,2583.716,1429.359z"/>
	<path fill="#FFFFFF" d="M2269.319,2101.194c-60.281,99.65-130.731,192.988-210.133,277.948
		c-79.585,84.578-166.333,162.473-260.709,230.19c-47.095,33.907-95.506,65.933-145.328,95.695
		c-47.941,28.162-97.016,54.252-147.029,78.738c-50.011-24.486-99.271-50.482-147.307-78.645
		c-49.92-29.67-98.521-61.599-145.804-95.317c-94.561-67.532-181.873-144.953-261.743-229.44
		c-79.684-84.768-150.323-178.107-210.32-278.039c-60.938-99.461-110.48-205.987-147.968-316.939
		c7.912,28.162,16.672,56.134,26.09,83.921c9.89,27.597,20.251,55.101,31.741,82.037c22.604,54.158,48.601,106.996,77.234,158.328
		c58.019,102.382,127.339,198.452,205.986,286.233c78.459,88.065,167.087,166.901,262.027,236.976
		c47.659,34.849,97.014,67.155,147.591,97.579c50.767,30.043,102.854,57.736,155.787,83.729l6.591,3.203l6.593-3.203
		c52.933-25.899,104.925-53.78,155.599-83.825c50.482-30.516,99.743-63.01,147.119-98.05
		c47.47-34.943,92.964-72.523,136.664-112.177c43.703-39.557,85.241-81.471,124.326-125.551
		c78.27-87.97,147.498-183.947,205.707-286.047c28.727-51.235,54.909-103.888,77.893-157.856
		c11.678-26.937,22.133-54.346,32.307-81.755c9.699-27.69,18.648-55.568,26.75-83.637
		C2380.553,1895.866,2330.445,2002.018,2269.319,2101.194z"/>
	<g>
		<g>
			<path fill="#FFFFFF" d="M1114.208,785.026l6.595-51.897l49.542-28.069l33.529-36.638c0,0,12.152-209.378,241.59-268.716
				c0,0-139.489,35.697-184.604,198.357c-12.529,45.305,5.556,96.166,5.556,96.166l-5.085,99.178c0,0-107.186,9.985-166.051,33.719
				L1114.208,785.026z"/>
		</g>
		<g>
			<path fill="#FFFFFF" d="M1575.442,403.097c0,0,142.318,10.361,189.975,127.248
				C1765.417,530.345,1689.976,442.279,1575.442,403.097z"/>
		</g>
		<g>
			<path fill="#FFFFFF" d="M1467.882,399.612c0,0-93.527,67.344-81.283,384.566l37.485-2.166
				C1424.084,782.106,1390.93,496.342,1467.882,399.612z"/>
		</g>
	</g>
	<g>
		<g>
			<g>
				<g>
					<path fill="#FFFFFF" d="M1038.861,940.905c57.451-12.904,86.462-18.367,144.574-27.314
						c23.076,14.222,34.663,20.816,57.925,33.813c0.379,74.785,0.565,89.855,0.943,164.734
						c-21.852,15.635-32.683,23.829-54.533,41.348c-59.528,0-89.291,0-148.816,0
						C1038.861,1043.38,1038.861,1051.011,1038.861,940.905z M1156.593,968.22c-13.844,1.884-20.814,2.825-34.662,4.897
						c0.191,58.584,0.285,72.712,0.566,131.203c13.94-0.472,20.816-0.66,34.754-1.131
						C1157.064,1043.098,1156.876,1028.31,1156.593,968.22z"/>
					<path fill="#FFFFFF" d="M1277.53,901.347c62.539-6.781,93.904-8.947,156.728-11.019c0,24.488,0.095,35.32,0.095,55.476
						c-28.636,0.753-42.856,1.319-71.394,2.919c0.093,19.968,0.093,28.916,0.187,46.528c23.64-1.035,35.415-1.412,59.054-1.978
						c0,17.896,0.096,26.279,0.096,43.798c-23.641,0.377-35.416,0.658-58.961,1.412c0.093,22.794,0.093,34.003,0.187,60.282
						c29.294-0.377,43.895-0.472,73.186-0.66c0,20.251,0.093,30.987,0.093,55.476c-63.198,0-94.845,0-158.046,0
						C1278.19,1027.556,1277.999,1027.276,1277.53,901.347z"/>
					<path fill="#FFFFFF" d="M1461.57,889.574c34.192-0.753,51.332-0.753,85.521-0.095c-0.094,106.054-0.094,120.937-0.28,208.436
						c30.327,0.095,45.489,0.188,75.818,0.565c-0.093,20.062-0.093,30.704-0.188,55.099c-64.234,0-96.352,0-160.586,0
						C1461.664,1022.848,1461.664,1020.212,1461.57,889.574z"/>
					<path fill="#FFFFFF" d="M1762.31,1008.531c0.188-35.885,0.282-53.309,0.472-103.888c33.624,4.05,50.296,6.405,83.731,11.868
						c-0.47,119.901-0.66,117.168-1.128,237.068c-33.532,0-50.299,0-83.922,0c0.188-50.578,0.282-68.003,0.472-103.888
						c-13.94-0.66-20.91-1.037-34.852-1.602c-0.187,36.545-0.28,54.252-0.469,105.49c-34.003,0-50.957,0-84.864,0
						c0.378-129.036,0.565-131.014,0.85-260.05c34.096,2.166,51.236,3.673,85.236,7.158c-0.187,51.237-0.28,68.944-0.468,105.491
						C1741.398,1007.024,1748.37,1007.496,1762.31,1008.531z"/>
					<path fill="#FFFFFF" d="M1888.803,923.762c33.721,6.124,50.579,9.609,84.017,17.144c0,110.105,0,102.569,0,212.674
						c-34.003,0-50.956,0-84.863,0C1888.237,1036.599,1888.428,1040.743,1888.803,923.762z"/>
				</g>
			</g>
			<g>
				<path fill="#FFFFFF" d="M1888.896,923.762c0,0,42.103,7.159,100.31,20.345c29.669,6.688,56.23,13.942,56.23,13.942
					l-95.883,40.312L1888.896,923.762z"/>
			</g>
			<g>
				<path fill="#FFFFFF" d="M1125.417,923.762c0,0-42.1,7.159-100.31,20.345c-29.669,6.688-56.228,13.942-56.228,13.942
					l95.881,40.312L1125.417,923.762z"/>
			</g>
		</g>
		<g>
			<g>
				<g>
					<g>
						<g>
							<path fill="#FFFFFF" d="M789.265,1218.003c-31.365,139.961-48.601,282.843-75.727,423.748
								c44.079-16.578,66.308-24.583,110.859-39.37c4.236-24.864,6.404-38.805,10.643-67.627
								c26.371-7.533,39.558-11.113,65.93-17.801c3.298,25.43,4.897,37.485,8.195,59.337
								c45.021-12.714,67.531-18.365,112.364-27.029c-25.432-109.919-46.245-220.776-69.603-331.162H789.265V1218.003z
								 M844.27,1458.934c6.216-55.382,12.62-110.671,19.214-165.957c4.332-0.188,6.5-0.282,10.927-0.566
								c6.499,52.085,12.715,104.266,19.215,156.35C873.844,1452.717,863.954,1454.695,844.27,1458.934z"/>
						</g>
					</g>
					<g>
						<g>
							<path fill="#FFFFFF" d="M1734.714,1218.003c-79.305,0-158.613,0-237.916,0c0,22.887,0,34.379,0,57.265
								c25.522,0,38.238,0,63.763,0c0,82.416,0.093,164.826,0.093,247.242c44.648,0.28,66.875,0.565,111.52,1.507
								c-0.095-82.885-0.282-165.677-0.375-248.561c25.242,0.095,37.863,0.188,63.103,0.283
								C1734.808,1252.759,1734.714,1241.173,1734.714,1218.003z"/>
						</g>
					</g>
					<g>
						<g>
							<path fill="#FFFFFF" d="M2190.671,1218.003h-112.553c-1.318,115.472-2.446,230.947-3.766,346.326
								c69.887,19.12,137.89,41.252,205.985,65.741c0.754-24.77,1.226-39.18,1.979-69.698
								c-39.559-12.524-59.15-18.554-98.144-29.572C2186.339,1426.533,2188.131,1322.268,2190.671,1218.003z"/>
						</g>
					</g>
					<g>
						<g>
							<path fill="#FFFFFF" d="M1053.363,1218.003c-0.66,108.881-1.222,217.76-1.976,326.734
								c45.116-7.817,67.53-10.549,112.081-12.903c0.094-42.665,0.187-63.952,0.378-106.62c29.01-1.035,43.609-1.413,72.619-2.26
								c30.423-18.554,45.678-27.691,76.101-45.776c0.097-45.681,0.097-68.475,0.191-114.154
								c-30.329-17.897-45.494-26.843-75.823-45.021H1053.363L1053.363,1218.003z M1204.818,1365.218
								c-16.295,0.377-24.396,0.565-40.689,0.943c0.093-35.604,0.187-53.499,0.283-89.104c16.295-0.187,24.393-0.187,40.688-0.375
								C1205.005,1312.096,1204.912,1329.804,1204.818,1365.218z"/>
						</g>
					</g>
					<g>
						<g>
							<path fill="#FFFFFF" d="M1349.111,1524.676c45.116-1.131,67.721-1.507,112.837-1.885
								c0.094-101.628,0.094-203.159,0.188-304.788h-112.553C1349.489,1320.195,1349.3,1422.39,1349.111,1524.676z"/>
						</g>
					</g>
				</g>
			</g>
			<g>
				<g>
					<path fill="#FFFFFF" d="M1921.017,1485.684c-25.621-1.885-38.43-2.826-64.048-4.429c-3.58,22.89-5.37,33.907-8.949,53.783
						c-43.325-3.204-64.989-4.617-108.314-6.782c24.394-102.853,43.892-207.023,66.401-310.347c63.858,0,95.79,0,159.648,0
						c27.218,111.235,47.094,224.073,73.184,335.497c-43.422-5.183-65.18-7.442-108.692-11.587
						C1926.477,1521.004,1924.689,1509.511,1921.017,1485.684z M1880.327,1282.805c-6.312,52.556-9.418,82.506-15.729,137.512
						c19.214,0.943,28.821,1.413,48.036,2.545c-8.666-56.419-13-86.841-21.571-139.868
						C1886.731,1282.899,1884.658,1282.899,1880.327,1282.805z"/>
				</g>
			</g>
			<path fill="#FFFFFF" d="M2421.902,1394.32c0.847-41.725,1.226-62.352,2.072-99.46c18.835,1.035,28.257,1.602,47.093,2.73
				c-0.471,25.336-0.66,38.995-1.131,66.874c44.08,5.085,66.215,7.629,111.142,12.714c0-40.124,0-59.619,0.093-94.279l82.415-64.896
				h-158.328l0,0h-117.263c-30.516,20.343-45.775,31.647-76.198,53.875c-1.318,47.753-1.978,75.915-3.296,131.296
				c30.421,31.364,45.588,48.507,76.384,84.296c32.78,10.549,49.262,16.107,82.696,27.41c-0.754,44.644-1.033,66.78-1.787,106.339
				c-19.404-6.501-29.104-9.796-48.225-16.2c0.564-24.112,0.849-36.924,1.32-63.295c-45.869-12.904-68.381-19.309-113.025-31.364
				c-0.756,31.458-1.13,46.812-1.883,74.785c28.349,32.776,42.571,49.543,71.58,81.188c50.201,19.498,75.726,29.667,128.659,50.014
				c31.647-9.606,47.566-16.389,79.589-34.096v-169.817c-32.776-41.538-48.602-61.601-79.965-98.428
				C2470.785,1405.908,2454.396,1401.95,2421.902,1394.32z"/>
			<path fill="#FFFFFF" d="M506.044,1218.003L506.044,1218.003H354.497l78.457,64.99c-0.093,0.093-0.093,0.093-0.188,0.188
				c0,133.556,0,267.019,0,400.577c30.14,18.366,45.21,25.336,75.539,35.038c44.454-17.425,67.06-26.563,112.646-44.456
				c29.858-32.025,45.022-49.167,75.257-82.79c0.753-45.963,1.13-72.806,1.883-126.023c-43.702,9.702-65.459,14.787-108.691,24.864
				c-0.564,50.107-0.848,75.257-1.413,119.526c-19.214,6.498-28.82,9.793-47.941,16.294c1.036-109.164,1.979-218.232,3.015-327.396
				c19.403-1.035,29.104-1.601,48.601-2.638c-0.472,36.263-0.659,56.325-1.131,96.921c43.326-6.029,65.178-9.138,108.881-15.072
				c0.658-44.363,0.941-66.309,1.601-105.018c-29.479-22.604-44.174-34.096-73.56-54.817H506.044V1218.003z"/>
		</g>
	</g>
	<g>
		<g>
			<path fill="#FFFFFF" d="M1685.643,1690.447c0,0,20.909,9.511,40.688,27.218c0,0,44.269-19.025,26.277-85.144
				C1753.646,1664.166,1730.003,1687.056,1685.643,1690.447z"/>
			<path fill="#FFFFFF" d="M1260.293,1629.79c0,0,36.357,32.869,47.565,35.601l-22.983,3.298c0,0,38.147,28.632,62.918,26.75
				l-31.269,20.153C1316.43,1715.592,1269.901,1678.767,1260.293,1629.79z"/>
			<path fill="#FFFFFF" d="M1290.055,1899.823c0,0-4.331,125.079,47.848,177.354c0,0-50.2-44.079-69.98-118.298L1290.055,1899.823z"
				/>
			<path fill="#FFFFFF" d="M1724.729,1921.862c0,0-14.222,113.685-68.285,164.073c0,0,59.432-36.355,81.754-109.914
				L1724.729,1921.862z"/>
			<path fill="#D71921" d="M1755.999,1605.206c-24.111-5.558-44.175,17.896-50.39,26.185c-6.216,8.289-11.021,20.72-42.102,32.4
				c31.741,2.071,84.202-17.896,89.007-25.524c1.413,14.504,1.506,38.805-26.185,79.305l23.452,18.648
				C1749.782,1736.22,1794.617,1681.026,1755.999,1605.206z"/>
			<path fill="#FFFFFF" d="M1526.278,2064.086c5.463,30.044,69.039,28.065,91.644,17.517s30.423-41.725,30.423-41.725
				s-2.731,2.732-16.012,10.549c-13.281,7.818-34.286,8.571-34.286,8.571s29.668-12.902,43.328-34.376
				c13.655-21.477,8.192-38.24,8.192-38.24s-12.057,23.828-29.291,37.487c-17.142,13.655-51.145,19.495-51.145,19.495
				s42.103-22.605,54.252-39.369c12.056-16.767,15.26-37.018,15.26-37.018s-64.331,42.479-55.76,36.265
				c8.57-6.218,42.103-44.456,42.103-44.456l-28.821-5.465l-19.873,13.656l1.315,3.768c1.979,5.654,1.698,11.774-0.655,17.237
				l-18.651,42.949c-1.226,2.92-3.106,5.558-5.367,7.725L1526.278,2064.086z"/>
			<path fill="#FFFFFF" d="M1550.578,2322.534c-6.122,3.484-21.38,9.136-41.913,9.042c-28.068-0.188-54.724-1.413-68.661-13.844
				c-22.04-19.593-31.836-44.647-31.836-44.647c0.375,12.905-1.413,26.468-8.574,35.134c0,0,39.75,22.416,45.87,58.395
				c4.711,27.409,108.883,32.024,116.51-6.029c6.97-34.66,22.698-51.425,37.392-52.365c-5.744-12.904-6.591-35.134-6.591-35.134
				S1567.909,2312.644,1550.578,2322.534z"/>
			<path fill="#D71921" d="M1716.44,1889.273c0,0,0.66-61.031-44.831-75.443c0.659,17.896-9.702,36.827-13.752,43.043
				c13.752-6.216-8.007,20.438-8.949,30.141c-1.882,19.309-17.707,34.282-50.012,35.603c-5.842-0.66-9.702-2.26-11.587-2.92
				l37.583,33.436c37.768-6.968,48.505-51.989,48.883-54.909c0.282-2.356,3.673,4.804,6.592,18.272
				c0.659,2.072,6.877,48.976,0.473,82.413c24.958-47.376,17.141-113.401,17.141-113.401c-1.507-7.157-3.106-11.868-3.578-13.469
				C1692.235,1865.822,1716.44,1889.273,1716.44,1889.273z"/>
			<path fill="#FFFFFF" d="M1389.048,1958.408l-1.603,0.28c0,0,5.936,6.688,13.375,14.979c10.361,11.49,23.83,25.899,28.821,29.479
				c5.84,4.238-21.663-13.75-40.123-25.899c-8.854-5.843-15.729-10.362-15.729-10.362s0.847,5.273,3.2,12.716
				c2.263,7.064,6.029,16.106,11.966,24.393c12.056,16.767,54.249,39.372,54.249,39.372s-33.907-5.84-51.143-19.495
				c-17.141-13.659-29.294-37.49-29.294-37.49s-5.46,16.767,8.195,38.243c13.656,21.474,43.325,34.376,43.325,34.376
				s-21.099-0.753-34.376-8.571c-13.28-7.816-16.014-10.549-16.014-10.549s7.818,31.176,30.423,41.725s86.181,12.527,91.646-17.519
				l-26.563-25.524c-2.26-2.166-4.049-4.805-5.367-7.725l-18.651-42.946c-2.353-5.463-2.638-11.586-0.658-17.238l1.318-3.767
				l-11.489-7.911l-8.384-5.747l-25.337,4.805L1389.048,1958.408z"/>
			<path fill="#FFFFFF" d="M1239.384,1811.664c-15.352,30.987-8.761,58.678-61.503,105.772c2.826,1.885,10.549-1.885,14.315-1.885
				c-25.808,29.669-22.982,73.656-21.098,85.146c4.804,0.942,19.119-7.629,23.924-9.607c4.804-1.885-9.608,57.454,22.983,108.126
				c3.859-7.629,8.569-7.629,10.546-17.234c2.071,0.941,4.43,2.166,6.876,3.672c30.895,18.179,86.746,76.011,108.879,114.06
				c6.689-2.825,14.319-7.626,14.319-7.626s2.919,15.915,14.128,36.92c7.533,14.127,33.437,38.238,33.437,38.238
				c-2.92-24.016-16.107-68.754-13.094-92.396c-57.454-22.98-110.104-83.262-120.558-98.612c7.63,3.86,20.061,1.882,22.98,4.802
				c-1.224-1.224-17.802-17.613-35.227-39.087c-17.235-21.287-35.321-47.563-40.405-69.041c0,0,42.103-54.532,43.043-102.381
				c0.472-21.567,6.876-48.035,18.179-71.393c7.346-15.258,16.859-29.291,28.068-39.559
				C1258.032,1772.67,1239.572,1811.193,1239.384,1811.664z"/>
			<g>
				<path fill="#D71921" d="M1604.452,1896.338c1.696,2.45,4.522,4.052,7.723,4.052c4.991,0,8.949-3.863,9.327-8.763
					c6.779-2.825,12.715-8.758,16.762-13.749c0.566,3.767,1.038,16.105-14.69,26.09c-18.743,11.868-32.778-3.863-32.778-3.863
					C1596.824,1900.201,1600.969,1898.691,1604.452,1896.338z"/>
				<path fill="#FFFFFF" d="M1621.405,1891.724c0-0.189,0.097-0.377,0.097-0.658c0-3.205-1.604-6.029-4.052-7.725
					c8.1-7.816,20.533-6.501,20.533-6.501s0.094,0.472,0.188,1.132C1634.122,1882.869,1628.188,1888.802,1621.405,1891.724z"/>
			</g>
			<g>
				<path fill="#D71921" d="M1408.543,1896.338c-1.693,2.45-4.52,4.052-7.723,4.052c-4.992,0-8.946-3.863-9.324-8.763
					c-6.782-2.825-12.716-8.758-16.767-13.749c-0.564,3.767-1.035,16.105,14.693,26.09c18.745,11.868,32.776-3.863,32.776-3.863
					C1416.079,1900.201,1411.935,1898.691,1408.543,1896.338z"/>
				<path fill="#FFFFFF" d="M1391.496,1891.724c0-0.189-0.095-0.377-0.095-0.658c0-3.205,1.602-6.029,4.051-7.725
					c-8.101-7.816-20.531-6.501-20.531-6.501s-0.095,0.472-0.191,1.132C1378.78,1882.869,1384.714,1888.802,1391.496,1891.724z"/>
			</g>
			<path fill="#FFFFFF" d="M1406.565,2099.688c0.378,10.737,4.804,37.958,31.554,57.267c-8.571-27.879,3.013-57.267,3.013-57.267
				S1416.646,2103.079,1406.565,2099.688z"/>
			<path fill="#FFFFFF" d="M1592.867,2099.688c-10.077,3.392-34.566,0-34.566,0s11.49,29.388,3.016,57.267
				C1588.063,2137.646,1592.492,2110.519,1592.867,2099.688z"/>
			<path fill="#FFFFFF" d="M1453.093,2101.854c0,0,40.69-7.818,53.405-7.818c14.315,0,45.116,8.193,45.116,8.193
				s6.779,15.825,2.635,25.338c0,0-3.484-12.619-7.817-12.619c-1.507,0-25.336-0.191-39.934,0c-16.483,0.187-50.013,0-51.146,0
				c-3.859-0.097-7.532,12.809-7.532,12.523C1447.066,2120.501,1447.161,2103.079,1453.093,2101.854z"/>
			<g>
				<path fill="#FFFFFF" d="M1430.677,2293.996l22.701,10.736c-3.017-4.05-17.804-35.32-14.506-57.266
					C1421.353,2282.881,1430.677,2293.996,1430.677,2293.996z"/>
				<path fill="#FFFFFF" d="M1564.894,2293.996c0,0,9.325-11.115-8.193-46.436c3.392,21.944-11.49,53.122-14.507,57.265
					L1564.894,2293.996z"/>
				<path fill="#D71921" d="M1475.324,2161.098l30.609,55.476l-3.861-56.229c0,0,32.776,12.055,43.044,50.483
					c10.171,38.052,7.627,46.435-30.987,50.485c-68.569,0-67.815-16.859-67.815-16.859
					C1443.771,2209.134,1475.324,2161.098,1475.324,2161.098z"/>
				<g>
					<path fill="#FFFFFF" d="M1533.154,2303.132c0,0-19.217,3.2-36.076,3.107c-20.627-0.188-31.456-3.295-35.223-4.613
						c-1.132-0.379-1.979-1.225-2.356-2.26c-1.507-3.677-4.427-12.341-1.13-20.912c0,0,1.979,10.456,5.651,10.456
						c1.319,0,66.871-0.472,67.815-0.472c3.2,0.094,6.31-10.171,6.404-9.984C1539.934,2285.047,1538.146,2302.19,1533.154,2303.132z
						"/>
				</g>
			</g>
			<path fill="#FFFFFF" d="M1671.609,1813.736c-13.094,20.25-21.287,43.89-21.287,43.89c1.41,25.809-7.819,40.597-14.692,47.943
				c-1.413,1.506-3.016,2.918-4.804,3.956c-20.533,12.902-41.818,9.796-43.61,10.077c0,0,25.525,14.315,51.048,0.094
				c12.436-6.971,12.813-30.423,12.813-30.423C1679.33,1868.269,1671.609,1813.736,1671.609,1813.736z"/>
			<path fill="#D71921" d="M1583.731,1686.489c11.021,12.434,15.259,16.86,18.839,28.729c-44.93-37.018-131.016-50.014-185.55,8.852
				c25.715-62.445,134.407-76.292,169.442-77.61c0,0-83.731-36.355-186.302,10.834c-8.478,3.86-17.049,8.383-25.713,13.469
				c-6.781,3.953-44.078-10.834-58.584-27.787c-0.094-0.095-0.188-0.188-0.282-0.282c-21.851-21.191-37.204-37.673-60.281-37.298
				c-11.302,12.809-17.613,40.029-15.635,65.554c1.978,25.618,8.949,51.614,22.418,63.67c7.064-6.591,22.979-18.178,22.979-18.178
				s-19.682-17.518-24.771-49.165c-1.035-6.216-1.507-12.809-1.129-20.063c0.188-3.295,1.413-9.7,1.979-13.278
				c1.601,3.014,7.91,9.04,11.112,11.961c9.889,8.665,24.583,15.917,30.141,17.707c0.187,0.095,0.472,0.188,0.566,0.188
				c6.685,1.885-19.873,3.86-19.873,3.86s16.293,22.042,51.707,30.611c1.225,0.282-28.35,17.896-89.572,104.076
				c8.289-9.136,15.729-16.953,25.711-23.829c11.209-7.629,37.959-18.648,37.959-18.648c7.442-6.592,15.635-11.489,24.489-14.315
				c-13.374,14.315-21.663,30.044-26.749,45.68c-15.163,47.376,0.095,94.095-1.318,98.426c-1.885,5.745,21.098-19.119,21.098-19.119
				s-3.957,11.959-6.029,30.044c-3.295,18.745-5.086,49.729,7.63,85.146c2.638,7.44,5.936,14.976,9.983,22.7
				c-1.694-8.667-2.635-17.145-3.107-25.243c-1.413-23.077,3.486-64.707,3.391-64.896c10.55,16.953,29.198,27.409,53.027,33.907
				l34.567-32.303c-5.558,2.068-28.821,6.307-41.256-5.465c-0.659,3.674-1.976,4.427-1.507,9.89c0,0-22.698-6.216-20.625-35.226
				c-19.592-27.598-11.022-35.887,0.658-31.742c-5.557-12.996-24.395-37.579-20.625-80.059c0.375-4.709,1.033-9.701,2.071-14.88
				c0,0,1.222-4.052,4.52-10.456c-1.6,3.484-3.578,19.592-2.92,23.733c8.949,55.479,57.36,93.999,56.701,88.159
				c-0.66-6.217,5.275-12.809-2.354-20.438c8.947,0.66,17.894,9.984,28.916,34.192c3.013,6.311,30.516,26.559,30.516,26.559
				l0.187,0.565l20.439,14.315l-33.717-6.404c-2.17-0.375-4.336-0.187-6.312,0.753l-14.6,6.503l17.426,3.672
				c2.636,0.566,4.992,1.788,6.874,3.673l21.758,21.38l-26.75-12.338l-7.911-2.451c-3.391-1.033-6.971-0.469-9.891,1.51
				l-12.714,8.666l14.599-0.285c3.58-0.095,7.064,1.318,9.513,3.957l10.928,11.302l-2.451,12.622
				c-0.847,4.145-0.565,8.289,0.753,12.338l5.183,16.39c0.94,3.014,3.014,5.555,5.838,6.968l40.688,21.57
				c4.428,2.354,9.796,2.354,14.224,0l40.313-21.474c2.732-1.51,4.896-3.956,5.839-6.97l5.18-16.391
				c1.225-3.955,1.506-8.193,0.753-12.338l-2.448-12.621l14.788-12.15c1.787-1.507,4.05-2.26,6.403-2.26l13.091,0.095l-13.277-9.042
				c-2.356-1.602-5.369-1.979-8.008-0.849l-35.13,13.938l22.039-21.66c1.694-1.698,3.86-2.826,6.12-3.298l17.805-3.767l-15.731-6.97
				c-1.224-0.566-2.636-0.753-3.955-0.473l-34.945,6.596l19.874-14.318l21.383-3.106l1.413-0.754
				c0.093-0.095,0.469-0.566,0.469-0.659c1.791-3.205-0.469-18.556,1.884-20.44c0,0.188,0,0.376,0,0.566
				c2.732,0.659,15.541-27.127,36.261-39.843c-6.213,8.289-5.838,16.767-2.165,21.005c34.945-13.563,49.732-73.278,51.145-91.174
				C1662.849,1770.224,1648.626,1712.014,1583.731,1686.489z M1486.436,1723.316c4.145-11.019,19.97-19.308,19.97-19.308
				s15.162,6.877,19.307,19.308c51.427,4.711,73.561,32.4,82.32,51.146c-4.709-6.783-54.441-33.907-101.912-14.787
				c-51.801-25.338-97.292,16.953-97.292,16.953C1425.025,1722.374,1488.791,1724.447,1486.436,1723.316z M1506.405,1833.14
				c-23.925-34.098-79.495-23.924-98.99-6.029c29.763-45.869,86.463-40.125,86.463-40.125l12.527-11.771
				c0,0,5.272,6.12,10.924,12.431c5.086-4.145,63.201-4.333,92.586,35.792C1605.395,1816.75,1542.665,1793.391,1506.405,1833.14z"/>
			<path fill="#FFFFFF" d="M1435.199,1900.011l24.771,4.523c-1.979-14.601-35.414-55.572-66.496-69.041
				c0,0,9.796,20.533,3.859,22.512c-5.933,1.882-30.702-30.801-35.507-38.898c0,0-1.035,17.141,14.034,34.754
				C1389.611,1869.967,1412.5,1858.946,1435.199,1900.011z"/>
			<path fill="#FFFFFF" d="M1575.726,1901.708l-23.358,2.919c4.24-13.658,40.407-56.703,65.083-67.438
				c0,0-9.796,20.531-3.862,22.511c5.936,1.884,29.387-29.481,34.191-37.673c0,0,2.354,15.915-12.716,33.527
				C1621.312,1871.66,1598.425,1860.643,1575.726,1901.708z"/>
			<path fill="#FFFFFF" d="M1384.245,1911.599c-0.38-0.285-0.849-0.66-1.319-1.038c-0.282-0.188-0.472-0.376-0.754-0.66
				c-7.251-6.218-20.911-22.04-19.31-52.274c0,0-5.462-26.558-18.648-46.809c0,0-10.361,57.358,17.896,78.55
				c0,0-4.333,29.011,20.531,35.227c0,0,17.521,6.498,43.141-4.897C1420.599,1921.675,1397.43,1921.109,1384.245,1911.599z"/>
			<path fill="#FFFFFF" d="M1760.616,1811.664c15.35,30.987,8.758,58.678,61.504,105.772c-2.825,1.885-10.55-1.885-14.318-1.885
				c25.809,29.669,22.982,73.656,21.098,85.146c-4.805,0.942-19.12-7.629-23.923-9.607c-4.802-1.885,9.607,57.454-22.981,108.126
				c-3.863-7.629-8.569-7.629-10.549-17.234c-2.072,0.941-4.427,2.166-6.877,3.672c-30.891,18.179-86.745,76.011-108.879,114.06
				c-6.687-2.825-14.315-7.626-14.315-7.626s-2.92,15.915-14.129,36.92c-7.536,14.127-33.436,38.238-33.436,38.238
				c2.92-24.016,16.104-68.754,13.091-92.396c57.453-22.98,110.105-83.262,120.562-98.612c-7.631,3.86-20.064,1.882-22.984,4.802
				c1.226-1.224,17.802-17.613,35.227-39.087c17.235-21.287,35.32-47.563,40.406-69.041c0,0-42.1-54.532-43.044-102.381
				c-0.469-21.567-6.876-48.035-18.176-71.393c-7.349-15.258-16.86-29.291-28.069-39.559
				C1741.872,1772.67,1760.332,1811.193,1760.616,1811.664z"/>
		</g>
		<g>
			<g>
				<path fill="#FFFFFF" d="M1064.386,1745.64c0,0,10.36,30.328,8.194,55.1c-2.072,24.111-22.323,49.354-22.323,49.354
					s34.379-20.911,35.413-21.099c1.132-0.189,4.898-43.043,5.651-44.176c0.66-1.127-23.64-40.783-23.64-40.783L1064.386,1745.64z"
					/>
				<path fill="#D71921" d="M942.131,1943.714l-13.563,4.332l-10.831,9.889c0,0,19.024,6.878,30.704-7.251
					c2.166-2.638,3.673-4.991,4.709-7.157"/>
				<path fill="#FFFFFF" d="M942.131,1943.714l-6.124-3.201l16.859-10.549c0,0,4.712,4.333,0.19,13.563
					C953.057,1943.526,948.44,1945.786,942.131,1943.714z"/>
				<path fill="#FFFFFF" d="M845.776,2062.014c7.534-3.769,46.528-37.676,43.608-35.885c-3.014,1.787-48.035,16.858-45.304,15.729
					c2.731-1.132,36.073-32.117,36.073-32.117l-26.561-3.203l-53.31,16.388c-1.79,8.289,5.934,25.524-13.092,48.695
					c6.97,12.527,32.4,20.438,32.4,20.438s23.075,1.413,59.526-19.686c3.202-7.439,8.1-14.882,15.445-21.661
					C887.69,2054.667,838.242,2065.78,845.776,2062.014z"/>
				<path fill="#D71921" d="M1054.495,1725.39c-20.91,6.404-25.903,33.247-26.937,42.289c-1.132,9.043,0.658,20.721-17.898,43.418
					c25.243-12.431,56.512-50.86,56.797-58.771c7.439,10.456,26.749,26.845,14.976,72.241l25.808-5.839
					C1107.144,1818.633,1117.506,1766.454,1054.495,1725.39z"/>
				<path fill="#FFFFFF" d="M844.27,2104.679c4.898,9.796,20.344,32.777,53.027,39.372c-19.592-22.04-21.285-53.877-21.285-53.877
					S854.913,2103.549,844.27,2104.679z"/>
				<path fill="#FFFFFF" d="M996.005,2246.339c-7.439-5.937-24.3-23.361-24.111-52.181c15.259,20.626,42.103,28.065,42.103,28.065
					S1006.932,2241.44,996.005,2246.339z"/>
				<path fill="#D71921" d="M1020.116,2096.39l-15.822,33.249l0.94-35.98c0,0-17.141,10.55-17.141,51.614
					c0,24.867,7.251,42.196,27.124,50.959c17.613-6.123,34.757-42.104,34.757-42.104
					C1025.107,2137.646,1020.116,2096.39,1020.116,2096.39z"/>
				<path fill="#D71921" d="M774.666,2030.648l-7.44,13.093l15.068,21.475c9.137-7.63,9.23-17.143,10.55-34.66
					C792.844,2030.556,787.192,2029.988,774.666,2030.648z"/>
				<g>
					<path fill="#D71921" d="M1113.267,1943.526c-1.412,23.357-5.463,67.155,43.609,103.041
						c-18.554-18.557-34.472-96.919,0.66-137.042c17.895-20.438,30.609-80.53,58.019-108.032c1.319-1.32,2.544-3.77,2.544-3.77
						c-48.885,26.186-88.818,52.557-86.274,48.414c6.309-10.27,31.363-58.021,71.393-77.327
						c-14.318,0.281-101.533,29.763-147.78,74.313c0.753-5.652-0.754-17.991,3.77-27.409c-1.132,0.658-70.926,27.689-115.098,66.683
						c0.377-4.333,4.144-14.597,6.215-17.517c-49.541,16.953-92.961,80.718-92.961,80.718s2.637,8.477,2.825,11.678
						c-0.188,0.094-0.283,0.189-0.471,0.285c-1.885,1.127-4.993,3.293-4.993,3.293c-48.6,32.027-76.668,63.107-76.668,63.107
						l22.135-0.942l53.027-16.389c6.687-1.788,42.667-12.996,48.035-16.86c13.657,26.843,101.534,42.196,103.322,41.631
						c-23.924,9.607-52.179,10.456-55.099,10.268l-62.446,31.176c0,0,70.265-29.575,131.204,5.18
						c27.596,18.085,45.116,36.167,45.585,59.997l3.484-5.933c-2.731-29.764-12.996-53.877-70.263-82.887
						c0,0,43.326-0.941,83.923,12.716c-8.009-20.813-3.298-63.858,4.52-88.816c14.034-44.928,0.472-88.065-18.745-122.067
						C1079.548,1862.618,1115.904,1900.858,1113.267,1943.526z M947.405,1977.433c-42.008-10.076-72.524-2.26-77.234-0.187
						l58.396-58.491l0.564,17.424c15.73-25.9,19.214-30.609,46.528-40.594C980.843,1919.981,980.463,1948.799,947.405,1977.433z
						 M1050.163,1876.183c-9.421,10.453-20.064,37.581-17.142,49.165c-27.787,18.932-29.574,75.443-29.574,75.443
						c-7.817-21.852-4.993-74.03,0.28-85.427C1009.003,1904.063,1059.581,1865.634,1050.163,1876.183z"/>
				</g>
				<g>
					<path fill="#FFFFFF" d="M1135.685,2095.825c0,0,18.179-3.107,45.681,17.238c-8.761-10.738-15.637-55.101-15.637-55.101
						c-45.113,19.12-66.305-63.481-65.649-72.617c0,0-16.575,56.23,13.94,113.87c0.188,0.472-18.646-18.178-59.903-26.655
						c0,0,53.877,59.528,12.056,75.352c0,0,0,0.093,0.097,0.376c24.771,71.958-27.503,95.223-27.503,95.223l2.073-33.249
						c-6.594,7.255-7.629,34.567-40.972,43.987c-5.936,14.883,5.367,32.965,5.367,32.965l7.442-9.324
						c0,0,25.146,17.235,26.749,19.307c9.984-9.605,47.751-39.18,68.096-50.201c-0.378-10.264-1.034-42.854,3.014-63.387
						c10.834-38.336,35.417-47.658,52.086-45.587C1159.607,2127.757,1154.805,2106.659,1135.685,2095.825z"/>
				</g>
				<path fill="#FFFFFF" d="M869.983,1977.433c1.883-29.952,25.431-64.707,65.836-85.992c-6.876,6.876-11.679,13.469-11.302,19.12
					c0,0,43.136-48.13,125.832-48.13c-88.44,26.09-121.501,73.938-121.501,73.938l-0.563-17.426L869.983,1977.433z"/>
				<path fill="#FFFFFF" d="M869.983,1977.433c0,0,20.156-14.315,77.422,0c0-0.471-34.757,7.913-34.757,7.913
					C906.903,1980.071,885.429,1975.267,869.983,1977.433z"/>
				<path fill="#FFFFFF" d="M1071.354,1948.519l-38.333-23.171c-16.391,7.442-27.503,28.728-29.574,75.443
					C1003.447,2000.791,1021.247,1965.659,1071.354,1948.519z"/>
			</g>
			<path fill="#FFFFFF" d="M1148.587,2107.599c0,0,46.529,15.354,57.925,40.219c33.061,5.371,100.217,53.967,112.649,82.789
				c0,0,0.376-55.566-96.729-105.865c0,0-45.683-22.322-56.796-66.684c0,0-23.265,33.907-36.641,30.609
				c-5.932-1.413-28.818,34.379,10.268,43.043C1136.72,2123.987,1159.984,2115.701,1148.587,2107.599z"/>
		</g>
		<g>
			<g>
				<path fill="#FFFFFF" d="M1935.804,1745.64c0,0-10.361,30.328-8.196,55.1c2.073,24.111,22.325,49.354,22.325,49.354
					s-34.381-20.911-35.416-21.099c-1.13-0.189-4.896-43.043-5.652-44.176c-0.66-1.127,23.642-40.783,23.642-40.783
					L1935.804,1745.64z"/>
				<path fill="#D71921" d="M2058.059,1943.714l13.562,4.332l10.831,9.889c0,0-19.026,6.878-30.704-7.251
					c-2.165-2.638-3.674-4.991-4.709-7.157"/>
				<path fill="#FFFFFF" d="M2058.059,1943.714l6.119-3.201l-16.858-10.549c0,0-4.708,4.333-0.188,13.563
					C2047.131,1943.526,2051.747,1945.786,2058.059,1943.714z"/>
				<path fill="#FFFFFF" d="M2154.41,2062.014c-7.536-3.769-46.529-37.676-43.609-35.885c3.017,1.787,48.036,16.858,45.303,15.729
					c-2.729-1.132-36.071-32.117-36.071-32.117l26.561-3.203l53.309,16.388c1.791,8.289-5.933,25.524,13.094,48.695
					c-6.971,12.527-32.4,20.438-32.4,20.438s-23.078,1.413-59.525-19.686c-3.204-7.439-8.102-14.882-15.448-21.661
					C2112.499,2054.667,2161.946,2065.78,2154.41,2062.014z"/>
				<path fill="#D71921" d="M1945.694,1725.39c20.907,6.404,25.898,33.247,26.937,42.289c1.128,9.043-0.66,20.721,17.894,43.418
					c-25.241-12.431-56.512-50.86-56.793-58.771c-7.441,10.456-26.75,26.845-14.975,72.241l-25.81-5.839
					C1893.042,1818.633,1882.68,1766.454,1945.694,1725.39z"/>
				<path fill="#FFFFFF" d="M2155.917,2104.679c-4.898,9.796-20.345,32.777-53.027,39.372c19.592-22.04,21.287-53.877,21.287-53.877
					S2145.274,2103.549,2155.917,2104.679z"/>
				<path fill="#FFFFFF" d="M2004.182,2246.339c7.44-5.937,24.303-23.361,24.111-52.181c-15.258,20.626-42.101,28.065-42.101,28.065
					S1993.257,2241.44,2004.182,2246.339z"/>
				<path fill="#D71921" d="M1980.07,2096.39l15.825,33.249l-0.945-35.98c0,0,17.146,10.55,17.146,51.614
					c0,24.867-7.255,42.196-27.128,50.959c-17.613-6.123-34.754-42.104-34.754-42.104
					C1975.079,2137.646,1980.07,2096.39,1980.07,2096.39z"/>
				<path fill="#D71921" d="M2225.522,2030.648l7.439,13.093l-15.068,21.475c-9.138-7.63-9.231-17.143-10.549-34.66
					C2207.345,2030.556,2212.995,2029.988,2225.522,2030.648z"/>
				<g>
					<path fill="#D71921" d="M1886.918,1943.526c1.413,23.357,5.464,67.155-43.606,103.041
						c18.555-18.557,34.471-96.919-0.658-137.042c-17.898-20.438-30.614-80.53-58.019-108.032c-1.32-1.32-2.545-3.77-2.545-3.77
						c48.881,26.186,88.819,52.557,86.274,48.414c-6.311-10.27-31.364-58.021-71.394-77.327
						c14.315,0.281,101.534,29.763,147.779,74.313c-0.754-5.652,0.753-17.991-3.767-27.409
						c1.128,0.658,70.922,27.689,115.097,66.683c-0.378-4.333-4.145-14.597-6.218-17.517c49.543,16.953,92.964,80.718,92.964,80.718
						s-2.544,8.477-2.825,11.678c0.188,0.094,0.281,0.189,0.469,0.285c1.885,1.127,4.991,3.293,4.991,3.293
						c48.603,32.027,76.671,63.107,76.671,63.107l-22.134-0.942l-53.03-16.389c-6.686-1.788-42.665-12.996-48.034-16.86
						c-13.657,26.843-101.532,42.196-103.323,41.631c23.925,9.607,52.181,10.456,55.099,10.268l62.448,31.176
						c0,0-70.264-29.575-131.202,5.18c-27.598,18.085-45.116,36.167-45.588,59.997l-3.485-5.933
						c2.732-29.764,12.999-53.877,70.265-82.887c0,0-43.325-0.941-83.921,12.716c8.004-20.813,3.298-63.858-4.521-88.816
						c-14.033-44.928-0.472-88.065,18.742-122.067C1920.731,1862.618,1884.283,1900.858,1886.918,1943.526z M2052.782,1977.433
						c42.01-10.076,72.525-2.26,77.232-0.187l-58.395-58.491l-0.566,17.424c-15.727-25.9-19.212-30.609-46.527-40.594
						C2019.347,1919.981,2019.722,1948.799,2052.782,1977.433z M1950.025,1876.183c9.418,10.453,20.061,37.581,17.141,49.165
						c27.784,18.932,29.576,75.443,29.576,75.443c7.817-21.852,4.991-74.03-0.282-85.427
						C1991.185,1904.063,1940.605,1865.634,1950.025,1876.183z"/>
				</g>
				<g>
					<path fill="#FFFFFF" d="M1864.505,2095.825c0,0-18.181-3.107-45.683,17.238c8.759-10.738,15.635-55.101,15.635-55.101
						c45.116,19.12,66.308-63.481,65.648-72.617c0,0,16.575,56.23-13.94,113.87c-0.188,0.472,18.651-18.178,59.903-26.655
						c0,0-53.874,59.528-12.056,75.352c0,0,0,0.093-0.094,0.376c-24.771,71.958,27.503,95.223,27.503,95.223l-2.072-33.249
						c6.592,7.255,7.63,34.567,40.971,43.987c5.933,14.883-5.37,32.965-5.37,32.965l-7.439-9.324c0,0-25.147,17.235-26.748,19.307
						c-9.983-9.605-47.755-39.18-68.098-50.201c0.377-10.264,1.035-42.854-3.016-63.387c-10.829-38.336-35.414-47.658-52.083-45.587
						C1840.58,2127.757,1845.385,2106.659,1864.505,2095.825z"/>
				</g>
				<path fill="#FFFFFF" d="M2130.206,1977.433c-1.885-29.952-25.432-64.707-65.837-85.992c6.873,6.876,11.678,13.469,11.303,19.12
					c0,0-43.142-48.13-125.837-48.13c88.445,26.09,121.501,73.938,121.501,73.938l0.566-17.426L2130.206,1977.433z"/>
				<path fill="#FFFFFF" d="M2130.206,1977.433c0,0-20.158-14.315-77.424,0c0-0.471,34.754,7.913,34.754,7.913
					C2093.285,1980.071,2114.759,1975.267,2130.206,1977.433z"/>
				<path fill="#FFFFFF" d="M1928.833,1948.519l38.333-23.171c16.389,7.442,27.504,28.728,29.576,75.443
					C1996.742,2000.791,1978.941,1965.659,1928.833,1948.519z"/>
			</g>
			<path fill="#FFFFFF" d="M1851.599,2107.599c0,0-46.529,15.354-57.925,40.219c-33.058,5.371-100.213,53.967-112.647,82.789
				c0,0-0.378-55.566,96.73-105.865c0,0,45.682-22.322,56.794-66.684c0,0,23.265,33.907,36.64,30.609
				c5.935-1.413,28.821,34.379-10.266,43.043C1863.467,2123.987,1840.202,2115.701,1851.599,2107.599z"/>
		</g>
	</g>
</g>
</svg>
