<?xml version="1.0" encoding="utf-8"?>
<!-- Generator: Adobe Illustrator 16.0.0, SVG Export Plug-In . SVG Version: 6.00 Build 0)  -->
<!DOCTYPE svg PUBLIC "-//W3C//DTD SVG 1.0//EN" "http://www.w3.org/TR/2001/REC-SVG-20010904/DTD/svg10.dtd">
<svg version="1.0" id="Layer_1" xmlns="http://www.w3.org/2000/svg" xmlns:xlink="http://www.w3.org/1999/xlink" x="0px" y="0px"
	 width="800px" height="800px" viewBox="0 0 800 800" enable-background="new 0 0 800 800" xml:space="preserve">
<g id="Layer_x0020_1">
	<g id="_2380226831760">
		<polygon fill="#D5152C" points="591.194,775.313 198.314,775.313 198.314,764.487 591.194,764.487 		"/>
		<path fill="#2B2A29" d="M591.194,472.119v292.368H198.11v-289.3c22.27,87.446,101.543,152.203,196.134,152.203
			c95.624,0,175.708-66.403,196.951-155.469V472.119z"/>
		<path fill="#E5B582" d="M198.314,475.188c16.548,12.866,37.594,17.976,58.022,17.976l0,0c2.249,0,4.494,0,6.743-0.21
			c24.725,47.412,74.371,79.888,131.37,79.888c69.065,0,127.289-47.594,143.421-111.547c5.109,1.844,9.813,2.45,13.697,2.45
			c4.9,0,9.601-0.817,13.485-2.043c6.125,7.151,16.134,11.233,26.354,9.813c-21.046,89.278-101.13,155.679-196.957,155.679
			c-94.593,0-173.864-64.768-196.134-152.215V475.188z"/>
		<path fill="#2B2A29" d="M512.137,543.012l9.601-10.207l3.069,2.858l-6.335,6.742l2.04,1.831l5.716-6.123l2.857,2.659l-5.715,6.124
			l2.042,1.845l6.333-6.955l3.069,2.857l-9.812,10.433L512.137,543.012z M497.426,566.098c1.225-1.014,1.633-2.238,0.817-3.266l0,0
			c-0.817-1.225-2.043-1.014-3.266-0.198l-2.662,1.831l2.45,3.478L497.426,566.098z M485.98,564.058l6.744-4.9
			c2.253-1.633,4.081-2.041,5.714-1.843c1.438,0.21,2.662,1.027,3.689,2.448l0,0c1.633,2.252,1.421,4.504,0.198,6.547l6.952,2.448
			l-4.504,3.268l-5.926-2.239l-1.831,1.226l3.054,4.279l-3.871,2.871l-10.22-14.303V564.058z M469.427,583.259L469.427,583.259
			c-1.013-2.238-3.463-3.676-5.913-2.45c-2.462,1.027-3.279,3.675-2.252,6.137l0,0c1.013,2.238,3.675,3.676,6.123,2.45
			c2.45-1.027,3.268-3.675,2.252-6.137H469.427z M456.771,588.776L456.771,588.776c-2.055-4.702,0-10.009,4.9-12.051
			c4.898-2.252,10.22,0,12.261,4.49l0,0c2.04,4.703,0,10.011-4.914,12.064C464.119,595.52,458.813,593.479,456.771,588.776z
			 M424.887,588.368l4.701-1.013l2.857,12.866l8.392-1.845l1.013,4.097l-13.077,2.857l-3.886-17.16V588.368z M400.166,601.446
			l-2.041-4.9l-1.837,4.9H400.166z M395.675,590.816h4.703l7.756,17.583h-5.306l-1.226-3.068l-6.743,0.196l-1.229,3.281
			l-5.106,0.196l7.15-17.778V590.816z M352.976,594.913L352.976,594.913c1.02-5.109,5.719-8.178,11.034-7.15
			c3.061,0.605,4.902,1.829,6.535,3.871l-3.474,2.872c-1.021-1.226-2.041-2.041-3.882-2.464c-2.45-0.408-4.901,1.238-5.311,3.885
			l0,0c-0.611,2.858,1.022,5.11,3.679,5.729c1.225,0.198,2.041,0.198,2.861-0.21l0.408-2.042l-3.269-0.619l0.612-3.464l7.968,1.635
			l-1.43,7.756c-2.044,1.226-4.905,1.843-7.968,1.226c-5.313-1.016-8.582-5.506-7.559-10.616L352.976,594.913z M322.126,574.474
			l4.086,1.844l3.061,11.234l3.678-8.574l4.498,1.831l-6.743,16.147l-3.883-1.635l-3.269-11.853l-3.677,8.785l-4.494-1.845
			l6.743-16.132V574.474z M294.542,570.393l1.229-5.11l-4.499,2.855L294.542,570.393z M297.199,559.157l3.881,2.661l-4.086,18.792
			l-4.29-3.067l0.815-3.266l-5.514-3.885l-2.861,1.843l-4.084-2.858L297.199,559.157z M271.047,543.828
			c0.612-0.605,0.612-1.634-0.408-2.647l-2.249-2.252l-2.245,2.042l2.041,2.252c1.025,1.014,2.045,1.421,2.658,0.605l0,0H271.047z
			 M266.35,546.081l-2.454-2.662l-2.45,2.252l2.655,2.662c1.023,1.014,2.044,1.225,2.656,0.605l0,0
			C267.37,548.333,267.37,547.304,266.35,546.081z M268.186,532.805l6.132,6.533c1.428,1.633,2.249,3.067,2.044,4.49
			c0,1.027-0.411,2.041-1.228,2.872l0,0c-1.428,1.421-3.066,1.421-4.699,0.604c1.022,2.043,1.022,3.887-0.815,5.52l0,0
			c-2.249,2.041-5.11,1.436-7.968-1.633l-6.13-6.547l12.87-12.049L268.186,532.805z"/>
		<path fill="#FEFEFE" d="M563.828,713.205c3.462,1.633,6.124,3.885,6.124,8.995c0,5.911-5.52,10.416-13.485,10.416
			c-4.703,0-7.969-1.435-9.602-2.448l-1.844,2.04h-0.408l-0.197-12.064h0.407c3.266,6.955,6.94,11.038,11.445,11.038
			c4.688,0,6.123-2.253,6.123-5.11s-1.225-4.49-5.925-6.335c-2.043-0.817-3.888-1.226-5.309-1.831
			c-3.885-1.633-6.137-4.912-6.137-9.402c0-6.743,5.729-10.221,12.472-10.221c3.266,0,6.939,1.239,8.574,2.253l1.633-1.845h0.407
			l0.212,11.247h-0.409c-2.449-5.926-4.898-10.22-9.811-10.22c-3.676,0-5.716,2.042-5.716,5.109c0,3.478,2.448,4.9,5.925,6.336
			C560.14,711.979,562.392,712.388,563.828,713.205z M519.696,701.972h3.674c4.702,0,4.899,2.646,4.899,4.687
			c0,4.295-4.49,4.505-8.573,7.362V701.972z M523.567,731.182h-0.817c-1.828,0-3.266-0.605-3.266-3.478v-8.573
			c0-2.041,1.438-3.266,3.886-4.491c5.308,0.198,0.197,17.977,13.485,17.977c2.45,0,4.49-0.619,5.716-1.225l-0.196-1.436
			c-0.409,0.212-1.029,0.212-1.633,0.212c-10.432,0-3.281-15.739-13.697-16.963c5.11-1.845,7.968-3.478,7.968-6.743
			c0-3.069-0.409-7.152-9.601-7.152h-17.78v1.027h0.817c1.843,0,3.279,0.605,3.279,1.423v24.113c0,4.703-1.437,5.309-3.279,5.309
			h-0.817v0.815h15.528v-0.815H523.567z M431.432,699.31h12.261v1.027h-0.815c-1.845,0-3.885,0.817-3.885,3.464v28.407h-1.225
			l-21.454-26.971v22.679c0,2.66,2.041,3.476,3.674,3.476h0.816v0.816h-12.261v-0.816h0.816c1.844,0,3.885-0.815,3.885-3.476V701.76
			c-1.014-1.014-2.238-1.423-3.462-1.423h-1.028v-1.027h12.866l14.303,17.78v-13.485c0-2.662-2.041-3.478-3.886-3.478h-0.816v-1.014
			L431.432,699.31z M462.895,715.457h14.71v0.815h-0.21c-1.83,0-3.267,0.605-3.267,3.464v9.813c0,0-5.714,3.266-13.076,3.266
			c-8.981,0-16.754-6.533-16.754-16.949c0-10.432,7.772-17.175,16.147-17.175c4.293,0,7.559,2.056,9.191,2.056
			c1.635,0,1.437-2.056,1.437-2.056l0.817-0.196l2.448,10.416l-0.815,0.212c0,0-4.506-8.18-11.656-8.18
			c-5.504,0-9.601,3.675-9.601,14.515c0,10.205,4.702,14.499,10.008,14.499c1.648,0,3.281-0.407,4.507-0.817v-9.811
			c0-2.647-1.438-3.463-3.268-3.463h-0.83v-0.817L462.895,715.457z M507.026,722.396l-4.293,9.601H478.21v-0.815h0.831
			c1.831,0,3.266-0.605,3.266-3.478v-24.1c0-2.662-1.435-3.478-3.266-3.478h-0.831v-1.014h22.891l3.067,7.757l-0.815,0.407
			c0,0-3.477-5.518-10.023-5.518h-3.462v12.049h4.898c2.66,0,4.083-2.448,4.083-4.278v-0.408h0.815v11.839h-0.815v-0.409
			c0-1.829-1.423-4.081-4.083-4.081h-4.898v12.668h5.306c6.547,0,11.234-7.362,11.234-7.362l0.816,0.424L507.026,722.396z
			 M407.121,721.988l0.816,0.408l-4.294,9.601h-24.519v-0.815h0.819c1.838,0,3.271-0.605,3.271-3.478v-24.1
			c0-2.662-1.433-3.478-3.271-3.478h-0.819v-1.014h22.886l3.069,7.757l-0.817,0.407c0,0-3.478-5.518-10.019-5.518h-3.471v12.049
			h4.902c2.655,0,4.083-2.448,4.083-4.278v-0.408h0.817v11.839h-0.817v-0.409c0-1.829-1.428-4.081-4.083-4.081h-4.902v12.668h5.312
			c6.539,0,11.234-7.362,11.234-7.362L407.121,721.988z M298.832,721.171l4.498-11.035l4.494,11.035H298.832z M350.115,721.988
			c0,0-4.697,7.349-11.237,7.349h-5.31v-25.732c0-2.662,1.428-3.478,3.266-3.478h0.819v-1.014h-15.526v1.014h0.815
			c1.838,0,3.271,0.619,3.271,3.478v24.1c0,2.66-1.433,3.478-3.066,3.478c-1.636,0-3.066-1.014-4.086-3.07
			c-0.203-0.605-12.873-29.421-12.873-29.421h-1.021l-12.257,29.421c-0.817,2.057-2.249,3.07-4.086,3.07
			c-1.841,0-3.066-0.817-3.066-3.478v-24.1c0-2.662,1.43-3.478,3.269-3.478h0.817v-1.014h-15.526v1.014h0.816
			c1.841,0,3.269,0.619,3.269,3.478v10.416h-11.645v-10.416c0-2.662,1.428-3.478,3.269-3.478h0.817v-1.014h-15.528v1.014h0.817
			c1.839,0,3.269,0.619,3.269,3.478v24.1c0,2.66-1.43,3.478-3.269,3.478h-0.817v0.815h15.528v-0.815h-0.817
			c-1.841,0-3.269-0.605-3.269-3.478v-11.023h11.645v11.023c0,2.66-1.428,3.478-3.269,3.478h-0.816v0.815h24.719v-0.815h-1.02
			c-1.225,0-2.655-0.817-1.43-3.676l1.43-3.673h11.237l1.432,3.673c1.225,2.858-0.208,3.676-1.432,3.676h-1.022v0.815h38.819
			l4.29-9.601l-0.817-0.408H350.115z M227.328,712.388c0,11.233,4.902,17.568,11.237,17.568c8.171,0,12.87-10.22,12.87-10.22
			l0.817,0.212l-3.066,12.668l-0.817-0.21c0,0,0-1.83-1.223-1.83c-1.434,0-4.494,1.83-8.988,1.83
			c-11.442,0-19.002-7.758-19.002-20.23c0-12.458,7.56-20.215,19.002-20.215c4.494,0,7.555,1.831,8.988,1.831
			c1.428,0,1.223-1.831,1.223-1.831l0.817-0.21l3.066,12.669l-0.817,0.197c0,0-4.699-10.206-12.87-10.206
			c-6.335,0-11.237,6.335-11.237,17.568V712.388z M379.332,722.396l-4.293,9.601h-24.516v-0.815h0.817
			c1.841,0,3.269-0.605,3.269-3.478v-24.1c0-2.662-1.428-3.478-3.269-3.478h-0.817v-1.014h15.528v1.014h-0.817
			c-1.839,0-3.269,0.619-3.269,3.478v25.732h5.311c6.538,0,11.237-7.349,11.237-7.349L379.332,722.396z M330.297,649.054h4.086
			c4.699,0,6.948,2.239,6.948,5.716c0,6.335-6.948,7.362-11.034,10.221V649.054z M334.179,684.811h-0.611
			c-1.841,0-3.271-0.619-3.271-3.478v-11.444l0,0c0-2.041,1.837-3.266,4.291-4.293c5.31,0.212,7.355,27.998,24.107,27.998
			c5.106,0,8.172-3.067,8.172-3.067l-0.612-0.619c0,0-1.838,1.435-4.699,1.435c-10.217,0-12.87-26.154-23.086-27.379
			c5.106-1.831,10.829-4.083,10.829-9.799c0-4.097-3.474-8.178-12.465-8.178h-17.773v0.815h0.612c1.838,0,3.269,0.619,3.269,3.478
			v30.843c0,2.661-1.431,3.477-3.269,3.477h-0.612v0.817h15.323v-0.817L334.179,684.811z M424.689,663.963l4.49,11.035h-8.981
			l4.279-11.035H424.689z M410.19,684.811h-0.831v0.815h10.839v-0.815h-1.027c-1.225,0-2.659-0.817-1.423-3.478l1.423-3.673h11.036
			l1.423,3.462c1.239,2.871-0.198,3.688-1.423,3.688h-1.027v0.815h38.205l4.295-9.614l-0.817-0.408c0,0-4.701,7.362-11.036,7.362
			h-5.11v-25.338c0-2.646,1.436-3.266,3.28-3.266h0.605v-0.817h-15.316v0.817h0.605c1.845,0,3.266,0.619,3.266,3.266v23.903
			c0,2.66-1.421,3.279-3.054,3.478c-1.633,0-3.07-1.016-3.886-3.069c-0.619-1.422-12.67-29.014-12.67-29.014h-1.014l-12.064,29.014
			c-0.815,2.054-2.238,3.069-4.083,3.069L410.19,684.811z M384.235,654.164h-0.817v-0.815h16.144v0.815h-1.029
			c-1.223,0-3.061,0.817-1.428,3.675l6.13,10.614c0,0,4.702-7.756,6.335-10.614c1.633-2.857-0.211-3.675-1.437-3.675h-1.013v-0.815
			h11.233v0.815h-0.816c-1.632,0-2.857,1.014-4.082,3.056l-8.588,14.513v9.601c0,2.66,1.437,3.478,3.069,3.478h0.816v0.815h-15.328
			v-0.815h0.817c1.841,0,3.066-0.619,3.066-3.478v-8.783l-8.785-15.33c-1.225-2.042-2.249-3.056-4.086-3.056H384.235z
			 M369.728,655.178c5.311,0,8.377,4.49,8.377,14.303s-3.271,14.303-8.377,14.303c-5.31,0-8.376-4.49-8.376-14.303
			S364.623,655.178,369.728,655.178z M369.728,686.231c9.193,0,16.343-6.335,16.343-16.751s-7.15-16.751-16.343-16.751
			c-9.191,0-16.344,6.335-16.344,16.751S360.536,686.231,369.728,686.231z"/>
		<path fill="#E5B582" d="M403.235,113.764c-5.315-1.225-25.131-2.861-25.54-1.225c-0.408,1.837,4.086,1.837,14.508,10.416
			c2.861,2.249,6.739,3.271,10.828,2.658c2.654-0.409,4.287-1.633,6.751-3.474c6.124-4.494,1.633-5.312-6.547-8.173V113.764z
			 M532.971,422.06c-3.266-0.815-25.747-9.601-30.645-12.049c-10.63-5.11-50.256-33.508-58.844-42.5
			c-9.798-10.417-26.761-18.181-27.986-16.548c0,0,18.386,19.614,14.711,38.819c-1.224,6.945-2.041,9.811,1.633,5.313
			c7.152-8.783,5.716-18.592,5.928-18.387c0.605,0.612,18.188,10.216,16.132,39.019c-0.196,2.462,9.812-10.011,11.037-16.134
			c2.04,0,12.668,17.371,11.853,25.129c-0.619,5.518,3.266,2.04,5.716-1.437c1.435-2.041,2.252-4.687,2.66-6.531
			c0.407-2.45,1.027-1.845,3.885-1.226c8.785,2.253,32.885,4.703,44.132,6.531H532.971z M363.802,490.306
			c-3.47,32.279-33.504,49.651-33.708,50.875C330.094,541.379,383.418,533.41,363.802,490.306z M224.874,244.314
			c-2.249-23.289-45.765-48.011-30.646-102.767c-31.871,37.185-9.397,54.554,2.861,68.443c3.269,3.882,6.947,6.743,8.579,10.421
			c1.838,4.085-3.881,1.429-7.355,1.224c-23.086-0.61-27.377,17.981-24.923,18.797c1.633,0.408,21.042-25.54,46.989,1.434
			c1.633,1.633,4.902,6.739,4.494,2.653V244.314z M256.133,467.825c4.085,0,14.914-0.196,15.526-3.055
			c0.408-1.844-1.225-5.729-3.064-6.335c-2.857-1.027-24.721,6.531-44.128-3.477c-7.152-3.674-14.711-10.009-15.323-9.813
			c-1.225,0.619,7.968,23.298,47.193,22.679H256.133z M193.412,438.207c-2.045-9.404-0.409-13.684-2.861-16.963
			c-1.837-2.45-4.699-4.898-9.808-4.898c-16.956,0.196-15.732,9.811-15.323,4.701c0.208-6.546,4.089-22.89,25.539-20.637
			c3.678,0.407,5.315-10.833,3.882-14.512c-8.989-21.45-24.515-5.717-25.948,4.291c-2.654,1.229-5.515-15.73-2.45-25.536
			c5.106-15.526,22.066-24.314,37.182-5.723c6.13-14.506,31.466-89.688,8.379-111.347c-8.379-7.967-23.086-7.151-31.874-0.203
			c-7.152,5.719-8.172,16.959-10.213,16.959c-3.269,0-16.551-16.347-14.915-31.263c2.245-20.02,22.882-22.266,23.903-23.494
			c1.429-1.837-1.837-3.881-3.678-5.924c-12.257-12.056-14.098-37.592,0.612-53.73c32.69-35.962,22.679-41.476,26.56-40.659
			c2.045,0.408,9.4,9.191,11.033,18.796c4.493,25.332-12.053,29.626-0.204,61.496c-0.817-2.249,0.816-21.657,14.098-34.323
			c6.535-6.335,26.763-13.69,29.008-11.032c0.205,4.494-26.15,7.559-8.988,63.54c7.152,23.494,6.54,69.056-12.257,116.046
			c-0.613,1.432,2.041-0.409,5.922-0.409c13.487-0.203,19.41,8.988,18.594,20.837c-0.41,5.723-2.45,1.842-7.152,1.025
			c-38.614-5.722-41.475,41.27-42.495,61.091c-1.021,20.019,3.065,45.146,66.402,37.39c3.471-0.408,6.944,24.311,6.944,26.352
			c0.203,3.675-2.042,4.702-5.719,5.308c-54.141,10.009-80.089-17.767-84.583-37.585L193.412,438.207z M497.623,296.619
			c5.729,5.31,7.771,13.894,9.601,21.044c7.771,29.011,32.899,29.418,33.519,28.193c0.196-0.408-13.697-7.559-12.67-32.894
			c0.407-11.237-7.15-24.721-17.977-31.055c-27.789-16.753-64.98-7.968-80.916-12.054c16.147,18.388,29.829,46.173,38.824,53.528
			c8.378,6.947,16.542,10.012,37.178,27.785c-0.407-0.408-8.783-38.614-18.582-51.279c-1.027-1.434-9.614-10.829-10.43-10.625
			c6.335-2.042,16.963,3.27,21.256,7.559L497.623,296.619z M567.094,169.13c-0.211-2.245-8.785,16.755-40.458,52.099
			c-1.422,1.433,1.437,8.785,4.899,13.282c1.027,1.428,4.097,4.902,5.926,4.085c1.027-0.408-0.815-10.828,10.84-27.581
			c8.166-11.853,16.751-27.584,18.793-42.09V169.13z M645.137,144.001c0,1.021,0,1.633-2.252,1.021
			c-3.674-1.021-7.967-3.064-11.43-0.203c-3.689,3.064-4.505,7.15-9.404,9.399c-7.967,3.677-20.425,0.612-25.339,9.601
			c-2.041,3.677-2.238,9.809,2.661,11.032c4.082,1.022,12.669-6.333,22.27,4.903c0.817,0.819,10.628-4.903,11.643-3.881
			c1.027,2.248-5.111,12.465-7.152,15.73c-10.628,17.775-25.536,13.485-31.462,11.648c-6.742-2.044-12.458-2.861-16.541,4.086
			c-6.335,10.621-4.7,22.676-6.953,34.119c-0.409,2.654-3.675,17.978-6.744,17.568c-2.66-0.408-6.743-17.979-9.39-17.364
			c-0.619,0.205,1.831,19.613-6.545,27.785c-0.816,0.815-6.335-19.817-26.563-22.065c-0.817-8.581-4.083-13.279-13.684-21.454
			c5.716-6.739,14.499-17.16,20.229-23.903c11.038-13.074,23.904-24.924,29.62-41.474c4.912-13.893,7.15-28.193,16.146-40.043
			c4.294-5.723,20.019-20.434,40.654-14.507c2.041,0.612,15.725-1.838,16.963,6.131c0.198,0.816-5.321-0.204-8.587,2.041
			c-3.478,2.249-4.898,6.947-5.716,7.561c-21.256-1.838-20.636,17.162-18.397,14.913c4.912-4.698,19.003-13.894,36.783-3.677
			C641.871,136.441,645.137,142.573,645.137,144.001z M346.641,87.408c38.207-14.507,68.645,1.02,68.645,0.407
			C378.308,61.664,346.641,87.408,346.641,87.408z M377.492,48.998c0,2.861,1.223,5.311,2.861,5.311
			c1.633,0,2.861-2.245,2.861-5.311c0-2.861-1.229-5.311-2.861-5.311C378.715,43.688,377.492,45.933,377.492,48.998z
			 M447.987,62.072c-7.561,1.228-7.981,5.519-9.614,10.013c-2.45,8.991-5.716,8.784-7.561,9.399
			c-12.049,2.041-7.968,11.646-7.756,12.258c-0.212,0-0.212,0.204-0.408,0.204c-1.225,1.021-5.321,5.106-5.927,7.764
			c-0.62-0.612-39.229-19.409-72.533-0.204c0,0.204-0.612-3.678-6.536-7.968c0,0,4.291-9.808-7.971-12.054
			c-1.836-0.615-5.107-0.615-7.555-9.399c-1.636-4.494-2.046-8.785-9.604-10.013c0,0,3.677-4.494,12.665-1.021l5.314-4.494
			l1.021,6.13l6.743-1.636l-2.452,7.355l6.538,1.225l-4.289,4.089c0,0,12.87,6.332,11.44-9.604l-4.701,2.861
			c0,0-4.086-5.722-4.699-11.646c-0.205,0.205,6.335-0.203,6.335-0.203l-5.927-7.355c0,0,8.176-4.29,13.895-4.494
			c0-0.204,0.408,8.784,0.408,8.784l5.518-4.698c0,0,2.857,7.354,3.47,13.277c-0.408-0.203-7.352,0-7.352,0
			s9.806,15.732,17.161-0.203c-0.205-0.204-4.086,0.816-7.765-3.27c-0.203,0,0.205-2.45,2.658-3.882
			c-2.045-0.817-4.291-3.474-4.086-4.698c0-0.816,1.428-1.841,3.677-2.453c-0.412,0-2.657-2.653-3.064-6.127
			c0,0.204,1.837-1.024,5.922,0.408c0,0-1.633-1.84-2.041-7.968c-0.205-0.204,2.861-0.82,6.535,0.204
			c0.413,0,0.821-2.657,3.269-6.335c0.205-0.204,0.205-0.407,0.41-0.407c0.411-0.409,0.616-0.817,1.024-1.226l0,0l0,0
			c0,0,0.817,0.816,1.428,1.837c2.658,3.678,3.066,6.335,3.271,6.335c3.677-0.816,6.743-0.408,6.538-0.204
			c-0.205,6.127-1.841,7.968-1.841,7.968c4.086-1.229,5.723-0.204,5.723-0.408c-0.408,3.474-2.656,6.127-3.064,6.127
			c2.245,0.612,3.677,1.636,3.677,2.452c0,1.226-2.044,3.883-4.086,4.699c2.45,1.433,2.861,3.882,2.655,3.882
			c-3.675,4.086-7.557,3.065-7.765,3.269c7.355,16.14,17.172,0.205,17.172,0.205s-6.75-0.205-7.363,0
			c0.613-5.923,3.478-13.278,3.478-13.278l5.519,4.698c0,0,0.407-8.988,0.407-8.784c5.52,0.204,13.896,4.493,13.896,4.493
			l-5.928,7.355c0,0,6.743,0.409,6.335,0.205c-0.619,5.923-4.702,11.645-4.702,11.645l-4.7-2.861
			c-1.437,15.732,11.443,9.604,11.443,9.604l-4.293-4.089l6.531-1.226l-2.646-7.354l6.743,1.637l1.014-6.131l5.321,4.494
			c8.981-3.474,12.654,1.021,12.654,1.021L447.987,62.072z M301.898,227.155c2.657-2.453,5.518-3.065,2.249,2.653
			c-12.054,22.271-18.39,46.381,2.245,74.166c0.411,0.408,1.024,0.612,1.024,0c1.225-6.335,6.535-24.928,27.988-41.271
			c2.046-1.633,14.099-11.034,14.711-10.829c2.042,0.407-1.636,8.171,11.85,19.612c3.474,2.861,1.837-1.428,4.291-4.699
			c4.494-5.717,13.485-16.751,17.367-24.106c0.612-1.225,6.944,5.515,10.416,17.773c3.679-17.161-0.203-23.496-8.579-30.441
			c-2.042-1.633-0.409,6.333-20.634,25.13c-8.376-10.012-5.723-28.601-6.948-29.829c0.41,0.205-8.375,14.506-21.249,20.434
			c-18.181,8.375-20.633,15.73-21.45,14.095c-6.335-11.237,0.408-21.858,3.679-30.239c2.041-5.31,14.914-29.825,13.89-31.869
			c-2.45,1.837-23.904,13.28-23.494,10.012c3.677-30.646,24.926-29.014,27.783-50.671c0.205-0.817-10.416,6.538-11.849,7.355
			c-5.717,3.27-6.535,4.494-4.902-1.837c3.474-14.506,17.572-24.519,15.528-24.315c-28.195,1.841-21.247,30.442-49.036,39.639
			c1.025,2.656,8.584,1.837,10.829,1.633c2.046-0.205,7.968-0.205,9.809-0.205c-20.434,22.679-11.645,38.614-22.474,54.961
			c-1.229,2.041,11.645-3.269,16.546-7.355L301.898,227.155z M325.597,129.903c7.972,0.407,16.959-6.127,14.301-6.538
			c-20.428-2.45-33.916-17.773-34.118-17.978c-1.43-0.204,1.431,8.172,1.636,9.192c2.448,9.809,7.355,14.506,18.181,15.118V129.903z
			 M372.386,203.864c0.815,0,1.02-0.205,1.428-1.023c0.817-1.838-4.289-4.699,2.454-20.838c2.858-7.152,3.064-13.69,3.064-21.251
			c0-9.396,7.56-17.771,7.352-18.179c-1.223-1.229-16.139,11.233-15.731,20.633c0.205,4.901,0.821,7.968-1.835,11.85
			C352.771,198.754,370.952,203.864,372.386,203.864z M257.769,236.756c25.537,1.432,17.159-22.474,22.474-34.527
			c2.041-4.699,7.352-9.396,8.581-13.279c-3.27,0.409-28.401,5.924-25.335-22.064c0.203-1.43,7.763,6.538,17.775,4.084
			c20.635-5.922,18.185-26.763,32.892-35.956c-17.161-6.13-9.193-21.453-19-34.119c-2.45-3.27-7.56-4.29-7.765-5.11
			c-0.203-1.021,26.97-5.515,44.337,10.421c6.743,6.13,4.494,7.151,9.807,2.249c20.838-18.797,76.82-12.466,82.747,8.172
			c2.252,1.224,18.384,4.494,25.536,4.494c4.491,0,12.05,1.429,10.824,6.946c-3.054,12.667-11.233,12.462-10.614,14.915
			c2.239,10.214-4.7,24.312-6.137,23.904c-1.226-0.41-1.226-5.52-2.45-6.335c-10.009-6.743-27.984-8.581-37.388-18.182
			c-10.422,5.106-9.193,21.45-9.398,26.762c-0.819,15.938-5.518,17.162-4.498,19.003c4.086,5.515,11.445,8.171,20.033,8.376
			c8.375,0.205,7.558,2.45,15.724,1.428c3.478-0.407,8.588-5.31,9.403-4.901c0.605,0.408,0.197,7.15-2.66,11.646
			c-2.66,4.697-8.995,6.13-14.909,5.515c-9.614-1.021-25.342-2.655-30.652,7.763c-3.474,6.947,1.633,3.677,10.009,0.411
			c25.543-9.604,31.667,19.817,66.818-11.24c0.196-0.203,0.408,0,0.408,0.208c0.195,5.106,1.83,18.385-16.556,26.764
			c-9.402,4.291-28.393,2.45-33.307,6.536c26.775,12.053,49.454-5.719,64.769-6.739c10.826-0.821,27.381,4.289,29.831,16.751
			c-2.661-3.474-14.501-4.086-19.201-2.249c-53.325,20.637-69.669,2.454-73.766,5.315c-4.49,3.064-4.687,12.257-3.054,16.344
			c3.674,8.578,12.049,18.795,17.357,39.021c-17.569-15.323-38-16.345-42.289-32.483c-1.225-4.29-1.434-11.237-2.861-15.119
			c0,0-3.474,7.559-4.494,11.442c-3.066,12.869,16.139,23.698,16.139,53.527c-38.817-17.367-38.817-36.981-38.205-41.679
			c0-0.409-0.408-0.409-0.613-0.204c-1.841,2.656-5.925,12.257,1.225,35.141c4.702,15.526-1.837,31.054-1.837,30.441
			c-1.021-12.259-16.755-25.335-22.269-41.476c-5.723-16.344,4.697-28.396,4.289-29.213c-0.612-1.432-19.612,8.987-16.139,32.074
			c2.452,16.141,13.482,20.838,17.98,33.712c4.494,12.87,2.448,34.526-28.809,40.858c-3.474,0.616-1.225-1.225,0.612-3.882
			c9.399-12.462-0.817-33.299-3.271-34.323c-1.224-0.612-7.559,6.538-19.613,6.131c-16.343-0.613-21.45-16.549-19.408-16.344
			c26.56,1.633,21.454-26.968,19.817-24.928c-1.43,1.841-24.516,12.258-30.239-4.086c-0.205-0.612,0.205-1.226,0.821-1.428
			c26.56-1.024,16.546-27.378,15.731-36.777c-1.433-15.118,8.171-21.861,7.355-23.699c-0.41-1.02-27.994,5.515-27.381-9.604
			L257.769,236.756z M564.236,315.212c6.123-1.842,9.601-5.312,11.642-6.948c0.197-0.204,0.197-0.407-0.21-0.612
			c-3.873-0.205-18.175-1.636-27.367-18.388c-8.783-15.936-22.073-31.054-41.894-31.054c-8.784,0.203-27.985,4.697-27.17,5.926
			c0.817,1.43,32.491,0.407,46.385,19.612c9.601,13.279,17.356,37.591,38.614,31.259V315.212z M420.606,166.475
			c-8.783-6.945-17.778-2.861-22.074,8.173c-1.223,3.27-0.408,2.861,0.41,2.656c10.221-2.861,14.302-0.407,20.44,2.45
			c14.499,6.334,24.72,3.27,30.025-7.355C445.115,172.398,438.78,180.778,420.606,166.475z M629.398,432.28
			c-3.461-1.633-3.054-8.178-7.968-8.995c-4.278-0.605-8.571,4.702-12.866,3.069c-13.078-5.518-24.719-2.662-27.169,0
			c1.83,1.435,14.501,4.7,17.358,6.743c5.518,3.673,9.403,10.628,5.926,20.834c-1.633,5.109,0,8.178-3.266,12.88
			c-4.083,5.928-4.702,3.885-3.478-1.435c0.212-1.226-1.421-2.239-3.871-6.336c-1.646-2.646-18.397,3.266-23.903-15.315
			c-4.095,2.646-27.379,15.724-48.833-10.221c-13.078-15.724-29.829,5.308-62.108,7.968c-1.633,0.212,7.968-9.601,5.306-21.046
			c-1.013-4.293-0.815-3.463-3.475-1.421c-4.9,3.266-14.092,8.164-20.625,7.968c-1.646,0,8.376-8.995,0.817-32.286
			c-0.407-1.434-8.587,13.281-23.706,13.071c2.449-12.051,2.858-19.202,0.62-24.309c-2.464-5.927-9.404-10.624-19.216-15.939l0,0
			c0.408,0.616,2.252,3.478,2.66,3.886c17.371,29.421-0.62,44.737,2.253,45.567c17.765,5.506,29.619-5.728,30.842-4.912
			c2.043,1.027-1.633,11.037-5.714,17.976c-6.335,10.84-15.739,16.344-27.789,22.679c-9.401,4.912-26.563,11.248-23.907,24.72
			c1.225,5.729,16.139,24.325,17.572,34.743c1.633,11.853-10.421,27.379-12.465,37.797c-0.817,3.463-0.612,7.15,0.205,10.416
			c-6.944-0.619-13.482-1.633-20.022-3.266c-1.428-2.66-2.454-5.926-2.656-9.601c-0.205-2.872,0.411-5.11-1.225-3.478
			c-3.269,3.07-5.515,6.533-6.948,10.011c-17.977-5.928-34.528-15.528-48.418-27.986c26.765-23.494,20.43-62.108,19.612-70.893
			c-3.064-32.7,30.852-30.646,50.669-87.043c-15.121,30.03-74.779,43.729-67.831,90.309c3.269,22.467,6.13,39.219-9.398,60.884
			c-2.657-2.66-5.11-5.518-7.355-8.376c9.806-19.413,0.613-45.977,2.042-66.205c3.269-46.99,90.1-58.84,82.337-116.452
			c0-0.409,0.408-0.612,0.815-0.612c14.711,5.313,22.066,16.751,25.537,22.065c0.62,1.021,1.437,2.448,2.043,3.677
			c3.067-3.065,7.981-11.031,9.811-19.612c1.437-6.742,2.042-15.323-0.196-24.723c-0.212-1.225,20.622,11.645,24.72,16.96
			c3.266,4.084,5.715,11.645,6.53,3.881c0.408-3.881,1.027-12.054-0.195-23.291c2.646,1.838,6.938,13.278,17.159,23.699
			c8.165,8.58,46.582,33.508,67.823,57.207c6.138,6.742,18.188,10.008,26.972,6.945c12.866-4.497,12.263-30.034,40.247-31.261
			c7.968-0.409,19.004-5.312,23.494,5.313c2.043,4.698-2.857,2.453-6.531,2.861c-4.914,0.612-7.362,2.857-7.362,7.355
			c0.212,11.438-17.16,19.813-17.356,21.446c4.49,1.64,23.901-7.352,33.095,1.845c2.041,2.04,2.238,4.702,3.885,6.938
			c10.207,14.711,6.124,23.299,5.309,22.891L629.398,432.28z M468.202,538.719c-6.335,4.095-12.866,7.77-20.019,10.839
			c-19.609,1.014-39.43,6.743-39.021,4.898c9.191-44.737-8.786-66.191-11.243-72.116c-9.191-21.454,27.586-20.639,48.01-34.729
			c2.662-1.845,3.887,0.197,5.729,3.266c3.886,6.123,12.263,23.496,26.143,33.292c16.555,11.854,26.972,12.473,33.518,9.405
			c-8.377,14.301-19.412,26.76-32.279,37.178c-42.091-7.757-51.494-19.609-51.691-15.316c-0.21,4.49,0.197,21.046,2.042,22.059
			C430.813,538.309,450.438,535.451,468.202,538.719z"/>
		<path fill="#857040" d="M480.674,529.934c-79.071-16.132-81.521-51.677-82.141-54.549c0.62-6.335,15.121-13.078,28.197-13.896
			c2.45-0.195-1.421,25.96,70.486,52.313C492.105,519.728,486.6,525.035,480.674,529.934z M375.655,559.763
			c-3.474-0.408-6.948-1.014-10.421-1.829c-2.657-4.294-4.085-9.192-3.269-14.711c0.612-1.437,2.045-3.069,4.494-8.18
			c2.453-5.109,2.658-9.389,3.269-10.416c-0.408,17.567,2.658,28.393,6.132,34.939L375.655,559.763z M180.538,415.317
			c-9.601-0.605-14.095,4.294-13.89,3.885c5.311-8.981,12.053-11.854,19-12.049c30.851-1.438,6.332,55.984,87.853,41.88
			c1.837-0.41-2.657,6.952-4.086,8.995c-2.249-1.029-7.355,0.815-14.914,1.225c-6.132,0.196-18.389,1.014-28.196-4.083
			c-36.978-19.005-26.149-38.416-45.97-39.642L180.538,415.317z M241.013,475.597c-16.546-2.45-36.772-12.868-42.903-28.606
			c1.841,3.07,27.784,37.588,77.84,22.468c1.024-0.408,4.905,3.069,4.293,3.281c-4.498,1.828-16.959,6.333-39.026,2.857H241.013z
			 M379.944,27.548c-0.203,0,5.107,9.192,0.205,14.911C380.149,42.459,375.039,38.373,379.944,27.548z M342.352,48.386
			c0,0,2.45-1.433,4.699-2.045c0,0,2.861,5.519,3.882,10.421c0-0.204-0.613-0.816-3.474-1.43c-0.205,0-5.311-6.946-5.311-6.946
			H342.352z M409.163,56.762c1.027-4.902,3.673-10.421,3.885-10.421c2.448,0.819,4.7,2.045,4.7,2.045s-4.912,6.946-5.319,6.946
			c-2.858,0.613-3.266,1.226-3.478,1.43H409.163z M411.611,73.313c-3.885-4.499-2.857-13.69-2.857-13.69s5.715,3.27,5.927,3.27
			c1.421-3.066,1.633-6.131,1.633-6.131l2.857-0.204c-0.407,4.29-3.675,9.604-3.675,9.604s-4.7-2.861-4.898-2.861
			c-1.435,3.882,1.226,10.014,1.226,10.014H411.611z M344.802,65.958c0,0-3.268-5.315-3.675-9.604l2.858,0.204
			c0,0,0.205,3.065,1.636,6.13c0.205,0,5.924-3.269,5.924-3.269s0.815,9.191-2.858,13.686c0,0,2.653-6.127,1.225-10.008
			c-0.205,0-4.903,2.861-4.903,2.861H344.802z M355.834,60.235l-1.428-1.838c0,0,7.355-0.411,7.763-0.411s0.815,2.249,0.815,2.249
			H355.834z M389.954,34.084c-0.205,4.697-2.45,8.579-3.474,9.604c3.474-2.249,6.946-1.637,6.946-1.637s-6.535,5.926-6.743,5.926
			c5.315-0.816,8.381,1.021,8.381,1.021l-7.968,3.473c4.29,1.226,6.942,4.494,6.942,4.494s-5.31-0.203-8.988-0.203l0.817,7.764
			l-4.494-7.764h0.203c0,0-0.203,0,0,0c7.152-7.355,1.022-13.687,1.022-13.687l7.968-8.991H389.954z M404.263,60.439h-7.158
			c0,0,0.408-2.453,0.815-2.453c0.409,0,7.765,0.411,7.765,0.411l-1.423,1.838V60.439z M373.611,47.977
			c-0.205-0.203-6.743-5.926-6.743-5.926s3.472-0.408,6.946,1.637c-1.02-0.817-3.269-4.702-3.474-9.604l7.968,8.991
			c0,0-6.332,6.127,1.024,13.687l-4.498,7.764l0.821-7.764c-3.679,0.203-8.992,0.203-8.992,0.203s2.656-3.473,6.948-4.494
			l-8.173-3.473c0,0,3.066-2.045,8.375-1.021H373.611z M352.771,63.097c14.912,14.506,24.311,2.861,27.172-3.271
			c4.699,9.193,14.3,15.732,27.177,3.066c-3.068,10.828,1.225,14.095,3.265,15.526c-14.098-6.131-37.388-11.237-61.086,0
			c2.245-1.023,6.127-5.722,3.266-15.322H352.771z M443.891,62.893c-5.11,0.816-5.716,3.269-7.349,7.967
			c-1.845,7.355-5.729,8.377-8.587,9.396c-9.601,2.249-7.559,11.237-7.757,10.83c-5.518-5.927-5.109-12.667-5.109-12.667
			c13.895,2.861,15.118-5.105,16.751-8.583C436.33,60.848,444.103,62.688,443.891,62.893z M332.135,80.053
			c-2.861-1.021-6.743-2.042-8.58-9.397c-1.636-4.902-2.044-7.151-7.355-7.968c-0.203-0.204,7.56-2.045,12.054,6.944
			c1.428,3.473,2.861,11.444,16.755,8.583c0,0,0.409,6.739-5.11,12.666C339.695,91.086,341.739,82.301,332.135,80.053z
			 M214.862,191.807c-0.205-9.804,5.518-33.095,30.849-43.312c1.841-0.815-34.732,22.474-20.837,61.496
			C225.282,211.015,215.065,193.647,214.862,191.807z M359.103,221.433c-17.364,25.54-30.237,19.613-44.129,36.572
			c-3.881-43.52,34.938-31.462,37.797-52.916c28.194,10.217,15.936,30.646,12.462,47.398c-5.518-4.699-5.721-30.852-6.13-30.852
			V221.433z M194.432,137.054c-45.152,48.219,1.841,68.035,7.56,83.358c-28.601-2.042-31.055,14.302-32.279,18.796
			c-8.175-18.593,21.858-24.315,14.911-28.193c-12.871-7.355-33.503-44.335,9.808-73.757V137.054z M207.918,356.482
			c8.172-18.39,24.312-70.897,11.03-102.563c-7.353-17.775-41.268-20.434-50.667,6.127c-0.205,0.612-1.225,0.612-1.429,0
			c-2.657-9.191,10.421-27.784,27.377-27.784s29.625,14.099,33.302,30.646c3.271,15.12,3.066,60.067-19.408,93.575H207.918z
			 M167.26,387.127c-5.927-22.269,17.364-36.979,29.014-13.077c4.902,11.441,6.739,21.658,3.062,21.453
			c-1.225-10.217-17.568-38.409-32.075-8.579V387.127z M595.079,123.365c2.45-10.01,15.118-11.234,17.977-11.234
			c2.661,0,6.954-7.355,17.16-1.229c0.212,0,0.212,0.408,0,0.408c-2.042,0-4.688-0.408-7.349,0.82
			c-3.266,1.633-5.715,5.515-7.362,7.764c-21.031-2.249-18.174,15.323-18.989,15.118c-0.817-0.204-3.478-2.248-1.225-11.441
			L595.079,123.365z M642.477,143.389c-6.531-2.454-10.416-1.841-12.668,0c-2.648,2.042-6.743,7.968-8.981,9.601
			c-6.139,3.882-31.464-0.408-26.354,20.229c-2.872,1.43-20.849-26.15,31.054-32.69c2.043-3.064,10.826-7.355,17.161,3.066
			L642.477,143.389z M626.541,186.292c-3.674,5.515-6.123,16.96-23.692,16.96c-10.838,0-17.37-7.355-25.338,0.612
			c1.633-4.905,3.477-8.584,12.051-9.809c14.922,6.335,30.856-2.657,31.673-11.032c0-0.612,10.009-5.924,10.221-5.515
			C632.271,179.142,627.766,184.248,626.541,186.292z M525.412,219.188c0.619-3.066,2.66-10.421,3.067-10.829
			c7.349-8.376,31.462-35.96,40.443-51.283c0.212-0.204,0.41,0,0.41,0.209c-5.914,17.771-39.221,55.568-43.711,62.106
			c-0.21,0.205-0.408,0-0.408-0.203H525.412z M577.92,178.732c-10.418,27.989-8.587,67.831-13.487,77.432
			c-2.66-2.448-6.531-14.91-9.191-18.796C556.874,233.485,556.676,205.905,577.92,178.732z M511.109,226.543
			c-0.408-0.205,0-0.82,0.407-0.82c3.069,0.615,8.376,2.248,14.515,15.938c1.224,2.858,26.353-8.786,21.65,23.494
			c0,0.205-0.408,0.205-0.408,0c-5.716-16.755-24.931-18.388-25.129-19.204C521.525,238.596,514.994,230.014,511.109,226.543z
			 M258.382,238.8c-0.205-0.204,12.462,9.806,39.837-5.723c-0.612,0.616-12.054,11.442-12.665,11.85
			c-5.516,1.637-21.658,5.315-27.377-6.331L258.382,238.8z M289.436,291.308c5.514,6.127,12.665,20.226,10.829,31.462
			c-1.433,8.785-6.335,15.119-15.12,15.937c4.903-2.044,15.528-19.817,5.719-30.646c-0.613-0.815-16.344,17.164-29.009,1.633
			c23.902,2.453,27.784-17.977,27.376-18.385H289.436z M357.063,343.813c0.815-1.838-14.916-22.679-18.592-31.259
			c-7.152-16.139,1.02-32.075,4.494-36.161c0.408-0.411,4.494-3.472,3.881-3.27c-12.257,1.021-36.981,30.034-38.002,32.279
			c2.861-21.45,33.916-44.536,38.614-50.666c0.613-0.817,0.408,17.162,0.408,17.571c0,0.203,9.809,11.85,9.809,12.053
			c-3.066,1.022-8.172,1.225-8.785,1.838c-12.465,16.755,14.912,40.658,7.968,57.818L357.063,343.813z M367.892,306.016
			c-10.625-12.667-6.743-20.633-6.743-20.633s24.312,27.58,34.119,39.02c-7.355,0-25.335-15.73-27.584-18.387H367.892z
			 M396.697,389.17c-5.106,36.367-48.626,50.051-51.484,75.39c-5.315,45.356-25.743,55.365-33.098,56.998
			c18.387-24.508,14.914-51.48,14.301-62.305c-0.408-8.587-0.613-15.936,2.653-20.638c8.381-12.67,41.883-39.022,46.994-76.415
			c-9.399,28.192-66.606,44.545-73.961,80.3c-6.739-45.975,74.369-45.567,73.961-108.288c0.408,0.204,25.948,17.363,20.837,54.958
			H396.697z M375.859,479.89c-1.433,0.605-9.401-10.221-9.401-11.854c0-18.188,17.572-21.046,32.074-24.311
			c26.974-6.336,28.817-21.046,34.744-28.197c-1.027,7.757-8.39,26.564-33.307,35.757c-35.347,12.866-24.315,28.604-24.315,28.604
			H375.859z M397.92,287.222c-5.105-4.293-7.147-6.743-8.579-11.24c-0.205-0.815-0.41-1.429-0.613-2.245
			c-0.408-2.044-1.02-4.699-1.633-7.559c-0.205-1.43-0.616-3.271-1.025-5.106c0,0-0.611-0.205-1.02,0.203
			c-5.515,5.514-6.335,14.299-6.335,13.278c-3.881-8.58,2.861-29.421,4.907-29.626c0.408,0,2.653,13.69,2.858,13.896
			c0,0.407,38.406,45.355,40.249,46.785c-7.559-5.924-21.241-12.054-28.604-18.386H397.92z M419.171,406.941
			c0.816-4.695,13.274-29.418-18.793-39.019c28.395,6.739,26.156,19.204,26.156,30.234c0,1.843-7.15,8.996-7.56,8.784H419.171z
			 M313.338,384.879c2.861-2.452,11.442-17.572-2.245-39.838c-2.249,1.021-10.625,7.146-19.821,7.146
			c-9.804,0-19.205-7.558-19.613-13.277c13.078,14.914,37.797,6.743,42.496-14.508C314.566,324.607,353.793,363.633,313.338,384.879
			z M540.333,420.639c-1.239-0.212-2.253-0.619-3.478-1.027C538.08,420.02,539.094,420.231,540.333,420.639z M540.333,420.639
			c-1.239-0.212-2.253-0.619-3.478-1.027C538.08,420.02,539.094,420.231,540.333,420.639z M465.344,383.653
			c-22.271-16.347-34.728-34.73-58.025-35.755c9.811-11.441,7.362-24.312,6.955-32.892c5.925,3.066,71.089,89.288,122.582,104.604
			c-33.503-9.391-54.351-23.496-71.512-36.161V383.653z M583.438,398.565c0.815-15.319,15.526-10.418,15.526-25.332
			c1.633-5.311,9.601-9.805,16.963-4.289c0.198,0.203,0,0.408-0.21,0.408c-10.825-0.205-13.275,4.494-13.078,7.763
			c0.62,15.118-18.188,18.797-19.201,21.252V398.565z M283.92,176.483c25.741-17.977,17.161-27.171,31.054-40.858
			c6.332,1.226,13.892,0.816,22.063,0.613c-1.223,1.633-16.956-4.291-30.029,21.861C300.265,171.786,281.263,178.324,283.92,176.483
			z M378.92,98.645c-19.817,3.473-22.471,6.947-25.127,8.784c-0.613,0.408-0.817,16.552-3.474,19l0,0
			c-1.43-2.448-7.968-12.869-11.237-14.095C341.332,109.473,353.384,99.665,378.92,98.645z M430.616,204.477
			c-9.813,12.055-39.638-6.947-46.791,16.139c-0.203,0.41-17.367-23.901-3.677-38c0.205-0.204,4.289,15.526,4.289,15.526
			c1.022,2.861,36.986,6.54,40.659,5.723c1.437-0.408,7.968-8.584,8.785-9.196c1.027-0.408-0.197,5.928-3.266,9.604V204.477z
			 M263.896,168.925c11.645,20.229,26.765,13.486,37.39,13.281c0,0.409-9.809,3.474-11.85,5.723
			c-7.56,0.817-25.54,4.291-25.745-19.004H263.896z M463.092,210.399c0.619,16.959-18.174,26.765-30.435,26.152
			c-7.561-0.408-15.33,0.407-20.427,3.881c-1.435-26.968,32.478,3.882,51.073-29.829L463.092,210.399z M477.395,241.457
			c11.854-3.681,29.422,5.311,29.422,7.352c-17.568-7.352-40.035,17.979-81.31,6.947c-3.887-1.02-6.124-3.474-10.826-3.065
			C427.14,244.52,420.396,258.617,477.395,241.457z M443.285,163.206c-1.027-10.829-24.72-7.968-38.417-21.249
			c-2.448-2.245-11.442,6.743-11.85,16.55c-3.882-6.538-4.494-12.465-4.697-20.841c0-0.612-5.723-6.946-14.71-9.191
			c9.604-1.225,11.44,3.27,28.4,8.988c1.021,0.408,13.078-4.494,13.078-3.883c0,1.638,13.895,17.368,15.724,17.981
			c16.751,5.106,17.175-6.948,17.78-6.335C449.212,146.246,446.748,164.227,443.285,163.206z M446.96,126.429
			c7.15,5.928,10.824-0.612,10.824,0c-1.224,9.196-10.009,14.506-10.416,14.304c-7.771-1.633-11.038-16.752-10.221-16.549
			c5.11,1.838,9.193,1.633,10.009,2.245H446.96z M345.417,142.573c1.428,0.203,3.882,12.869-7.56,21.45
			c0.408-1.226,1.428-8.173,1.633-9.601c0.408-3.271-13.687,8.171-18.592,11.032C328.253,138.278,345.008,142.573,345.417,142.573z
			 M358.083,164.023c-1.841,17.162-9.809,23.905-25.948,32.485c0,0-19.205,10.621-20.837,10.829
			C310.89,180.165,354.813,176.28,358.083,164.023z M507.632,287.834c21.046,17.773,4.293,40.247,24.523,55.979
			c-30.027-9.193-20.019-36.161-34.32-48.623c-14.106-12.261-34.94-6.947-34.94-6.947S486.39,270.06,507.632,287.834z
			 M537.869,284.36c4.702,7.968,10.22,28.397,35.968,24.924c-3.478,1.229-24.522,20.229-43.314-19.408
			c-10.826-22.678-41.88-24.721-49.032-25.333c35.954-7.559,47.595,5.106,56.59,19.817H537.869z M628.795,430.239
			c0,0.196-0.409,0.196-0.409,0c-6.138-15.527-14.711-4.083-18.792-6.137c-6.955-3.676-24.735-3.871-28.408-0.41
			c1.027-10.008,20.637-13.879,35.967-8.571C620.208,415.317,630.428,419.821,628.795,430.239z M462.274,288.854
			c0,0.409,36.164,53.325,37.797,57.207c-17.158-14.099-21.03-15.119-31.462-24.723c-13.273-12.055-18.792-31.055-36.36-48.828
			c0.62-0.203,30.237,15.528,30.237,16.344H462.274z M600.387,456.592c0.21,3.885,3.279,5.715-1.014,12.261
			c-0.211,0.197-0.409,0-0.409-0.211c0.817-4.28-1.843-6.123-4.49-9.798c-12.88-1.226-20.44-5.11-22.073-17.371
			c-28.196,19.004-46.369-8.375-54.549-11.445c-0.816-0.815,33.307,12.881,57.211-0.815c6.333,17.778,22.269,9.811,25.324,27.591
			V456.592z M581.396,112.539c0,0,0,0,0.198,0l0,0l0,0H581.396z M581.594,112.539c0,0,0,0-0.198,0
			C581.396,112.539,581.396,112.539,581.594,112.539z M422.437,94.763c-0.197-0.204-5.518,4.902-6.335,7.968
			c-0.605-0.613-39.222-19.409-72.322-0.204c0,0.204-0.611-3.678-6.538-7.968c0,0,3.885-2.045,11.237,0.612
			c0.208,0.204,28.809-12.87,62.937,0.408c0,0.204,5.714-2.86,11.021-0.612V94.763z M581.186,112.539c0,0,0,0,0.21,0l0,0l0,0
			H581.186z M581.396,112.539c0,0,0,0-0.21,0C581.186,112.539,581.186,112.539,581.396,112.539z M423.464,174.442
			c-4.293-2.656-8.587-5.518-13.485-5.518c-8.996-0.204-9.813,6.743-9.813,6.743c21.455-11.237,21.046,18.185,46.385-0.817
			c0.605-0.612-10.221,7.355-22.889-0.408H423.464z M402.215,126.226L402.215,126.226c0.205,0,0.205,0,0.408,0
			c0.205,0,0.205,0,0.408,0c2.245-0.612,3.682-1.634,6.132-3.271c6.123-4.494,1.633-5.31-6.54-8.171
			c-5.313-1.225-25.335-2.857-25.541-1.225v0.204h-0.203c-1.841,0.408-14.099-1.633-17.98-1.633
			c6.946-2.658,43.52-14.099,59.046,3.062c0.212,0.204-2.857,14.098-15.526,11.441L402.215,126.226z"/>
	</g>
</g>
</svg>
