<?xml version="1.0" encoding="utf-8"?>
<!-- Generator: Adobe Illustrator 16.0.0, SVG Export Plug-In . SVG Version: 6.00 Build 0)  -->
<!DOCTYPE svg PUBLIC "-//W3C//DTD SVG 1.0//EN" "http://www.w3.org/TR/2001/REC-SVG-20010904/DTD/svg10.dtd">
<svg version="1.0" id="Layer_1" xmlns="http://www.w3.org/2000/svg" xmlns:xlink="http://www.w3.org/1999/xlink" x="0px" y="0px"
	 width="800px" height="800px" viewBox="0 0 800 800" enable-background="new 0 0 800 800" xml:space="preserve">
<g id="g16">
	<g id="g22" transform="translate(192.2134,371.6133)">
		<path id="path24" fill="#1E218B" d="M207.789-303.03c207.564,0,375.824,148.377,375.824,331.417
			c0,183.033-168.26,331.417-375.824,331.417c-207.562,0-375.821-148.379-375.821-331.417
			C-168.032-154.653,0.227-303.03,207.789-303.03"/>
	</g>
	<g id="g26" transform="translate(73.4761,119.8555)">
		<path id="path28" fill="#C6A009" d="M58.456,517.123c-68.67-60.541-111.27-144.367-111.27-236.979
			c0-92.618,42.6-176.441,111.27-236.985c68.672-60.555,163.449-97.941,268.069-97.943v3.511v3.513
			c-102.939,0-196.076,36.801-263.42,96.19C-4.247,107.836-45.781,189.723-45.789,280.144
			c0.008,90.42,41.542,172.305,108.893,231.711c67.345,59.393,160.481,96.195,263.42,96.189
			c102.939,0.006,196.08-36.797,263.429-96.189c67.346-59.406,108.885-141.291,108.887-231.711
			c-0.002-90.421-41.541-172.308-108.887-231.714c-67.35-59.389-160.49-96.19-263.429-96.19v-3.513v-3.511
			c104.619,0.002,199.394,37.388,268.074,97.943c68.666,60.543,111.27,144.367,111.264,236.985
			c0.006,92.612-42.598,176.438-111.264,236.979c-68.68,60.563-163.455,97.949-268.074,97.949
			C221.905,615.072,127.128,577.686,58.456,517.123"/>
	</g>
	<g id="g30" transform="translate(219.4268,258.0781)">
		<path id="path32" fill="#C6A009" d="M242.019,66.834c-1.16-3.414-3.328-6.22-6.547-8.423c-3.203-2.2-6.58-3.322-10.104-3.376
			c-2.746-0.043-5.188,0.609-7.363,1.937c-2.164,1.343-3.273,3.262-3.299,5.75c-0.025,3.065,1.424,5.283,4.346,6.703
			c2.23,1.05,5.188,1.605,8.809,1.664c2.234,0.008,4.715-0.362,7.414-1.115C237.987,69.231,240.231,68.183,242.019,66.834
			 M204.165,203.055c0.186,0.238,0.32,0.615,0.447,1.133c0.072,0.354,0.133,0.674,0.117,0.92c-0.006,1.303-0.902,1.947-2.674,1.938
			c-0.984,0.086-3.912-0.094-8.779-0.564c-4.871-0.463-8.24-1.049-10.109-1.736c-3.154-0.053-7.869,0.17-14.195,0.641
			c-2.366,0.186-4.064,0.24-5.02,0.117c-1.675-0.047-2.514-0.723-2.49-2.08c0.006-0.586,0.146-1.023,0.453-1.355
			c0.297-0.459,2.427-2.416,6.394-5.871c3.08-2.68,4.616-5.096,4.634-7.268l1.628-218.678c0.016-3.516-0.82-6.077-2.59-7.71
			c-0.177-0.202-1.74-1.076-4.659-2.594c-0.984-0.462-1.472-1.043-1.467-1.726c0-0.571,0.599-1.467,1.778-2.701
			c2.913-1.772,5.461-3.376,7.763-4.837c1.675-0.998,4.169-2.656,7.43-5.002c3.291-2.333,7.766-6.006,13.426-11.046
			c2.771-2.464,4.471-3.86,5.068-4.185c0.994-0.318,1.676-0.222,2.068,0.361c0.387,0.584,0.381,1.393-0.018,2.379
			c-2.547,5.195-4.525,9.702-5.926,13.477c-1.393,3.782-2.102,7.438-2.135,10.962l-1.758,231.751
			c-0.027,2.146,1.449,4.566,4.4,7.207C201.895,200.516,203.974,202.662,204.165,203.055 M340.966,173.723
			c-0.031,4.881-2.34,8.709-6.871,11.482c-3.969,2.441-8.566,3.627-13.877,3.559c-12.168-0.162-23.154-3.9-32.982-11.172
			c-8.865-6.578-16.477-15.824-22.842-27.723c-3.256-6.275-6.016-14.208-8.285-23.77c-0.637-2.839-2.229-11.323-4.725-25.41
			c-1.764-10.027-3.662-18.002-5.66-23.93c-3.061,0.99-6.139,1.771-9.246,2.329c-3.094,0.597-6.139,0.872-9.084,0.831
			c-6.688-0.09-12.035-1.417-16.049-3.949c-4.785-3.043-7.148-7.478-7.09-13.393c0.066-5.204,2.463-9.332,7.215-12.326
			c4.055-2.553,8.865-3.797,14.488-3.717c5.197,0.066,10.225,1.354,15.066,3.867c4.848,2.49,8.701,6.228,11.635,11.141
			c9.725-5.537,18.061-14.352,24.955-26.403c7.566-13.152,11.445-27.228,11.613-42.207c0.195-22.004-6.145-40.489-19.039-55.411
			c-12.898-14.944-29.584-22.536-49.98-22.817c-10.893-0.145-19.264,0.261-25.066,1.193c-8.955,1.463-17.82,4.694-26.608,9.663
			c-6.21,3.545-11.664,7.97-16.335,13.241c-5.541,6.388-8.363,12.536-8.418,18.443c-0.127,1.354-0.176,2.254-0.186,2.711
			c-0.039,3.182,0.544,5.963,1.774,8.372c1.184,2.387,2.96,3.607,5.309,3.64c2.079,0.036,3.702-0.568,4.888-1.801
			c1.197-1.235,2.152-3.537,2.876-6.938c0.3-1.354,0.759-2.022,1.331-2.022c0.591,0.018,1.031,0.473,1.336,1.37
			c1.536,2.168,2.288,5.259,2.258,9.243c-0.055,4.535-1.565,8.364-4.543,11.501c-2.969,3.143-6.539,4.669-10.649,4.627
			c-4.82-0.071-8.711-2.286-11.652-6.641c-2.94-4.341-4.378-9.589-4.327-15.711c0.089-9.861,3.281-19.025,9.565-27.453
			c4.866-6.614,11.558-12.656,20.071-18.1c10.953-7.011,22.208-11.793,33.728-14.361c9.15-2.016,20.525-2.954,34.195-2.771
			c23.156,0.32,42.748,8.19,58.793,23.629c16.654,15.985,24.832,35.738,24.604,59.224c-0.205,19.64-5.885,37.588-17.031,53.899
			c-9.967,14.609-22.344,25.339-37.107,32.171c3.471,5.274,6.734,11.559,9.816,18.861c3.063,7.318,6.109,15.743,9.154,25.302
			c4.639,14.501,7.938,24.113,9.857,28.924c4.369,11.057,8.857,19.521,13.416,25.383c5.621,7.217,11.77,10.877,18.441,10.973
			c2.449,0.02,4.762-0.57,6.943-1.789c2.158-1.227,3.396-3.076,3.729-5.555c0.018-2.049-0.1-3.561-0.332-4.52
			c-0.232-0.973-0.654-1.869-1.271-2.752c-0.654-0.867-0.982-1.514-0.949-1.975c0.008-0.563,0.391-1.004,1.174-1.336
			c2.158-0.42,4.709,0.352,7.652,2.311C339.565,167.639,341.003,170.314,340.966,173.723"/>
	</g>
	<g id="g34" transform="translate(168.394,257.3438)">
		<path id="path36" fill="#C6A009" d="M177.835,69.227c2.691,0.838,5.156,1.262,7.405,1.293c3.609,0.054,6.574-0.416,8.824-1.4
			c2.964-1.329,4.465-3.518,4.482-6.584c0.045-2.495-1.02-4.427-3.153-5.827c-2.165-1.385-4.604-2.091-7.349-2.149
			c-3.523-0.044-6.91,0.984-10.186,3.09c-3.245,2.122-5.465,4.866-6.688,8.254C172.916,67.292,175.143,68.412,177.835,69.227
			 M213.791,196.85c3.007-2.584,4.527-4.941,4.543-7.107l1.755-231.756c0.037-3.502-0.602-7.178-1.919-11.015
			c-1.307-3.814-3.185-8.353-5.624-13.602c-0.382-1.032-0.382-1.825,0-2.389c0.412-0.565,1.111-0.663,2.083-0.312
			c0.588,0.346,2.255,1.766,4.986,4.313c5.565,5.202,9.957,8.998,13.197,11.413c3.219,2.413,5.678,4.168,7.332,5.214
			c2.242,1.505,4.799,3.181,7.633,5.039c1.176,1.271,1.768,2.181,1.754,2.767c0,0.662-0.506,1.239-1.5,1.668
			c-2.951,1.429-4.549,2.256-4.717,2.491c-1.807,1.56-2.705,4.102-2.725,7.625l-1.627,218.673c-0.045,2.158,1.459,4.607,4.465,7.381
			c3.914,3.561,5.99,5.584,6.273,6.045c0.326,0.342,0.445,0.791,0.445,1.361c-0.021,1.367-0.871,2.049-2.545,2.02
			c-0.99,0.094-2.643,0.02-5.002-0.254c-6.326-0.643-11.038-0.998-14.178-1.02c-1.884,0.627-5.279,1.137-10.16,1.465
			c-4.87,0.318-7.808,0.422-8.785,0.309c-1.773-0.033-2.648-0.693-2.648-1.998c0.005-0.244,0.071-0.545,0.179-0.934
			c0.105-0.496,0.242-0.855,0.449-1.113C207.669,202.769,209.767,200.664,213.791,196.85 M74.555,162.127
			c2.961-1.885,5.519-2.59,7.678-2.117c0.773,0.367,1.174,0.818,1.174,1.381c-0.01,0.457-0.36,1.111-0.989,1.967
			c-0.645,0.822-1.084,1.732-1.34,2.689c-0.261,0.965-0.394,2.455-0.415,4.51c0.253,2.494,1.47,4.379,3.616,5.654
			c2.139,1.285,4.448,1.947,6.889,1.965c6.667,0.09,12.904-3.408,18.642-10.447c4.686-5.73,9.336-14.076,13.935-25.014
			c2.008-4.74,5.506-14.287,10.477-28.621c3.229-9.491,6.467-17.834,9.664-25.056c3.207-7.23,6.614-13.42,10.185-18.589
			c-14.623-7.242-26.771-18.295-36.424-33.189c-10.828-16.585-16.123-34.719-15.92-54.343c0.241-23.494,8.816-43.002,25.791-58.546
			c16.344-14.988,36.093-22.306,59.25-22.006c13.681,0.197,25.04,1.424,34.141,3.698c11.455,2.885,22.592,7.974,33.432,15.272
			c8.389,5.675,14.926,11.907,19.684,18.665c6.107,8.594,9.094,17.82,8.992,27.693c-0.061,6.133-1.613,11.321-4.65,15.585
			c-3.016,4.277-6.957,6.382-11.777,6.336c-4.115-0.083-7.631-1.716-10.561-4.928c-2.898-3.225-4.33-7.105-4.283-11.636
			c0.043-3.971,0.865-7.033,2.436-9.155c0.309-0.902,0.766-1.362,1.338-1.362c0.584,0.035,1.037,0.707,1.322,2.057
			c0.654,3.434,1.557,5.759,2.734,7.029c1.152,1.274,2.768,1.914,4.852,1.945c2.33,0.021,4.139-1.126,5.377-3.508
			c1.271-2.363,1.91-5.136,1.934-8.309c0-0.468-0.023-1.368-0.123-2.718c0.072-5.905-2.615-12.124-8.021-18.682
			c-4.578-5.374-9.938-9.938-16.09-13.655c-8.684-5.227-17.482-8.701-26.393-10.405c-5.773-1.101-14.129-1.742-25.019-1.87
			c-20.438-0.29-37.229,6.859-50.441,21.449c-13.205,14.551-19.929,32.86-20.162,54.867c-0.145,14.984,3.435,29.154,10.743,42.534
			c6.634,12.221,14.772,21.25,24.417,27.059c3.005-4.836,6.947-8.446,11.846-10.824c4.883-2.376,9.942-3.533,15.155-3.447
			c5.579,0.082,10.386,1.441,14.411,4.118c4.681,3.134,7.01,7.298,6.951,12.511c-0.052,5.9-2.54,10.291-7.364,13.173
			c-4.06,2.442-9.437,3.624-16.132,3.513c-2.942-0.022-5.972-0.37-9.068-1.042c-3.082-0.673-6.15-1.541-9.193-2.595
			c-2.133,5.875-4.174,13.785-6.119,23.749c-2.797,14.022-4.548,22.463-5.271,25.294c-2.451,9.49-5.361,17.351-8.775,23.549
			c-6.601,11.688-14.371,20.729-23.375,27.061c-9.993,7.033-21.064,10.453-33.212,10.279c-5.301-0.061-9.89-1.373-13.805-3.916
			c-4.471-2.904-6.697-6.785-6.651-11.684C70.092,166.666,71.589,164.021,74.555,162.127"/>
	</g>
	<g id="g38" transform="translate(105.1094,294.7656)">
		<path id="path40" fill="#C6A009" d="M98.241-52.682c2.463,1.429,4.799,3.146,5.56,3.755c1.137,0.04,16.624,15.857,16.421,34.162
			c0,0,1.758,29.342-21.958,49.375c0,0-14.8,16.665-44.218,9.926l-0.546,1.551c0,0,26.659,9.263,47.844-7.708
			c0,0,29.579-20.289,31.494-57.374c0,0-1.832-30.524-19.399-44.861c0,0-22.782-20.507-53.485-22.552c0,0-1.944-4.401-5.022-1.973
			c0,0-3.735-2.351-4.944-5.547c-0.176-0.455-0.905-1.546-1.677-1.529c-1.519,0.03-3.919,0.614-4.683,3.867
			c-1.147,4.901-4.932,23.703,2.153,36.566c2.922,3.029,5.096-0.857,5.096-0.857s1.181-2.439,2.603-2.756
			c0,0,1.548,1.938,3.757,0.465c2.201-1.467,2.11-3.284,2.11-3.284s17.583-4.069,33.865,6.145
			C93.212-55.311,95.794-54.134,98.241-52.682"/>
	</g>
	<g id="g42" transform="translate(110.6567,292.542)">
		<path id="path44" fill="#1E218B" d="M105.216-45.438C76.232-74.98,46.11-60.69,46.11-60.69l-0.4,1.934
			c-0.17,2.116-3.323,2.661-3.323,2.661c-7.832-7.748-2.164-33.455-2.164-33.455l0.33-1.804c-0.854,0.495-1.419,1.346-1.71,2.536
			c-1.229,5.253-4.744,23.295,1.978,35.656c0.553,0.545,1.08,0.793,1.557,0.744c0.865-0.095,1.623-1.116,1.816-1.438
			c0.239-0.486,1.5-2.909,3.295-3.293l0.596-0.125l0.391,0.472c0.022,0.03,0.614,0.721,1.483,0.634
			c0.311-0.036,0.619-0.167,0.955-0.382c1.633-1.087,1.635-2.31,1.65-2.368v-0.868l0.789-0.192c0.05,0,1.344-0.308,3.563-0.542
			c6.429-0.691,18.993-0.716,30.981,6.781c0.408,0.194,2.761,1.295,5.068,2.641c2.525,1.482,4.91,3.233,5.681,3.842l-0.118-0.039
			c3.253,1.841,17.132,17.441,16.93,34.987c0.015,0.306,1.527,30.075-22.28,50.222c-0.802,0.889-9.236,9.664-25.459,11.49
			c17.563-1.014,30.395-14.997,30.395-14.997C108.891,26.558,134.203-15.896,105.216-45.438"/>
	</g>
	<g id="g46" transform="translate(117.7861,240.9126)">
		<path id="path48" fill="#C6A009" d="M114.185,122.755c-0.035-0.008-0.103-0.008-0.103-0.008c-0.519,0.056-0.871,0.827-0.884,1.15
			c-0.02,0.41,0.366,0.764,0.903,0.806c0.064,0,0.131-0.012,0.19-0.019c0.435-0.044,0.748-0.337,0.761-0.681
			c0.014-0.244-0.137-0.7-0.374-0.983C114.531,122.862,114.356,122.759,114.185,122.755 M114.398,114.423
			c-0.021-0.005-0.042,0-0.07,0c-0.532,0.05-0.882,0.845-0.882,1.174c-0.01,0.421,0.396,0.759,0.916,0.768
			c0.678,0.024,0.695,0.02,0.695,0.02l0.231-0.02l0.013-0.251l0.015-0.47c0-0.239-0.174-0.695-0.421-0.959
			C114.709,114.474,114.516,114.423,114.398,114.423 M113.979,126.905h-0.099c-0.522,0.064-0.88,0.818-0.899,1.134
			c-0.033,0.418,0.361,0.768,0.887,0.811c0.064,0.002,0.139,0.002,0.206,0c0.435-0.047,0.748-0.316,0.769-0.663
			c0.01-0.255-0.132-0.708-0.369-0.994C114.285,126.979,114.101,126.923,113.979,126.905 M114.309,118.589h-0.076
			c-0.524,0.06-0.875,0.839-0.88,1.162c-0.011,0.205,0.094,0.423,0.3,0.572c0.162,0.116,0.373,0.19,0.613,0.195
			c0.058,0,0.112,0.014,0.167,0c0.451-0.036,0.765-0.334,0.783-0.69c0-0.252-0.159-0.693-0.395-0.971
			C114.662,118.686,114.492,118.589,114.309,118.589 M113.353,135.215c-0.103-0.002-0.181-0.002-0.264,0
			c-0.416,0.052-0.708,0.298-0.74,0.634c-0.041,0.35,0.235,1.234,0.797,1.305c0.09,0.003,0.177,0.006,0.267,0
			c0.076-0.006,0.151-0.023,0.206-0.04c0.05,0.079,0.154,0.133,0.249,0.119c0.139-0.02,0.245-0.146,0.234-0.305
			c0-0.042-0.028-0.086-0.048-0.125c0.048-0.081,0.08-0.175,0.097-0.274c0.021-0.244-0.107-0.701-0.329-0.999
			C113.653,135.293,113.466,135.233,113.353,135.215 M112.297,143.468c-0.122-0.011-0.232-0.011-0.334-0.005
			c-0.372,0.044-0.65,0.259-0.697,0.563c-0.067,0.354,0.154,1.247,0.703,1.364c0.124,0.021,0.246,0.031,0.36,0.021
			c0.042-0.009,0.075-0.017,0.117-0.029c0.059,0.096,0.154,0.159,0.271,0.137c0.137-0.014,0.237-0.146,0.231-0.296
			c-0.011-0.049-0.021-0.086-0.045-0.126c0.051-0.065,0.108-0.159,0.116-0.252c0.048-0.245-0.054-0.713-0.255-1.028
			C112.599,143.579,112.42,143.507,112.297,143.468 M111.552,147.572c-0.056-0.019-0.116-0.022-0.186-0.019
			c-0.472,0.057-0.895,0.664-0.962,0.973c-0.089,0.392,0.232,0.803,0.741,0.94c0.142,0.029,0.279,0.04,0.407,0.029
			c0.344-0.04,0.609-0.252,0.661-0.526c0.051-0.245-0.015-0.723-0.206-1.046C111.858,147.682,111.685,147.594,111.552,147.572
			 M112.883,139.361c-0.045-0.008-0.097-0.014-0.146-0.008c-0.488,0.05-0.885,0.72-0.936,1.043
			c-0.052,0.417,0.309,0.798,0.833,0.882c0.094,0.02,0.203,0.025,0.301,0.016c0.4-0.047,0.67-0.285,0.717-0.603
			c0.029-0.248-0.082-0.715-0.3-1.015C113.188,139.449,113.01,139.372,112.883,139.361 M114.413,110.241c0,0-0.03,0-0.051,0.008
			c-0.52,0.054-0.874,0.858-0.874,1.185c0,0.419,0.412,0.751,0.93,0.756c0.054,0,0.097-0.004,0.144-0.005
			c0.46-0.049,0.783-0.351,0.783-0.72c0-0.251-0.165-0.696-0.402-0.974C114.776,110.334,114.605,110.249,114.413,110.241
			 M110.611,151.614c-0.064-0.025-0.139-0.03-0.213-0.025c-0.466,0.047-0.909,0.606-0.994,0.887
			c-0.106,0.396,0.196,0.838,0.691,1.002c0.156,0.05,0.31,0.074,0.466,0.05c0.318-0.039,0.542-0.203,0.626-0.471
			c0.078-0.238,0.025-0.722-0.146-1.053C110.907,151.744,110.73,151.647,110.611,151.614 M113.709,131.063h-0.122
			c-0.511,0.062-0.871,0.798-0.905,1.114c-0.028,0.212,0.074,0.419,0.265,0.583c0.157,0.145,0.375,0.221,0.6,0.249
			c0.089,0.005,0.162,0.005,0.244,0c0.419-0.054,0.726-0.304,0.752-0.646c0.02-0.252-0.114-0.706-0.355-1.005
			C114.006,131.146,113.821,131.087,113.709,131.063 M113.564,81.057l-0.022,0.002l-0.012-0.002
			c-0.547,0.062-0.856,0.906-0.83,1.248c0.017,0.419,0.447,0.722,0.962,0.698l0.675-0.036l0.261-0.014l-0.026-0.277l-0.016-0.457
			c-0.004-0.256-0.199-0.694-0.473-0.94C113.91,81.127,113.742,81.053,113.564,81.057 M112.709,68.559
			c-0.56,0.059-0.85,0.915-0.835,1.263c0.042,0.418,0.475,0.713,0.994,0.678l0.044-0.008c0.5-0.046,0.86-0.397,0.83-0.813
			c-0.025-0.239-0.213-0.665-0.497-0.915C113.088,68.618,112.902,68.546,112.709,68.559 M113.01,72.72
			c-0.56,0.063-0.849,0.919-0.825,1.269c0.028,0.413,0.449,0.715,0.978,0.675h0.048c0.497-0.051,0.861-0.397,0.826-0.804
			c-0.012-0.235-0.196-0.669-0.491-0.929C113.392,72.783,113.202,72.712,113.01,72.72 M111.991,60.215
			c-0.518,0.063-0.889,0.396-0.846,0.789c0.027,0.293,0.462,1.207,1.04,1.158l0.667-0.065l0.259-0.016l-0.023-0.278l-0.04-0.505
			C113.01,60.941,112.584,60.166,111.991,60.215 M112.371,64.399c-0.565,0.053-0.847,0.91-0.818,1.251
			c0.038,0.425,0.47,0.718,0.988,0.679l0.038-0.007c0.498-0.05,0.868-0.413,0.834-0.815
			C113.375,65.146,112.947,64.349,112.371,64.399 M114.413,106.069c-0.051,0-0.085,0.01-0.128,0.01
			c-0.463,0.049-0.796,0.359-0.796,0.734c0,0.359,0.379,1.202,0.94,1.202c0.044,0.003,0.087,0,0.134,0
			c0.117-0.015,0.234-0.041,0.321-0.094c0.067,0.073,0.139,0.111,0.23,0.097c0.14-0.009,0.257-0.147,0.232-0.296
			c0-0.066-0.024-0.125-0.062-0.16c0.045-0.087,0.062-0.182,0.069-0.275c-0.007-0.253-0.172-0.705-0.426-0.96
			C114.762,106.155,114.59,106.079,114.413,106.069 M114.356,101.901c-0.021,0.004-0.054,0.008-0.054,0.008
			c-0.536,0.062-0.856,0.868-0.856,1.207c0,0.414,0.426,0.733,0.937,0.725c0.045,0.007,0.089,0,0.132,0
			c0.455-0.053,0.801-0.361,0.801-0.747c-0.015-0.243-0.192-0.692-0.441-0.946C114.709,101.979,114.533,101.901,114.356,101.901
			 M113.79,85.233h-0.031h-0.008c-0.548,0.059-0.868,0.892-0.838,1.233c0.023,0.419,0.44,0.729,0.988,0.699c0,0,0.017,0,0.048-0.002
			c0.484-0.054,0.848-0.383,0.828-0.771c-0.015-0.254-0.214-0.681-0.485-0.937C114.133,85.3,113.948,85.221,113.79,85.233
			 M114.266,97.73l-0.033,0.019h-0.023c-0.527,0.044-0.853,0.864-0.853,1.199c0.018,0.417,0.433,0.739,0.952,0.725
			c0.048,0,0.075,0,0.11-0.002c0.477-0.046,0.814-0.365,0.808-0.753c-0.011-0.245-0.187-0.692-0.45-0.946
			C114.616,97.815,114.433,97.73,114.266,97.73 M114.133,93.56h-0.032c-0.555,0.069-0.866,0.891-0.856,1.234
			c0.016,0.412,0.428,0.725,0.951,0.717c0.037,0,0.07-0.007,0.096-0.007c0.485-0.054,0.833-0.383,0.822-0.766
			c-0.017-0.241-0.198-0.685-0.467-0.939C114.492,93.638,114.309,93.56,114.133,93.56 M113.979,89.4h-0.035h-0.005
			c-0.542,0.053-0.862,0.895-0.842,1.233c0.007,0.42,0.445,0.727,0.957,0.704c0.029,0,0.055,0,0.085-0.007
			c0.487-0.049,0.824-0.377,0.812-0.764C114.943,90.21,114.551,89.373,113.979,89.4 M113.282,76.887
			c-0.554,0.06-0.854,0.912-0.832,1.258c0.031,0.413,0.462,0.726,0.972,0.687l0.066-0.006c0.49-0.048,0.848-0.391,0.82-0.789
			c-0.017-0.248-0.208-0.672-0.487-0.936C113.661,76.954,113.488,76.877,113.282,76.887 M81.197,127.225L81.197,127.225
			c0.538-0.062,0.854-0.815,0.822-1.175l-0.063-0.485c-0.037-0.305-0.367-0.343-0.96-0.271c-0.686,0.068-0.919,0.191-0.888,0.468
			l0.007,0.095l0.045,0.395C80.201,126.607,80.679,127.28,81.197,127.225 M80.77,123.074h0.015c0.562-0.052,0.838-0.929,0.803-1.277
			c-0.035-0.416-0.477-0.694-1.001-0.66l-0.649,0.056l-0.274,0.022l0.026,0.287l0.044,0.455c0.015,0.247,0.226,0.676,0.512,0.917
			C80.457,123.058,80.647,123.085,80.77,123.074 M81.694,131.359h0.023c0.561-0.07,0.813-0.96,0.762-1.314
			c-0.043-0.405-0.493-0.672-1.011-0.62l-0.671,0.087l-0.096,0.016l-0.072,0.084c-0.07,0.096-0.07,0.096,0.007,0.671
			C80.679,130.633,81.136,131.418,81.694,131.359 M80.408,118.923h0.02c0.554-0.058,0.837-0.92,0.824-1.27
			c-0.024-0.208-0.154-0.409-0.36-0.53c-0.176-0.108-0.399-0.162-0.625-0.141l-0.346,0.032c-0.187,0.01-0.317,0.01-0.336,0.01
			l-0.248,0.029l0.02,0.276l0.035,0.457c0.013,0.243,0.22,0.685,0.49,0.927C80.099,118.902,80.287,118.927,80.408,118.923
			 M82.278,135.499l0.025-0.014h0.01c0.556-0.083,0.791-0.973,0.729-1.331c-0.054-0.397-0.467-0.656-0.98-0.594l-0.043,0.006
			c-0.299,0.038-0.54,0.181-0.689,0.39c-0.101,0.147-0.143,0.322-0.121,0.491C81.265,134.777,81.734,135.549,82.278,135.499
			 M79.472,98.105h0.042h0.005c0.588-0.066,0.884-1.264,0.884-1.416c0-0.107-0.047-0.315-0.38-0.436
			c-0.148-0.059-0.345-0.096-0.551-0.096h-0.248c-0.43,0.049-0.69,0.238-0.69,0.507c0,0.168,0.205,0.899,0.531,1.239
			C79.185,98.039,79.337,98.105,79.472,98.105 M82.972,139.604l0.035-0.002h0.003c0.564-0.118,0.77-1.003,0.701-1.359
			c-0.053-0.375-0.475-0.621-0.945-0.571c-0.035,0.01-0.064,0.01-0.092,0.01c-0.292,0.05-0.537,0.208-0.672,0.423
			c-0.11,0.154-0.149,0.311-0.118,0.48C81.945,138.909,82.423,139.663,82.972,139.604 M79.556,102.271h0.028h0.019
			c0.536-0.062,0.854-0.891,0.849-1.226c-0.015-0.212-0.122-0.417-0.324-0.55c-0.188-0.106-0.404-0.17-0.619-0.167h-0.117
			c-0.47,0.06-0.815,0.362-0.798,0.741c0.002,0.248,0.193,0.705,0.445,0.972C79.245,102.233,79.424,102.28,79.556,102.271
			 M109.403,155.57c-0.08-0.032-0.185-0.049-0.296-0.032c-0.42,0.044-0.867,0.499-0.986,0.785c-0.153,0.368,0.119,0.839,0.59,1.047
			c0.185,0.086,0.384,0.109,0.567,0.098c0.272-0.029,0.485-0.172,0.578-0.402c0.086-0.228,0.086-0.71-0.071-1.063
			C109.684,155.728,109.515,155.622,109.403,155.57 M80.107,114.771l0.021-0.002h0.011c0.547-0.065,0.843-0.917,0.826-1.268
			c-0.018-0.206-0.137-0.404-0.348-0.529c-0.179-0.107-0.404-0.161-0.631-0.141c-0.025-0.003-0.046,0-0.064,0
			c-0.489,0.053-0.841,0.394-0.818,0.792c0.018,0.238,0.219,0.681,0.482,0.931C79.801,114.745,79.985,114.779,80.107,114.771
			 M79.677,106.438h0.029h0.017c0.543-0.051,0.849-0.899,0.849-1.238c-0.014-0.402-0.445-0.715-0.961-0.707l-0.442,0.017
			c-0.146,0.005-0.233,0.005-0.233,0.005l-0.249,0.023v0.261l0.016,0.456c0.019,0.25,0.197,0.69,0.465,0.962
			C79.374,106.415,79.563,106.443,79.677,106.438 M79.863,110.608h0.025h0.008c0.542-0.068,0.857-0.913,0.837-1.25
			c-0.007-0.215-0.129-0.414-0.331-0.544c-0.181-0.1-0.4-0.154-0.626-0.15c-0.038,0-0.062,0-0.086,0.013
			c-0.472,0.046-0.831,0.377-0.813,0.755c0.018,0.246,0.203,0.692,0.479,0.948C79.556,110.571,79.749,110.61,79.863,110.608
			 M97.939,165.185h-0.107c-0.298,0.035-0.995,0.285-1.074,0.822c-0.052,0.303,0.012,0.584,0.152,0.799
			c0.121,0.156,0.272,0.248,0.445,0.273c0.042,0.006,0.106,0.006,0.171,0c0.365-0.045,1.085-0.348,1.085-0.902
			C98.603,165.642,98.307,165.197,97.939,165.185 M101.231,164.697c-0.064,0.002-0.103,0.02-0.154,0.033
			c-0.352,0.107-0.516,0.615-0.378,1.143l0.189,0.656l0.075,0.283l0.268-0.08l0.435-0.148c0.239-0.078,0.594-0.406,0.758-0.771
			c0.114-0.258,0.079-0.461,0.039-0.576C102.276,164.763,101.617,164.66,101.231,164.697 M104.96,162.617
			c-0.296,0.037-0.646,0.176-0.793,0.336c-0.278,0.262-0.225,0.791,0.125,1.199c0.228,0.264,0.54,0.414,0.798,0.379
			c0.149-0.016,0.263-0.068,0.357-0.162c0.185-0.176,0.371-0.625,0.358-1.027c0-0.293-0.104-0.455-0.199-0.539
			C105.446,162.656,105.238,162.585,104.96,162.617 M94.623,164.076c-0.196-0.117-0.563-0.178-0.85-0.146
			c-0.271,0.027-0.472,0.133-0.586,0.303c-0.171,0.238-0.236,0.521-0.205,0.775c0.035,0.189,0.135,0.354,0.279,0.457
			c0.187,0.141,0.557,0.207,0.877,0.178c0.375-0.037,0.547-0.223,0.621-0.371C95.013,164.791,94.949,164.277,94.623,164.076
			 M107.798,159.371c-0.118-0.073-0.247-0.101-0.394-0.083c-0.412,0.042-0.837,0.398-0.974,0.615
			c-0.189,0.348-0.013,0.838,0.44,1.127c0.214,0.15,0.444,0.209,0.674,0.195c0.208-0.031,0.394-0.135,0.482-0.314
			c0.131-0.203,0.206-0.691,0.095-1.059C108.061,159.566,107.912,159.431,107.798,159.371 M89.73,158.238
			c-0.147-0.265-0.688-0.717-1.153-0.674c-0.073,0.015-0.145,0.038-0.216,0.071c-0.252,0.146-0.451,0.359-0.515,0.609
			c-0.057,0.181-0.042,0.356,0.035,0.506c0.131,0.267,0.676,0.727,1.152,0.672c0.075-0.007,0.16-0.035,0.226-0.077
			C89.722,159.076,89.914,158.587,89.73,158.238 M84.819,147.729c0.544-0.148,0.691-1.056,0.616-1.395
			c-0.091-0.351-0.466-0.566-0.919-0.518c-0.044,0.009-0.109,0.013-0.167,0.032c-0.286,0.073-0.522,0.242-0.644,0.466
			c-0.094,0.155-0.114,0.328-0.074,0.493c0.074,0.311,0.571,0.997,1.099,0.942C84.768,147.743,84.794,147.741,84.819,147.729
			 M86.002,151.727c0.537-0.186,0.624-1.099,0.527-1.427c-0.094-0.338-0.452-0.517-0.86-0.475c-0.086,0.008-0.159,0.018-0.233,0.044
			c-0.291,0.08-0.509,0.272-0.625,0.498c-0.091,0.16-0.091,0.345-0.056,0.496c0.11,0.35,0.645,0.944,1.126,0.891
			C85.928,151.744,85.963,151.738,86.002,151.727 M83.853,143.678c0.546-0.122,0.722-1.024,0.647-1.369
			c-0.068-0.375-0.466-0.597-0.926-0.544c-0.05,0-0.086,0-0.141,0.016c-0.286,0.066-0.522,0.217-0.659,0.436
			c-0.099,0.155-0.129,0.32-0.099,0.49c0.074,0.324,0.567,1.042,1.113,0.991C83.8,143.686,83.827,143.686,83.853,143.678
			 M90.771,161.078c-0.128,0.014-0.236,0.057-0.333,0.127c-0.229,0.191-0.383,0.443-0.41,0.688c-0.02,0.195,0.018,0.369,0.116,0.51
			c0.205,0.252,0.729,0.516,1.117,0.475c0.146-0.02,0.273-0.064,0.36-0.16c0.392-0.359,0.509-0.877,0.251-1.189
			C91.696,161.324,91.177,161.039,90.771,161.078 M87.869,154.156c-0.115-0.301-0.442-0.456-0.812-0.421
			c-0.103,0.021-0.223,0.046-0.313,0.083c-0.272,0.112-0.487,0.307-0.587,0.547c-0.069,0.162-0.079,0.347-0.017,0.501
			c0.122,0.306,0.656,0.845,1.145,0.799c0.053-0.007,0.125-0.017,0.174-0.043C87.965,155.386,87.992,154.483,87.869,154.156"/>
	</g>
	<g id="g50" transform="translate(121.2217,278.3809)">
		<path id="path52" fill="#C6A009" d="M118.506,0.693c-0.229-1.104-0.659-1.449-0.659-1.449c-0.405-0.331-0.479-0.986-0.161-1.444
			c0,0,0.731-1.063,0.428-2.503c-0.029-0.191-0.078-0.375-0.12-0.568c-0.308-1.471-1.213-2.354-2.028-2.039
			c-4.054,1.577-8.284,1.93-12.547,1.068c-0.857-0.18-1.602,0.836-1.649,2.343c-0.01,0.191-0.01,0.385-0.019,0.582
			c-0.049,1.472,0.853,2.396,0.853,2.396c0.385,0.395,0.427,1.05,0.083,1.449c0,0-0.365,0.414-0.403,1.541
			c-0.009,0.186-0.009,0.382-0.021,0.579c-0.058,1.507,0.688,2.94,1.644,3.136c4.624,0.964,9.233,0.564,13.646-1.146
			c0.905-0.35,1.376-1.89,1.065-3.367C118.585,1.079,118.545,0.888,118.506,0.693"/>
	</g>
	<g id="g54" transform="translate(110.1787,302.3706)">
		<path id="path56" fill="#C6A009" d="M104.617-77.458c-1.296-0.621-2.014-0.392-2.014-0.392c-0.667,0.212-1.379-0.221-1.58-0.954
			c0,0-0.485-1.721-2.173-2.529c-0.229-0.092-0.444-0.208-0.674-0.313c-1.737-0.83-3.367-0.459-3.717,0.745
			c-1.72,5.994-4.819,11.23-9.173,15.511c-0.89,0.865-0.472,2.553,1.009,3.818c0.188,0.173,0.375,0.327,0.571,0.493
			c1.437,1.24,3.114,0.922,3.114,0.922c0.719-0.131,1.405,0.337,1.517,1.069c0,0,0.133,0.757,1.238,1.712
			c0.182,0.165,0.38,0.325,0.569,0.485c1.474,1.262,3.526,1.563,4.496,0.604c4.747-4.664,8.132-10.359,10.006-16.888
			c0.382-1.35-0.789-3.142-2.525-3.967C105.059-77.246,104.838-77.349,104.617-77.458"/>
	</g>
	<g id="g58" transform="translate(81.5396,310.8687)">
		<path id="path60" fill="#C6A009" d="M68.598-105.142c0,0-4.097,15.438,1.218,29.37C69.816-75.772,66.757-95.446,68.598-105.142"/>
	</g>
	<g id="g62" transform="translate(88.3057,309.2021)">
		<path id="path64" fill="#C6A009" d="M77.105-99.712c0,0-0.736,7.806,0.865,12.123c1.613,4.339-2.91,0.92-2.91,0.92
			s-7.314-6.646-7.054-6.895c0.259-0.245,2.218-2.714,2.269-2.937"/>
	</g>
	<g id="g66" transform="translate(85.7227,302.0103)">
		<path id="path68" fill="#C6A009" d="M73.858-76.284c-0.92-8.59,1.636-14.73,1.636-14.73s-0.563,7.279-0.845,9.622
			c-0.302,2.389,0.28,9.337,0.28,9.337S74.007-74.903,73.858-76.284"/>
	</g>
	<g id="g70" transform="translate(120.2383,280.5063)">
		<path id="path72" fill="#1E218B" d="M117.268-6.231c0.054,0.572-0.645,0.81-0.645,0.81c-4.925,1.325-11.007-0.091-11.007-0.091
			s4.173-0.165,5.556-0.188c1.431-0.02,5.225-1.167,5.225-1.167S117.198-6.8,117.268-6.231"/>
	</g>
	<g id="g74" transform="translate(120.5156,277.8916)">
		<path id="path76" fill="#1E218B" d="M117.616,2.289c0.055,0.554-0.646,0.805-0.646,0.805c-4.924,1.329-10.995-0.086-10.995-0.086
			s4.162-0.178,5.56-0.198c1.412-0.022,5.222-1.167,5.222-1.167S117.552,1.724,117.616,2.289"/>
	</g>
	<g id="g78" transform="translate(103.8735,252.1709)">
		<path id="path80" fill="#C6A009" d="M96.686,86.077c0.363-0.261,0.425-0.472,0.425-0.472c0.064-0.198,0.275-0.33,0.49-0.292
			c0,0,0.499,0.088,0.969-0.25c0.06-0.046,0.122-0.091,0.181-0.138c0.485-0.355,0.669-0.801,0.435-1.052
			c-1.153-1.178-1.9-2.626-2.204-4.283c-0.063-0.333-0.537-0.443-1.095-0.206c-0.071,0.03-0.137,0.06-0.212,0.087
			c-0.517,0.22-0.723,0.694-0.723,0.694c-0.092,0.202-0.323,0.321-0.517,0.259c0,0-0.194-0.059-0.615,0.121
			c-0.063,0.016-0.141,0.052-0.208,0.071c-0.544,0.236-0.962,0.724-0.892,1.096c0.34,1.804,1.143,3.375,2.408,4.663
			c0.263,0.265,0.883,0.19,1.36-0.159C96.564,86.171,96.62,86.125,96.686,86.077"/>
	</g>
	<g id="g82" transform="translate(104.1362,253.2944)">
		<path id="path84" fill="#C6A009" d="M97.018,82.419c-1.166-1.407-1.25-2.975-1.25-2.975s0.681,1.427,0.857,1.904
			c0.199,0.483,1.104,1.653,1.104,1.653S97.197,82.644,97.018,82.419"/>
	</g>
	<g id="g86" transform="translate(103.2476,252.8516)">
		<path id="path88" fill="#C6A009" d="M95.898,83.86c-1.161-1.411-1.242-2.976-1.242-2.976s0.671,1.428,0.867,1.907
			c0.202,0.479,1.091,1.656,1.091,1.656S96.09,84.087,95.898,83.86"/>
	</g>
	<g id="g90" transform="translate(109.7188,301.1006)">
		<path id="path92" fill="#1E218B" d="M104.038-73.32c0.475,0.265,0.289,1.016,0.289,1.016c-1.626,5.027-6.046,9.519-6.046,9.519
			s2.126-3.716,2.867-4.938c0.756-1.252,1.912-5.2,1.912-5.2S103.549-73.581,104.038-73.32"/>
	</g>
	<g id="g94" transform="translate(107.0078,302.8193)">
		<path id="path96" fill="#1E218B" d="M100.627-78.921c0.482,0.262,0.303,1.014,0.303,1.014c-1.621,5.029-6.051,9.525-6.051,9.525
			s2.127-3.716,2.866-4.942c0.758-1.257,1.898-5.206,1.898-5.206S100.138-79.186,100.627-78.921"/>
	</g>
	<g id="g98" transform="translate(77.1777,261.1187)">
		<path id="path100" fill="#C6A009" d="M63.109,56.931c-2.719,0.698-5.462,1.051-8.26,1.069
			C52.365,55.787,63.873,57.093,63.109,56.931"/>
	</g>
	<g id="g102" transform="translate(76.0972,260.3125)">
		<path id="path104" fill="#C6A009" d="M61.752,59.555c-2.609,1.506-11.518,4.823-12.521-0.594
			C53.066,60.926,57.729,59.941,61.752,59.555"/>
	</g>
	<g id="g106" transform="translate(83.0093,259.8325)">
		<path id="path108" fill="#C6A009" d="M70.445,61.119c4.444,0.246,11.54-1.653,10.172,4.346c6.253,3.685,0.204,10.25-5.092,9.687
			c-4.228-0.445-8.691,4.895-5.925,9.312c3.432,2.665,14.01-3.232,14.419,4.338c-4.088-1.027-6.567-0.259-10.573-1.814
			c-0.536,1.317,1.611,3.581,2.276,4.48c-2.514,0.656-3.921-2.19-4.982-3.758c-1.511,1.021-1.337,2.549,0.511,4.575
			c-2.313-0.647-3.81-2.117-4.485-4.436c-1.326,0.136-1.731,1.205-1.235,3.207c-2.691-0.517-0.339-4.4-1.794-5.247
			c-1.32,1.244-2.087,4.216-4.726,3.134c0.854-0.543,6.4-9.097,6.501-10.176c-0.76-0.461-4.941,3.082-7.291,2.302
			c3.381-0.551,3.902-7.899,8.162-4.417c1.411-0.298-0.677-3.746-2.054-2.858c-0.862,0.499,0.917,0.651,0.945,1.052
			c-4.299-1.169-2.376,0.623-4.299,1.552c0.675-5.424-4.168-5.878-7.953-6.495c2.766-1.664,5.775-2.414,9.024-2.209
			c-4.877,5.05,4.247-1.013,2.094,5.269c2.694-2.417,3.741-1.264,5.133-4.036c0.66-6.322,5.21-3.864,8.54-3.036
			c-0.278,0.422,0.933-1.828,1.026-1.476c-1.57-1.083-5.596-1.667-7.346-0.875c-4.535,2.521-6.696,0.423-12.104,2.325
			c-7.124,2.5-18.529,6.436-22.168-3.905C49.084,69.581,58.986,53.881,70.445,61.119"/>
	</g>
	<g id="g110" transform="translate(81.79,257.3164)">
		<path id="path112" fill="#C6A009" d="M68.911,69.316C69.556,70.695,68.525,68.417,68.911,69.316"/>
	</g>
	<g id="g114" transform="translate(69.312,256.71)">
		<path id="path116" fill="#C6A009" d="M53.218,71.291c0.822,0.622,1.666,1.229,2.491,1.854c-1.453,1.237-7.966,1.992-8.708-0.717
			C49.14,72.464,51.228,72.074,53.218,71.291"/>
	</g>
	<g id="g118" transform="translate(80.9746,256.1152)">
		<path id="path120" fill="#C6A009" d="M67.888,73.228c0.875,0.391,1.632,0.326,2.296-0.219c-2.021,1.509-6.216-1.051-3.637-2.352
			C66.615,71.707,67.067,72.554,67.888,73.228"/>
	</g>
	<g id="g122" transform="translate(71.6641,255.5659)">
		<path id="path124" fill="#C6A009" d="M56.177,75.017c2.346,0.439,4.891-1.017,6.847,0.513c-2.078,1.011-3.581,2.562-4.521,4.657
			c-0.104-0.249,4.41-0.184,3.999-0.346c-4.043,1.026-7.504,3.494-10.253,6.575c-3.705-1.04-9.387-6.742-7.996-11.106
			C47.709,77.697,52.767,77.222,56.177,75.017"/>
	</g>
	<g id="g126" transform="translate(78.144,254.1997)">
		<path id="path128" fill="#C6A009" d="M64.327,79.469c1.397,3.154-2.786,8.455-4.047,5.27c2.954-0.673-3.567,7.17-4.896,8.043
			c-2.211,1.288-10.08,7.167-11.801,7.414c-0.522-5.014,2.38-9.426,5.895-12.654c2.495-2.314,13.313-3.967,13.817-5.003
			c-0.06-0.461-6.099-3.1-6.621-3.089C58.213,77.564,63.177,76.237,64.327,79.469"/>
	</g>
	<g id="g130" transform="translate(82.04,253.8433)">
		<path id="path132" fill="#C6A009" d="M69.226,80.629c-0.996-0.063-1.634-0.613-1.9-1.624
			C68.001,78.336,69.212,80.418,69.226,80.629"/>
	</g>
	<g id="g134" transform="translate(82.4609,254.3589)">
		<path id="path136" fill="#C6A009" d="M69.756,78.952C70.891,81.34,67.365,76.796,69.756,78.952"/>
	</g>
	<g id="g138" transform="translate(87.6733,253.667)">
		<path id="path140" fill="#C6A009" d="M76.312,81.203c-0.498,0.951-0.996,1.89-1.482,2.832
			C73.967,82.25,74.457,81.311,76.312,81.203"/>
	</g>
	<g id="g142" transform="translate(86.3989,252.2451)">
		<path id="path144" fill="#C6A009" d="M74.708,85.838c-0.997,5.358-3.375,1.84-6.989,5.558c-1.305-0.94-1.356-2.32-0.191-4.138
			C69.771,86.03,72.167,85.553,74.708,85.838"/>
	</g>
	<g id="g146" transform="translate(91.4463,251.854)">
		<path id="path148" fill="#C6A009" d="M81.058,87.109c-3.934,4.41-7.215,2.485-10.933,0.334
			C73.924,85.777,77.039,88.264,81.058,87.109"/>
	</g>
	<g id="g150" transform="translate(87.0371,249.8481)">
		<path id="path152" fill="#C6A009" d="M75.51,93.644c-1.853-2.929-0.186,7.765-0.762-2.786
			C75.012,91.788,75.259,92.723,75.51,93.644"/>
	</g>
	<g id="g154" transform="translate(78.1675,249.7969)">
		<path id="path156" fill="#C6A009" d="M64.357,93.812c-0.349,1.145-0.342,5.478-2.667,3.6c0.383-0.217,8.363,7.279,10.169,4.036
			c2.07,1.662,4.444,2.594,7.096,2.796c0.4-0.931,0-1.679-1.203-2.281c5.151,3.278,8.054,7.208,14.474,9.028
			c6.701,1.917,16.164,5.474,15.638,14.26c-2.932-5.087-9.996-6.604-15.287-8.125c-2.104-0.61-14.571-10.86-14.629-10.35
			c7.936,6.348,9.277,25.576,19.221,28.037c-6.303,5.646-16.53-2.061-17.856-8.644c0.219-3.202-1.29-24.357-7.799-22.803
			c4.458,6.348,6.081,13.505,5.681,21.364c-0.392,7.604-4.637,17.875,1.653,24.227c-28.715-0.337,5.334-42.556-10.478-46.515
			c3.298-0.843,0.894,17.272,0.227,19.223c-3.204,9.372-10.546,17.203-4.838,27.232c-24.125-2.823,6.975-36.211,0.908-46.348
			c3.072,0.419-5.833,15.241-6.7,16.358c-2.204,2.775-4.552,5.536-6.108,8.762c-1.547,3.809,0.75,6.557,0.199,10.094
			c-8.885-4.094-7.735-15.489-2.007-21.636c1.385-1.483,13.468-15.463,12.252-15.387c-3.628,1.768-7.215,6.229-11.526,8.338
			c-5.214,2.574-5.308,6.876-6.437,11.568c-5.057-6.427-2.112-13.334,3.775-17.634C50.153,101.538,63.37,91.775,64.357,93.812"/>
	</g>
	<g id="g158" transform="translate(99.0195,246.6533)">
		<path id="path160" fill="#C6A009" d="M90.58,104.054c-0.077-0.187,4.799-3.026,5.411-3.173c0.504,4.485,0.655,8.993,0.901,13.487
			c-2.355,0.529-4.075-0.369-5.14-2.69c5.892,2.598,0.646,22.59-3.505,26.197c-3.506-3.152-3.208-7.781-5.732-11.659
			c2.551,1.204,4.27,3.9,4.132,6.75c2.443,2.131,1.563-8.925,1.735-7.936c-0.736-4.098-3.641-7.148-6.889-9.465
			c4.527-4.114,4.794-11.112,9.767-14.545C91.039,102.035,90.811,103.045,90.58,104.054"/>
	</g>
	<g id="g162" transform="translate(93.4399,244.1069)">
		<path id="path164" fill="#C6A009" d="M83.565,112.349c-4.429-1.139-11.019,5.362-14.458-0.934
			C73.825,111.831,79.79,107.695,83.565,112.349"/>
	</g>
	<g id="g166" transform="translate(93.1646,237.8325)">
		<path id="path168" fill="#C6A009" d="M83.217,132.789c2.85,2.03,5.171,4.929,5.977,8.382c-1.941-1.623-7.677-10.174-10.883-8.074
			c4.906,2.427,5.333,6.815,9.251,9.732c5.965,4.423,10.044,12.511,13.882,18.677c5.165,6.472,27.395,25.277,21.312,32.91
			c-0.797-1.049-4.687-9.477-7.262-8.172c-1.95,5.865,10.103,3.904,2.849,10.115c-5.588,4.783-5.164-1.475-7.785-6.615
			c-1.359-0.137,0.011,5.514,0.097,5.791c-0.029,3.439-4.142,0.264-6.252,1.309c-3.75-4.523-0.309-11.203-6.459-16.234
			c1.67,2.943,1.568,5.902,1.531,9.572c-1.054-1.059-8.771-18.793-9.574-17.527c3.235,4.406,1.114,6.691,1.258,11.523
			c-3.119-2.303-4.096-6.064-4.583-9.684c0.206,1.568-1.628-12.034-3.069-7.574c0.799,3.246,2.617,3.93-0.537,7.451
			c-1.387-2.506-1.813-5.184-1.322-8.012c2.614,5.176-4.146-10.162-3.924-6.117c0.882,1.306,1.327,2.766,1.34,4.347
			c-2.229-0.771-3.509-6.083-5.217-5.988c-0.196,0.189,0.978,2.864,1.108,3.21c-2.855-0.726-6.309-9.855-4.958-3.793
			c-1.65-0.554-2.095-4.882-4.028-4.533c-1.931,2.671,11.036,12.654,13.22,13.266c1.183,2.633-20.646,11.883-19.75,12.133
			c3.042-1.348,4.048-3.449,7.615-3.732c-5.276,3.975-9.116,8.096-11.269,14.457c-0.528-0.943-2.363-7.275-1.938-7.719
			c-1.384,5.344,1.097,9.17,3.414,13.729c1.317,2.695,2.657,5.389,4.017,8.066c0.561,1.303-0.059,7.834,0.549,8.4
			c0.532-0.918,0.813-1.928,0.862-3.016c2.54,6.473-2.91,17.229-10.612,12.789c-2.73,1.01,7.058,2.063,5.903,1.541
			c-1.928,4.523-6.449,8.639-9.522,12.367c-1.83,2.209-5.342,13.559-3.429,8.359c3.139,5.971,9.146,23.336,16.659,24.998
			c4.543,0.992-1.009,8.639-2.77,8.742c0.419,0.088-9.43-10.082-9.795-8.396c4.252-3.479,10.405,17.762,1.011,12.672
			c-2.543-1.373-8.584-9.256-9.575-11.926c-0.66-1.744-4.545-13.787-4.428-14.096c-0.559,1.635-1.127,6.609-1.247,8.379
			c-1.39-2.092,1.065-13.729-1.146-14.035c-1.396,2.162-1.73,5.453-3.668,8.195c-3.577-3.861,5.658-11.357,0.755-15.166
			c0.463-0.172-4.775,8.83-4.996,9.338c-2.9-6.955,4.126-11.529,2.136-18.111c-0.813-2.729,3.962-7.096,5.333-3.871
			c3.015,0.131,4.721-13.002,5.309-15.051c1.583-6.998-3.684-16.266-4.284-23.197c-2.2,8.258-4.305,27.93-19.145,21.986
			c-5.922-2.377-6.632-8.506-5.522-14.031c1.235-6.277-4.235-10.971-0.34-17.457c0.3,0.92,3.26,9.834,3.241,9.807
			c5.8-3.592-5.406-13.77,1.542-19.043c0.094,2.441,4.7,8.9,2.816,11.076c5.198-4.742-2.644-13.271,3.664-18.906
			c0.75,3.107,3.597,5.932,2.139,9.381c-0.403-7.336,7.906-15.622,0.482-24.204c-13.67-13.363-12.351,13.01-4.341,5.983
			c2.129,14.011-17.084,3.024-13.123-2.202c-1.381,6.261,4.591,12.584,0.908,18.967c-2.351,4.211-9.269,8.752-13.429,3.613
			C0,178.05-9.273,141.93,11.573,141.192c24.088-0.864,22.047,26.438,13.565,40.942c-3.4,6.076-12.765,15.02-10.474,22.709
			c2.824,9.494,12.405-0.201,14.428-4.438c3.273-6.775,3.248-14.594,6.479-21.209c1.795-3.684,4.601-6.754,7.355-9.734
			c1.914-1.971,3.723-4.041,5.435-6.191c2.048,0.141,3.886-0.417,5.483-1.675c-2.076-3.179-5.152,2.412-1.549-5.049
			c2.03,2.829,12.38,11.361,15.835,5.456c-4.292-6.125-6.975-10.052-4.117-18.25c6.643,7.168,16.589,9.76,23.623,1.223
			c0.091,1.679-7.668-1.591-8.533-2.592c-2.968-3.475-3.365-8.24-5.195-12.261C76.872,131.521,79.97,132.403,83.217,132.789"/>
	</g>
	<g id="g170" transform="translate(53.6221,230.3896)">
		<path id="path172" fill="#C6A009" d="M33.486,157.034c0.852,0.03,1.71,0.057,2.572,0.084c-0.955,1.979-1.63,4.051-2.052,6.213
			c-5.163,1.476-7.239-6.625-4.469-9.567C30.328,155.481,31.646,156.567,33.486,157.034"/>
	</g>
	<g id="g174" transform="translate(96.5322,229.5337)">
		<path id="path176" fill="#C6A009" d="M87.453,159.825c1.343,0.784,2.29,1.921,2.841,3.379c-0.281,0.786-5.102-5.226-5.524-6.284
			C85.955,157.611,86.857,158.583,87.453,159.825"/>
	</g>
	<g id="g178" transform="translate(74.2178,218.751)">
		<path id="path180" fill="#C6A009" d="M59.389,194.946c-0.956,3.217-3.516,4.695-3.526,8.539
			C55.704,203.587,56.77,196.323,59.389,194.946"/>
	</g>
	<g id="g182" transform="translate(86.9473,217.2998)">
		<path id="path184" fill="#C6A009" d="M75.397,199.681c3.155,3.58,7.982,3.52,12.255,2.445c7.47-1.9,5.5,5.547,6.085,10.471
			c0.733,6.086,2.125,12.076,3.867,17.965c-2.525,3.43-7.843,2.824-9.234,7.484c-0.025-0.541,6.862,2.764,8.196,3.309
			c8.03,3.324,9.292,7.584,14.435,14.865c-1.161,0.428-4.905-0.986-5.185-0.066c1.986,2.422,5.46-0.207,6.902,2.451
			c-5.008,2.043-4.33,5.537-11.017,3.527c-2.063-0.615-11.34-10.252-11.41-11.461c3.199,3.52,2.219,7.502,4.561,11.164
			c-3.162-0.773-9.106-16.268-10.355-15.447c1.436-0.959,1.72,10.383,1.744,11.582c-2.793-1.313-3.263-4.168-3.588-6.879
			c-0.264-2.109-4.613-8.201-4.605-7.891c3.011,3.521,0.811,6.375,0.556,10.197c-4.362-2.848-3.775-9.938-5.251-14.396
			c-0.366-6.695,8.84-4.508,6.8-11.727c-1.663-5.893-10.252-8.443-14.912-11.168c-4.04-6.227,10.95-10.541,9.988-12.262
			c-2.045-0.939-4.762-0.869-6.972-0.592C70.201,200.132,72.537,196.905,75.397,199.681"/>
	</g>
	<g id="g186" transform="translate(85.5117,215.2461)">
		<path id="path188" fill="#C6A009" d="M73.59,206.365c-2.797,2.074-5.553,3.758-8.021,6.277
			C66.274,208.266,69.247,205.855,73.59,206.365"/>
	</g>
	<g id="g190" transform="translate(97.7524,213.4873)">
		<path id="path192" fill="#C6A009" d="M88.987,212.097c-0.872-1.584-0.93-3.201-0.186-4.842
			C88.867,208.862,89.009,210.485,88.987,212.097"/>
	</g>
	<g id="g194" transform="translate(111.4502,214.334)">
		<path id="path196" fill="#C6A009" d="M106.216,209.34c-0.043,0.607-0.089,1.209-0.134,1.82c-1.568-0.865-2.58-2.152-3.074-3.867
			C104.6,207.182,105.669,207.855,106.216,209.34"/>
	</g>
	<g id="g198" transform="translate(112.6582,213.4648)">
		<path id="path200" fill="#C6A009" d="M107.734,212.168c-0.114,0.748-0.22,1.488-0.324,2.24c-2.025-1.783-1.475-2.334-1.547-4.65
			C106.914,210.225,107.545,211.025,107.734,212.168"/>
	</g>
	<g id="g202" transform="translate(111.8906,210.9502)">
		<path id="path204" fill="#C6A009" d="M106.769,220.364c1.052,2.42,1.197,3.156-0.12,5.787c-1.234-1.885-0.421-1.48-2.292-2.998
			C104.528,221.767,105.337,220.841,106.769,220.364"/>
	</g>
	<g id="g206" transform="translate(73.2373,207.6553)">
		<path id="path208" fill="#C6A009" d="M58.155,231.095c0.054,2.053,8.19,18.162,9.071,16.879
			c-6.209,0.785-6.513,3.654-8.825,10.254c-1.846-1.912,2.938-11.117,2.625-14.09C60.601,239.935,56.861,233.724,58.155,231.095"/>
	</g>
	<g id="g210" transform="translate(104.4907,209.0996)">
		<path id="path212" fill="#C6A009" d="M97.463,226.391c-0.435,1.361-0.479,2.736-0.17,4.125c-2.225-0.42-3.408-1.814-3.547-4.189
			C94.983,226.352,96.229,226.371,97.463,226.391"/>
	</g>
	<g id="g214" transform="translate(109.9287,209.5889)">
		<path id="path216" fill="#C6A009" d="M104.303,224.796c1.227,2.727,0.978,4.631-1.355,6.83
			C102.2,229.714,99.299,223.651,104.303,224.796"/>
	</g>
	<g id="g218" transform="translate(87.6367,201.4941)">
		<path id="path220" fill="#C6A009" d="M76.265,251.168c0.05,0.236-2.087,3.043-2.278,3.043
			C73.908,252.609,74.285,251.154,76.265,251.168"/>
	</g>
	<g id="g222" transform="translate(70.4214,193.2852)">
		<path id="path224" fill="#C6A009" d="M54.614,277.908c-0.183,0.477-0.956,4.096-1.002,4.164
			C50.421,279.719,54.6,277.787,54.614,277.908"/>
	</g>
	<g id="g226" transform="translate(97.3267,192.3936)">
		<path id="path228" fill="#C6A009" d="M88.453,280.811c0.549,1.576,1.554,2.754,3.057,3.5
			C88.687,284.124,86.602,279.003,88.453,280.811"/>
	</g>
	<g id="g230" transform="translate(104.3516,190.252)">
		<path id="path232" fill="#C6A009" d="M97.287,287.791c-1.133,0.207-2.279,0.416-3.415,0.627
			C93.374,284.822,96.934,287.73,97.287,287.791"/>
	</g>
	<g id="g234" transform="translate(74.9741,179.1436)">
		<path id="path236" fill="#C6A009" d="M60.341,323.979c0-0.084,2.501,5.275,2.397,5.613
			C61.277,332.063,60.678,321.895,60.341,323.979"/>
	</g>
	<g id="g238" transform="translate(102.7627,177.1611)">
		<path id="path240" fill="#C6A009" d="M95.29,330.437C92.506,330.591,98.038,329.899,95.29,330.437"/>
	</g>
	<g id="g242" transform="translate(85.2866,174.7354)">
		<path id="path244" fill="#C6A009" d="M73.311,338.341c0.046,1.145,0.093,2.295,0.145,3.434
			C70.849,344.024,68.88,330.759,73.311,338.341"/>
	</g>
	<g id="g246" transform="translate(81.958,172.8652)">
		<path id="path248" fill="#C6A009" d="M69.123,344.436c0.271,1.873-0.1,3.617-1.115,5.223
			C67.903,348.723,64.647,338.326,69.123,344.436"/>
	</g>
	<g id="g250" transform="translate(84.6904,173.1152)">
		<path id="path252" fill="#C6A009" d="M72.56,343.617c0.974,3.033-3.58,4.771-5.764,6.064
			C67.089,348.912,70.27,339.754,72.56,343.617"/>
	</g>
	<g id="g254" transform="translate(98.3037,247.9604)">
		<path id="path256" fill="#C6A009" d="M89.681,99.795l2.652-9.915l5.873-0.7l8.094-4.19l-1.402,7.683l-2.376,8.234l-2.684,4.367
			l-7.923-2.272"/>
	</g>
	<g id="g258" transform="translate(113.5479,177.2461)">
		<path id="path260" fill="#C6A009" d="M108.852,330.162c0,0.662,0.122,0.9,0.543,1.078c1.25,0.414,3.041,0.596,4.537,0.596
			c2.398,0,3.174-0.236,4.248-1.012c1.794-1.322,3.519-4.066,3.519-8.971c0-8.492-5.609-10.938-9.138-10.938
			c-1.499,0-2.572,0.053-3.166,0.229c-0.421,0.129-0.543,0.359-0.543,0.85V330.162z M101.794,325.439c0-9.086,0-10.762-0.122-12.678
			c-0.116-2.027-0.597-2.988-2.568-3.412c-0.479-0.102-1.496-0.174-2.329-0.174c-0.656,0-1.016-0.117-1.016-0.537
			c0-0.416,0.417-0.535,1.317-0.535c3.167,0,6.926,0.178,8.188,0.178c2.038,0,6.572-0.178,8.426-0.178
			c3.771,0,7.779,0.357,11.008,2.564c1.674,1.137,4.068,4.186,4.068,8.191c0,4.424-1.857,8.498-7.892,13.4
			c5.316,6.695,9.439,12.004,12.971,15.721c3.348,3.465,5.798,3.885,6.703,4.066c0.648,0.115,1.183,0.178,1.668,0.178
			c0.479,0,0.723,0.18,0.723,0.479c0,0.477-0.431,0.607-1.146,0.607h-5.682c-3.347,0-4.843-0.311-6.397-1.148
			c-2.571-1.371-4.835-4.182-8.196-8.789c-2.383-3.289-5.133-7.357-5.915-8.248c-0.293-0.361-0.653-0.414-1.073-0.414l-5.199-0.127
			c-0.295,0-0.48,0.127-0.48,0.494v0.826c0,5.561,0,10.281,0.298,12.791c0.182,1.738,0.54,3.049,2.332,3.293
			c0.899,0.117,2.209,0.236,2.935,0.236c0.467,0,0.713,0.18,0.713,0.479c0,0.42-0.42,0.607-1.198,0.607
			c-3.467,0-7.891-0.188-8.782-0.188c-1.147,0-4.906,0.188-7.295,0.188c-0.778,0-1.205-0.188-1.205-0.607
			c0-0.299,0.248-0.479,0.959-0.479c0.9,0,1.615-0.119,2.157-0.236c1.195-0.244,1.494-1.555,1.728-3.293
			c0.301-2.51,0.301-7.23,0.301-12.729V325.439z"/>
	</g>
	<g id="g262" transform="translate(136.875,175.2305)">
		<path id="path264" fill="#C6A009" d="M138.193,336.727c0.3,0,0.362-0.189,0.3-0.359l-5.375-14.775
			c-0.062-0.23-0.125-0.533-0.306-0.533c-0.172,0-0.296,0.303-0.354,0.533l-5.5,14.709c-0.066,0.236,0,0.426,0.238,0.426H138.193z
			 M126,339.719c-0.3,0-0.42,0.109-0.543,0.467l-3.225,8.543c-0.592,1.502-0.89,2.951-0.89,3.66c0,1.068,0.532,1.859,2.381,1.859
			h0.892c0.724,0,0.907,0.111,0.907,0.471c0,0.477-0.361,0.607-1.019,0.607c-1.914,0-4.483-0.195-6.34-0.195
			c-0.656,0-3.942,0.195-7.056,0.195c-0.773,0-1.138-0.131-1.138-0.607c0-0.359,0.242-0.471,0.723-0.471
			c0.542,0,1.377-0.07,1.849-0.127c2.749-0.361,3.889-2.4,5.084-5.393l15.012-37.537c0.714-1.723,1.078-2.391,1.676-2.391
			c0.527,0,0.895,0.537,1.487,1.916c1.44,3.289,11.007,27.68,14.826,36.764c2.282,5.385,4.013,6.219,5.263,6.523
			c0.898,0.174,1.791,0.244,2.52,0.244c0.477,0,0.773,0.053,0.773,0.471c0,0.477-0.542,0.607-2.753,0.607
			c-2.146,0-6.51,0-11.295-0.131c-1.084-0.064-1.798-0.064-1.798-0.477c0-0.359,0.235-0.471,0.839-0.541
			c0.421-0.115,0.833-0.65,0.533-1.371l-4.778-12.67c-0.119-0.309-0.294-0.418-0.6-0.418H126z"/>
	</g>
	<g id="g266" transform="translate(148.9512,179.3359)">
		<path id="path268" fill="#C6A009" d="M153.379,323.35c0-9.086,0-10.768-0.114-12.676c-0.121-2.031-0.597-2.99-2.578-3.414
			c-0.474-0.102-1.489-0.174-2.331-0.174c-0.66,0-1.016-0.117-1.016-0.537c0-0.416,0.42-0.541,1.318-0.541
			c3.171,0,6.934,0.18,8.495,0.18c1.429,0,5.194-0.18,7.535-0.18c0.836,0,1.251,0.125,1.251,0.541c0,0.42-0.367,0.537-1.077,0.537
			c-0.665,0-1.011,0.072-1.738,0.174c-1.61,0.305-2.086,1.318-2.207,3.414c-0.122,1.908-0.122,3.59-0.122,12.676v11.061
			c0,2.57,0.182,5.441,0.182,8.434c0,3.406-0.243,7.229-1.441,10.582c-1.253,3.645-4.417,7.775-10.159,11.299
			c-0.781,0.48-1.736,0.955-2.991,1.551c-0.42,0.242-0.887,0.365-1.192,0.365c-0.237,0-0.48-0.188-0.48-0.486
			c0-0.295,0.298-0.535,1.319-1.068c0.773-0.416,1.665-1.076,2.868-2.27c4.541-4.605,4.479-10.584,4.479-22.303V323.35z"/>
	</g>
	<g id="g270" transform="translate(166.4292,175.2305)">
		<path id="path272" fill="#C6A009" d="M175.362,336.727c0.303,0,0.366-0.189,0.303-0.359l-5.387-14.775
			c-0.054-0.23-0.114-0.533-0.288-0.533c-0.186,0-0.304,0.303-0.364,0.533l-5.504,14.709c-0.058,0.236,0,0.426,0.242,0.426H175.362z
			 M163.166,339.719c-0.295,0-0.42,0.109-0.535,0.467l-3.225,8.543c-0.6,1.502-0.902,2.951-0.902,3.66
			c0,1.068,0.538,1.859,2.391,1.859h0.896c0.72,0,0.894,0.111,0.894,0.471c0,0.477-0.352,0.607-1.01,0.607
			c-1.92,0-4.491-0.195-6.34-0.195c-0.66,0-3.953,0.195-7.056,0.195c-0.779,0-1.134-0.131-1.134-0.607
			c0-0.359,0.229-0.471,0.72-0.471c0.525,0,1.366-0.07,1.85-0.127c2.749-0.361,3.888-2.4,5.073-5.393l15.018-37.537
			c0.71-1.723,1.075-2.391,1.668-2.391c0.544,0,0.9,0.537,1.504,1.916c1.431,3.289,10.996,27.68,14.82,36.764
			c2.272,5.385,3.997,6.219,5.263,6.523c0.896,0.174,1.792,0.244,2.509,0.244c0.488,0,0.782,0.053,0.782,0.471
			c0,0.477-0.545,0.607-2.756,0.607c-2.148,0-6.519,0-11.294-0.131c-1.087-0.064-1.787-0.064-1.787-0.477
			c0-0.359,0.228-0.471,0.823-0.541c0.422-0.115,0.846-0.65,0.547-1.371l-4.791-12.67c-0.116-0.309-0.289-0.418-0.59-0.418H163.166z
			"/>
	</g>
	<g id="g274" transform="translate(176.79,167.3115)">
		<path id="path276" fill="#C6A009" d="M188.394,362.524c-0.954-0.428-1.143-0.725-1.143-2.039c0-3.285,0.248-6.879,0.299-7.834
			c0.064-0.896,0.245-1.555,0.723-1.555c0.538,0,0.6,0.545,0.6,1.023c0,0.777,0.236,2.027,0.531,3.043
			c1.321,4.436,4.853,6.039,8.556,6.039c5.38,0,8.011-3.645,8.011-6.814c0-2.936-0.896-5.738-5.854-9.568l-2.757-2.15
			c-6.574-5.137-8.847-9.326-8.847-14.18c0-6.561,5.501-11.287,13.807-11.287c3.894,0,6.401,0.59,7.956,1.014
			c0.54,0.121,0.838,0.305,0.838,0.719c0,0.773-0.24,2.506-0.24,7.174c0,1.313-0.18,1.785-0.654,1.785c-0.424,0-0.6-0.346-0.6-1.068
			c0-0.537-0.303-2.389-1.551-3.953c-0.901-1.133-2.637-2.922-6.519-2.922c-4.423,0-7.124,2.566-7.124,6.158
			c0,2.748,1.379,4.848,6.345,8.611l1.669,1.25c7.18,5.557,9.805,9.568,9.805,15.25c0,3.469-1.31,7.596-5.619,10.398
			c-2.984,1.914-6.335,2.455-9.5,2.455C193.651,364.073,190.963,363.651,188.394,362.524"/>
	</g>
	<g id="g278" transform="translate(197.1787,185.5332)">
		<path id="path280" fill="#C6A009" d="M214.036,303.166l-8.9,0.24c-3.48,0.111-4.916,0.412-5.81,1.729
			c-0.602,0.898-0.89,1.615-1.014,2.096c-0.115,0.475-0.297,0.717-0.662,0.717c-0.406,0-0.535-0.299-0.535-0.959
			c0-0.955,1.135-6.398,1.258-6.881c0.183-0.77,0.352-1.131,0.719-1.131c0.48,0,1.075,0.594,2.564,0.725
			c1.742,0.17,4.007,0.293,5.988,0.293h23.682c1.904,0,3.217-0.184,4.117-0.293c0.898-0.184,1.379-0.307,1.619-0.307
			c0.42,0,0.48,0.355,0.48,1.254c0,1.26-0.184,5.385-0.184,6.938c-0.061,0.6-0.178,0.953-0.537,0.953
			c-0.48,0-0.598-0.283-0.66-1.188l-0.061-0.662c-0.117-1.555-1.734-3.229-7.051-3.352l-7.531-0.172v24.514
			c0,5.494,0,10.219,0.293,12.789c0.18,1.68,0.541,2.988,2.338,3.232c0.832,0.117,2.15,0.244,3.043,0.244
			c0.66,0,0.959,0.172,0.959,0.471c0,0.42-0.486,0.607-1.139,0.607c-3.941,0-7.715-0.188-9.385-0.188
			c-1.373,0-5.137,0.188-7.539,0.188c-0.779,0-1.188-0.188-1.188-0.607c0-0.299,0.238-0.471,0.959-0.471
			c0.883,0,1.605-0.127,2.141-0.244c1.201-0.244,1.559-1.553,1.732-3.293c0.303-2.51,0.303-7.234,0.303-12.729V303.166z"/>
	</g>
	<g id="g282" transform="translate(226.0469,178.5947)">
		<path id="path284" fill="#C6A009" d="M250.344,325.767c0.178,0,0.354-0.119,0.354-0.418v-1.254c0-9.094,0-10.771-0.123-12.68
			c-0.111-2.031-0.592-2.99-2.57-3.414c-0.473-0.102-1.494-0.174-2.32-0.174c-0.672,0-1.027-0.117-1.027-0.541
			c0-0.412,0.426-0.537,1.256-0.537c3.23,0,7,0.184,8.611,0.184c1.443,0,5.197-0.184,7.533-0.184c0.842,0,1.26,0.125,1.26,0.537
			c0,0.424-0.365,0.541-1.076,0.541c-0.48,0-1.018,0.072-1.732,0.174c-1.617,0.305-2.094,1.318-2.221,3.414
			c-0.115,1.908-0.115,3.586-0.115,12.68v10.529c0,5.488,0,10.213,0.291,12.783c0.191,1.678,0.545,2.988,2.342,3.232
			c0.838,0.113,2.146,0.236,3.051,0.236c0.654,0,0.951,0.18,0.951,0.479c0,0.42-0.479,0.607-1.195,0.607
			c-3.891,0-7.645-0.188-9.324-0.188c-1.375,0-5.145,0.188-7.473,0.188c-0.84,0-1.26-0.188-1.26-0.607
			c0-0.299,0.238-0.479,0.955-0.479c0.898,0,1.621-0.123,2.148-0.236c1.205-0.244,1.496-1.555,1.744-3.293
			c0.295-2.51,0.295-7.234,0.295-12.723v-5.27c0-0.248-0.176-0.355-0.354-0.355H227.5c-0.18,0-0.357,0.057-0.357,0.355v5.27
			c0,5.488,0,10.213,0.299,12.783c0.182,1.678,0.539,2.988,2.332,3.232c0.838,0.113,2.145,0.236,3.045,0.236
			c0.656,0,0.963,0.18,0.963,0.479c0,0.42-0.488,0.607-1.205,0.607c-3.875,0-7.65-0.188-9.322-0.188
			c-1.375,0-5.143,0.188-7.537,0.188c-0.783,0-1.184-0.188-1.184-0.607c0-0.299,0.229-0.479,0.951-0.479
			c0.889,0,1.611-0.123,2.158-0.236c1.18-0.244,1.486-1.555,1.727-3.293c0.297-2.51,0.297-7.234,0.297-12.723v-10.529
			c0-9.094,0-10.771-0.117-12.68c-0.125-2.031-0.598-2.99-2.574-3.414c-0.475-0.102-1.49-0.174-2.334-0.174
			c-0.656,0-1.016-0.117-1.016-0.541c0-0.412,0.422-0.537,1.268-0.537c3.219,0,6.986,0.184,8.6,0.184
			c1.434,0,5.209-0.184,7.533-0.184c0.84,0,1.266,0.125,1.266,0.537c0,0.424-0.373,0.541-1.086,0.541
			c-0.479,0-1.02,0.072-1.73,0.174c-1.609,0.305-2.1,1.318-2.209,3.414c-0.123,1.908-0.123,3.586-0.123,12.68v1.254
			c0,0.299,0.178,0.418,0.357,0.418H250.344z"/>
	</g>
	<g id="g286" transform="translate(244.6592,175.2305)">
		<path id="path288" fill="#C6A009" d="M273.751,336.727c0.305,0,0.355-0.189,0.305-0.359l-5.387-14.775
			c-0.061-0.23-0.113-0.533-0.289-0.533c-0.193,0-0.303,0.303-0.363,0.533l-5.506,14.709c-0.055,0.236,0,0.426,0.242,0.426H273.751z
			 M261.56,339.719c-0.295,0-0.422,0.109-0.541,0.467l-3.227,8.543c-0.602,1.502-0.904,2.951-0.904,3.66
			c0,1.068,0.545,1.859,2.396,1.859h0.902c0.719,0,0.883,0.111,0.883,0.471c0,0.477-0.354,0.607-1.012,0.607
			c-1.902,0-4.479-0.195-6.338-0.195c-0.658,0-3.943,0.195-7.051,0.195c-0.771,0-1.133-0.131-1.133-0.607
			c0-0.359,0.236-0.471,0.713-0.471c0.539,0,1.377-0.07,1.848-0.127c2.764-0.361,3.889-2.4,5.088-5.393l15.002-37.537
			c0.719-1.723,1.08-2.391,1.68-2.391c0.547,0,0.898,0.537,1.494,1.916c1.428,3.289,11.006,27.68,14.83,36.764
			c2.285,5.385,4.014,6.219,5.275,6.523c0.877,0.174,1.779,0.244,2.502,0.244c0.471,0,0.773,0.053,0.773,0.471
			c0,0.477-0.537,0.607-2.75,0.607c-2.152,0-6.518,0-11.303-0.131c-1.074-0.064-1.795-0.064-1.795-0.477
			c0-0.359,0.25-0.471,0.842-0.541c0.42-0.115,0.838-0.65,0.533-1.371l-4.781-12.67c-0.111-0.309-0.303-0.418-0.598-0.418H261.56z"
			/>
	</g>
	<g id="g290" transform="translate(258.2197,170.5947)">
		<path id="path292" fill="#C6A009" d="M290.808,351.829c0.119,4.656,0.898,6.213,2.09,6.625c1.014,0.359,2.156,0.422,3.109,0.422
			c0.658,0,1.02,0.119,1.02,0.479c0,0.477-0.541,0.607-1.379,0.607c-3.887,0-6.275-0.188-7.414-0.188
			c-0.537,0-3.35,0.188-6.465,0.188c-0.77,0-1.299-0.064-1.299-0.607c0-0.359,0.35-0.479,0.943-0.479
			c0.783,0,1.861-0.063,2.691-0.297c1.553-0.486,1.801-2.223,1.869-7.416l0.529-35.396c0-1.197,0.166-2.025,0.773-2.025
			c0.658,0,1.195,0.768,2.217,1.846c0.711,0.779,9.805,10.52,18.529,19.199c4.063,4.061,12.135,12.672,13.15,13.627h0.297
			l-0.592-26.846c-0.064-3.643-0.596-4.781-2.027-5.377c-0.898-0.363-2.338-0.363-3.164-0.363c-0.732,0-0.967-0.176-0.967-0.541
			c0-0.477,0.662-0.537,1.555-0.537c3.109,0,5.982,0.184,7.236,0.184c0.654,0,2.926-0.184,5.854-0.184
			c0.777,0,1.381,0.061,1.381,0.537c0,0.365-0.359,0.541-1.074,0.541c-0.598,0-1.08,0-1.795,0.174
			c-1.674,0.482-2.162,1.744-2.211,5.094l-0.668,37.719c0,1.322-0.232,1.857-0.77,1.857c-0.658,0-1.377-0.654-2.035-1.316
			c-3.764-3.588-11.41-11.418-17.641-17.578c-6.514-6.449-13.154-13.918-14.23-15.051h-0.174L290.808,351.829z"/>
	</g>
	<g id="g294" transform="translate(105.1987,136.4229)">
		<path id="path296" fill="#C6A009" d="M98.353,463.149c0,1.203,0.219,1.631,0.988,1.951c2.308,0.768,5.604,1.096,8.359,1.096
			c4.397,0,5.819-0.443,7.805-1.844c3.295-2.402,6.481-7.418,6.481-16.318c0-15.443-10.333-19.896-16.822-19.896
			c-2.748,0-4.721,0.098-5.824,0.426c-0.769,0.219-0.988,0.664-0.988,1.52V463.149z M85.385,454.556c0-16.529,0-19.57-0.224-23.055
			c-0.216-3.693-1.103-5.434-4.729-6.199c-0.88-0.217-2.746-0.316-4.282-0.316c-1.216,0-1.874-0.225-1.874-0.99
			c0-0.756,0.771-0.969,2.416-0.969c5.824,0,12.761,0.326,15.058,0.326c3.742,0,12.105-0.326,15.512-0.326
			c6.914,0,14.298,0.641,20.223,4.668c3.08,2.068,7.473,7.613,7.473,14.906c0,8.041-3.396,15.434-14.503,24.355
			c9.787,12.168,17.371,21.855,23.855,28.6c6.156,6.299,10.658,7.064,12.304,7.387c1.215,0.219,2.204,0.328,3.089,0.328
			c0.884,0,1.315,0.322,1.315,0.871c0,0.869-0.771,1.088-2.09,1.088h-10.442c-6.157,0-8.908-0.543-11.761-2.068
			c-4.734-2.5-8.917-7.605-15.063-15.977c-4.392-5.99-9.459-13.391-10.89-15.02c-0.54-0.635-1.211-0.758-1.972-0.758l-9.573-0.213
			c-0.543,0-0.876,0.213-0.876,0.877v1.521c0,10.107,0,18.691,0.547,23.271c0.329,3.139,0.991,5.531,4.292,5.965
			c1.641,0.227,4.07,0.441,5.388,0.441c0.875,0,1.317,0.322,1.317,0.871c0,0.75-0.763,1.088-2.198,1.088
			c-6.38,0-14.51-0.338-16.168-0.338c-2.079,0-9.016,0.338-13.408,0.338c-1.432,0-2.201-0.338-2.201-1.088
			c0-0.549,0.439-0.871,1.764-0.871c1.644,0,2.967-0.215,3.958-0.441c2.192-0.434,2.754-2.826,3.189-5.965
			c0.551-4.58,0.551-13.164,0.551-23.168V454.556z"/>
	</g>
	<g id="g298" transform="translate(163.6387,135.0752)">
		<path id="path300" fill="#C6A009" d="M171.853,467.544c0-24.361-14.187-39.479-32.219-39.479
			c-12.649,0-27.047,6.965-27.047,34.041c0,22.611,12.644,40.551,33.754,40.551C154.036,502.657,171.853,498.966,171.853,467.544
			 M97.412,465.47c0-18.59,12.422-42.621,45.404-42.621c27.379,0,44.421,15.771,44.421,40.67c0,24.902-17.593,44.578-45.516,44.578
			C110.169,508.097,97.412,484.718,97.412,465.47"/>
	</g>
	<g id="g302" transform="translate(186.5674,130.2588)">
		<path id="path304" fill="#C6A009" d="M200.691,483.229c0-5.875-1.1-8.266-2.525-11.416c-0.767-1.746-15.499-25.658-19.344-31.314
			c-2.757-4.027-5.503-6.742-7.59-7.943c-1.441-0.766-3.302-1.406-4.625-1.406c-0.867,0-1.641-0.225-1.641-0.99
			c0-0.643,0.773-0.969,2.094-0.969c1.971,0,10.217,0.326,13.846,0.326c2.307,0,6.811-0.326,11.764-0.326
			c1.098,0,1.643,0.326,1.643,0.969c0,0.66-0.771,0.766-2.415,1.203c-0.992,0.217-1.546,1.088-1.546,1.949
			c0,0.875,0.555,2.176,1.331,3.707c1.535,3.262,16.924,29.471,18.69,32.512c1.094-2.613,14.941-26.533,16.49-29.91
			c1.098-2.391,1.539-4.229,1.539-5.648c0-1.09-0.441-2.285-2.307-2.723c-0.988-0.209-1.988-0.43-1.988-1.09
			c0-0.756,0.553-0.969,1.881-0.969c3.627,0,7.137,0.326,10.324,0.326c2.43,0,9.672-0.326,11.77-0.326
			c1.209,0,1.973,0.213,1.973,0.869c0,0.76-0.873,1.09-2.08,1.09c-1.111,0-3.191,0.43-4.84,1.301
			c-2.309,1.086-3.518,2.389-5.936,5.324c-3.627,4.357-19.025,29.902-21.002,34.586c-1.656,3.908-1.656,7.275-1.656,10.869v8.908
			c0,1.756,0,6.311,0.334,10.891c0.229,3.139,1.201,5.531,4.516,5.965c1.535,0.227,3.955,0.441,5.486,0.441
			c1.219,0,1.771,0.322,1.771,0.871c0,0.75-0.887,1.088-2.307,1.088c-6.936,0-13.854-0.338-16.828-0.338
			c-2.752,0-9.669,0.338-13.745,0.338c-1.542,0-2.425-0.215-2.425-1.088c0-0.549,0.555-0.871,1.769-0.871
			c1.545,0,2.852-0.215,3.842-0.441c2.207-0.434,3.189-2.826,3.418-5.965c0.318-4.58,0.318-9.135,0.318-10.891V483.229z"/>
	</g>
	<g id="g306" transform="translate(224.6592,132.7646)">
		<path id="path308" fill="#C6A009" d="M248.597,475.065c0.547,0,0.664-0.322,0.547-0.645l-9.893-26.865
			c-0.105-0.432-0.219-0.969-0.545-0.969c-0.328,0-0.553,0.537-0.666,0.969l-10.109,26.754c-0.113,0.434,0,0.756,0.438,0.756
			H248.597z M226.169,480.511c-0.559,0-0.766,0.213-0.979,0.854l-5.941,15.564c-1.109,2.719-1.656,5.328-1.656,6.629
			c0,1.955,0.986,3.371,4.406,3.371h1.629c1.332,0,1.66,0.219,1.66,0.871c0,0.873-0.656,1.088-1.865,1.088
			c-3.531,0-8.25-0.334-11.652-0.334c-1.209,0-7.26,0.334-12.98,0.334c-1.422,0-2.086-0.215-2.086-1.088
			c0-0.652,0.438-0.871,1.32-0.871c0.994,0,2.531-0.109,3.412-0.215c5.061-0.66,7.143-4.363,9.334-9.785l27.607-68.285
			c1.311-3.168,1.984-4.35,3.086-4.35c0.984,0,1.639,0.973,2.744,3.469c2.641,5.979,20.221,50.35,27.258,66.885
			c4.18,9.781,7.377,11.313,9.678,11.84c1.652,0.332,3.295,0.441,4.605,0.441c0.896,0,1.438,0.109,1.438,0.871
			c0,0.873-0.994,1.088-5.055,1.088c-3.955,0-11.984,0-20.783-0.215c-1.979-0.119-3.293-0.119-3.293-0.873
			c0-0.652,0.447-0.871,1.533-0.98c0.777-0.213,1.539-1.197,0.994-2.5l-8.789-23.055c-0.225-0.541-0.553-0.754-1.1-0.754H226.169z"
			/>
	</g>
	<g id="g310" transform="translate(252.9531,131.751)">
		<path id="path312" fill="#C6A009" d="M284.182,478.368c0,13.912,0,21.418,2.301,23.375c1.869,1.621,4.732,2.387,13.311,2.387
			c5.82,0,10.117-0.105,12.854-3.031c1.334-1.416,2.648-4.475,2.871-6.527c0.105-0.979,0.324-1.629,1.203-1.629
			c0.768,0,0.893,0.541,0.893,1.84c0,1.201-0.783,9.348-1.662,12.51c-0.656,2.391-1.213,2.932-6.928,2.932
			c-15.826,0-23.086-0.66-31.994-0.66c-2.527,0-9.449,0.338-13.838,0.338c-1.447,0-2.213-0.338-2.213-1.088
			c0-0.549,0.447-0.871,1.754-0.871c1.652,0,2.971-0.215,3.959-0.441c2.213-0.434,2.758-2.826,3.195-5.965
			c0.557-4.58,0.557-13.164,0.557-23.168v-19.141c0-16.529,0-19.57-0.23-23.049c-0.215-3.699-1.09-5.439-4.723-6.205
			c-0.885-0.217-2.195-0.316-3.633-0.316c-1.209,0-1.875-0.225-1.875-0.99c0-0.756,0.775-0.969,2.428-0.969
			c5.17,0,12.092,0.326,15.064,0.326c2.639,0,10.658-0.326,14.936-0.326c1.561,0,2.322,0.213,2.322,0.969
			c0,0.766-0.658,0.99-1.967,0.99c-1.215,0-2.986,0.1-4.295,0.316c-2.98,0.547-3.852,2.393-4.076,6.205
			c-0.213,3.479-0.213,6.52-0.213,23.049V478.368z"/>
	</g>
	<g id="g314" transform="translate(273.6475,118.3652)">
		<path id="path316" fill="#C6A009" d="M310.21,521.979c-1.762-0.76-2.09-1.301-2.09-3.697c0-5.973,0.445-12.502,0.551-14.25
			c0.105-1.625,0.432-2.814,1.322-2.814c0.979,0,1.092,0.973,1.092,1.84c0,1.416,0.439,3.707,0.982,5.547
			c2.422,8.053,8.916,10.992,15.719,10.992c9.906,0,14.742-6.639,14.742-12.398c0-5.328-1.652-10.447-10.777-17.4l-5.057-3.918
			c-12.098-9.35-16.275-16.965-16.275-25.773c0-11.965,10.127-20.547,25.416-20.547c7.139,0,11.752,1.088,14.605,1.852
			c0.994,0.215,1.545,0.543,1.545,1.311c0,1.404-0.438,4.564-0.438,13.039c0,2.389-0.334,3.262-1.217,3.262
			c-0.768,0-1.105-0.656-1.105-1.951c0-0.986-0.541-4.357-2.848-7.186c-1.656-2.064-4.84-5.326-11.988-5.326
			c-8.135,0-13.076,4.666-13.076,11.201c0,5.002,2.533,8.811,11.646,15.652l3.078,2.293c13.188,10.105,18.033,17.387,18.033,27.723
			c0,6.307-2.416,13.814-10.326,18.926c-5.5,3.469-11.666,4.453-17.49,4.453C319.876,524.807,314.929,524.047,310.21,521.979"/>
	</g>
	<g id="g318" transform="translate(279.7021,296.0664)">
		<path id="path320" fill="#C6A009" d="M317.825-56.92c-2.463,1.431-4.803,3.148-5.557,3.756
			c-1.139,0.039-16.625,15.859-16.424,34.162c0,0-1.758,29.343,21.957,49.373c0,0,14.799,16.664,44.219,9.931l0.545,1.553
			c0,0-26.66,9.26-47.842-7.713c0,0-29.582-20.287-31.5-57.372c0,0,1.83-30.526,19.402-44.861c0,0,22.787-20.509,53.484-22.55
			c0,0,1.949-4.403,5.027-1.974c0,0,3.736-2.354,4.938-5.55c0.176-0.455,0.912-1.547,1.682-1.524c1.52,0.026,3.92,0.611,4.684,3.862
			c1.146,4.898,4.936,23.708-2.152,36.568c-2.93,3.028-5.102-0.859-5.102-0.859s-1.186-2.441-2.602-2.752
			c0,0-1.545,1.935-3.756,0.463c-2.199-1.471-2.107-3.285-2.107-3.285s-17.586-4.071-33.863,6.147
			C322.858-59.546,320.276-58.372,317.825-56.92"/>
	</g>
	<g id="g322" transform="translate(274.1543,293.8423)">
		<path id="path324" fill="#1E218B" d="M310.846-49.673c28.992-29.542,59.109-15.252,59.109-15.252l0.398,1.933
			c0.172,2.116,3.326,2.657,3.326,2.657c7.832-7.746,2.166-33.45,2.166-33.45l-0.338-1.808c0.859,0.497,1.424,1.347,1.715,2.542
			c1.23,5.25,4.74,23.292-1.977,35.655c-0.551,0.542-1.08,0.792-1.557,0.741c-0.867-0.096-1.623-1.116-1.82-1.438
			c-0.234-0.486-1.5-2.908-3.291-3.293l-0.6-0.125l-0.391,0.471c-0.02,0.03-0.619,0.725-1.482,0.636
			c-0.313-0.037-0.617-0.167-0.953-0.385c-1.635-1.083-1.643-2.304-1.652-2.366v-0.87l-0.783-0.189
			c-0.053-0.005-1.344-0.308-3.566-0.544c-6.432-0.688-18.994-0.712-30.982,6.78c-0.408,0.193-2.76,1.298-5.063,2.645
			c-2.525,1.48-4.916,3.234-5.684,3.842l0.115-0.04c-3.256,1.839-17.127,17.442-16.93,34.984
			c-0.016,0.309-1.527,30.077,22.281,50.226c0.803,0.889,9.238,9.667,25.461,11.484c-17.57-1.013-30.398-14.992-30.398-14.992
			C307.172,22.325,281.867-20.131,310.846-49.673"/>
	</g>
	<g id="g326" transform="translate(266.8066,242.0947)">
		<path id="path328" fill="#C6A009" d="M301.607,118.902c-0.24,0.283-0.389,0.741-0.371,0.983c0.008,0.346,0.32,0.633,0.758,0.682
			c0.059,0.006,0.127,0.016,0.193,0.016c0.533-0.042,0.918-0.392,0.9-0.805c-0.018-0.32-0.367-1.09-0.881-1.15
			c0,0-0.07,0-0.107,0.007C301.93,118.637,301.752,118.741,301.607,118.902 M301.391,110.568c-0.246,0.263-0.418,0.719-0.418,0.957
			l0.01,0.466l0.014,0.261l0.225,0.011c0,0,0.023,0.008,0.705-0.011c0.521-0.011,0.92-0.355,0.912-0.772
			c0-0.328-0.352-1.124-0.887-1.174c-0.021,0-0.045-0.008-0.064,0C301.77,110.306,301.576,110.356,301.391,110.568 M301.809,123.079
			c-0.232,0.284-0.375,0.732-0.367,0.988c0.023,0.346,0.338,0.618,0.77,0.665c0.066,0.002,0.145,0.002,0.209,0
			c0.523-0.042,0.914-0.395,0.885-0.809c-0.021-0.317-0.375-1.068-0.9-1.131h-0.096C302.188,122.807,302,122.859,301.809,123.079
			 M301.465,114.738c-0.244,0.277-0.398,0.719-0.398,0.973c0.021,0.354,0.34,0.651,0.785,0.688c0.055,0.013,0.109,0,0.17,0
			c0.234-0.003,0.447-0.081,0.615-0.196c0.201-0.152,0.307-0.363,0.297-0.571c-0.004-0.32-0.355-1.104-0.881-1.157h-0.076
			C301.793,114.475,301.621,114.57,301.465,114.738 M302.459,131.413c-0.217,0.298-0.35,0.753-0.322,0.996
			c0.018,0.099,0.051,0.193,0.094,0.278c-0.02,0.039-0.043,0.083-0.043,0.124c-0.016,0.16,0.09,0.287,0.232,0.303
			c0.092,0.016,0.197-0.036,0.244-0.119c0.057,0.022,0.133,0.038,0.213,0.043c0.082,0.01,0.172,0.002,0.262,0
			c0.566-0.075,0.84-0.961,0.797-1.305c-0.029-0.337-0.324-0.581-0.738-0.635c-0.082-0.005-0.166-0.005-0.264,0
			C302.82,131.117,302.637,131.177,302.459,131.413 M303.527,139.701c-0.209,0.318-0.309,0.784-0.262,1.028
			c0.008,0.09,0.068,0.181,0.115,0.253c-0.021,0.034-0.031,0.074-0.047,0.125c0,0.149,0.098,0.28,0.234,0.296
			c0.119,0.021,0.213-0.041,0.268-0.133c0.049,0.01,0.08,0.017,0.121,0.023c0.117,0.009,0.234,0,0.361-0.02
			c0.549-0.117,0.771-1.01,0.701-1.362c-0.047-0.304-0.33-0.521-0.697-0.565c-0.104-0.004-0.211-0.004-0.334,0.008
			C303.865,139.389,303.688,139.459,303.527,139.701 M304.279,143.806c-0.191,0.322-0.258,0.803-0.205,1.049
			c0.047,0.273,0.316,0.486,0.658,0.521c0.129,0.013,0.262,0,0.406-0.03c0.512-0.133,0.83-0.544,0.742-0.937
			c-0.066-0.306-0.49-0.917-0.961-0.97c-0.07-0.009-0.133,0-0.188,0.017C304.598,143.479,304.426,143.562,304.279,143.806
			 M302.934,135.556c-0.215,0.304-0.33,0.771-0.297,1.016c0.043,0.323,0.313,0.558,0.713,0.6c0.098,0.012,0.205,0.009,0.301-0.012
			c0.525-0.084,0.889-0.465,0.838-0.884c-0.061-0.317-0.453-0.991-0.939-1.04c-0.051-0.008-0.102,0-0.15,0.004
			C303.273,135.25,303.1,135.331,302.934,135.556 M301.344,106.376c-0.242,0.275-0.404,0.72-0.404,0.97
			c0,0.366,0.328,0.671,0.783,0.716c0.047,0.002,0.086,0.012,0.143,0.012c0.52-0.012,0.932-0.339,0.932-0.761
			c0-0.325-0.35-1.125-0.871-1.178c-0.025-0.013-0.057-0.01-0.057-0.01C301.678,106.136,301.508,106.215,301.344,106.376
			 M305.24,147.883c-0.172,0.334-0.221,0.817-0.145,1.057c0.086,0.263,0.311,0.43,0.625,0.472c0.16,0.021,0.313,0,0.469-0.056
			c0.5-0.163,0.805-0.604,0.693-0.999c-0.088-0.284-0.529-0.839-0.996-0.89c-0.072-0.002-0.148,0-0.215,0.031
			C305.551,147.532,305.379,147.629,305.24,147.883 M302.098,127.242c-0.238,0.294-0.375,0.753-0.352,1.001
			c0.023,0.347,0.33,0.592,0.75,0.644c0.082,0.01,0.152,0.01,0.244,0.004c0.219-0.025,0.438-0.106,0.594-0.249
			c0.201-0.16,0.295-0.371,0.27-0.58c-0.035-0.318-0.395-1.059-0.906-1.119h-0.119C302.459,126.973,302.277,127.027,302.098,127.242
			 M302.207,77.162c-0.277,0.247-0.477,0.683-0.479,0.936l-0.014,0.461l-0.029,0.277l0.262,0.011l0.672,0.041
			c0.52,0.021,0.949-0.28,0.969-0.699c0.023-0.344-0.283-1.185-0.832-1.249l-0.01,0.003l-0.025-0.003
			C302.543,76.935,302.377,77.005,302.207,77.162 M303.039,64.646c-0.283,0.252-0.477,0.68-0.496,0.916
			c-0.031,0.416,0.334,0.764,0.826,0.813l0.051,0.004c0.516,0.036,0.949-0.257,0.992-0.675c0.014-0.349-0.279-1.202-0.836-1.263
			C303.381,64.43,303.197,64.502,303.039,64.646 M302.74,68.813c-0.293,0.259-0.484,0.694-0.494,0.932
			c-0.035,0.405,0.332,0.752,0.824,0.798h0.051c0.529,0.041,0.953-0.258,0.977-0.671c0.023-0.353-0.266-1.206-0.824-1.27
			C303.08,68.597,302.893,68.667,302.74,68.813 M303.238,57.18l-0.041,0.504l-0.021,0.275l0.256,0.021l0.666,0.062
			c0.58,0.05,1.014-0.862,1.041-1.156c0.043-0.395-0.328-0.727-0.844-0.79C303.705,56.049,303.273,56.82,303.238,57.18
			 M302.877,61.387c-0.039,0.405,0.332,0.767,0.83,0.82l0.031,0.003c0.525,0.043,0.951-0.254,0.994-0.676
			c0.027-0.344-0.256-1.201-0.816-1.256C303.334,60.234,302.91,61.029,302.877,61.387 M301.357,102.211
			c-0.256,0.254-0.418,0.701-0.428,0.96c0.01,0.09,0.027,0.183,0.07,0.271c-0.041,0.039-0.061,0.095-0.061,0.159
			c-0.023,0.151,0.092,0.294,0.229,0.296c0.1,0.019,0.168-0.022,0.238-0.095c0.084,0.05,0.201,0.081,0.316,0.095
			c0.047,0,0.086,0,0.137,0c0.561,0,0.938-0.845,0.938-1.201c0-0.377-0.338-0.688-0.797-0.735c-0.049,0-0.074-0.007-0.131-0.007
			C301.691,101.961,301.525,102.04,301.357,102.211 M301.41,98.03c-0.252,0.255-0.428,0.701-0.438,0.951
			c0,0.382,0.342,0.69,0.797,0.743c0.039,0,0.09,0.007,0.131,0c0.514,0.008,0.938-0.309,0.938-0.728c0-0.337-0.32-1.145-0.855-1.208
			c0,0-0.035-0.002-0.053-0.004C301.752,97.785,301.576,97.861,301.41,98.03 M301.994,81.333c-0.271,0.258-0.469,0.687-0.486,0.943
			c-0.018,0.384,0.344,0.716,0.826,0.77c0.029,0.001,0.051,0.001,0.051,0.001c0.549,0.031,0.965-0.277,0.984-0.699
			c0.029-0.339-0.289-1.175-0.83-1.234h-0.014h-0.029C302.334,81.102,302.154,81.183,301.994,81.333 M301.508,93.853
			c-0.264,0.253-0.441,0.699-0.451,0.949c-0.006,0.385,0.334,0.71,0.809,0.751c0.035,0.004,0.064,0.004,0.111,0.004
			c0.52,0.012,0.934-0.308,0.953-0.729c0-0.332-0.326-1.148-0.854-1.199h-0.023l-0.031-0.017
			C301.852,93.612,301.67,93.694,301.508,93.853 M301.643,89.682c-0.275,0.254-0.455,0.696-0.475,0.94
			c-0.01,0.382,0.34,0.711,0.826,0.766c0.027,0,0.059,0.003,0.1,0.003c0.523,0.006,0.934-0.303,0.945-0.715
			c0.01-0.344-0.299-1.163-0.852-1.23h-0.033C301.977,89.446,301.793,89.515,301.643,89.682 M301.336,86.446
			c-0.012,0.391,0.324,0.716,0.811,0.768c0.029,0,0.061,0,0.084,0c0.516,0.032,0.947-0.282,0.957-0.704
			c0.021-0.332-0.307-1.175-0.838-1.229h-0.006h-0.035C301.73,85.252,301.344,86.092,301.336,86.446 M302.459,72.982
			c-0.271,0.265-0.465,0.69-0.482,0.935c-0.029,0.401,0.332,0.741,0.82,0.785l0.064,0.01c0.508,0.04,0.941-0.27,0.971-0.686
			c0.023-0.345-0.277-1.198-0.832-1.26C302.797,72.76,302.619,72.834,302.459,72.982 M336.125,122.135l0.049-0.397l0.004-0.09
			c0.033-0.282-0.199-0.406-0.889-0.476c-0.594-0.065-0.924-0.03-0.963,0.275l-0.059,0.489c-0.033,0.356,0.283,1.112,0.82,1.173
			C335.607,123.163,336.084,122.49,336.125,122.135 M336.039,118.757c0.287-0.24,0.5-0.672,0.512-0.917l0.043-0.458l0.029-0.283
			l-0.275-0.023l-0.652-0.058c-0.527-0.035-0.965,0.242-0.996,0.662c-0.041,0.347,0.244,1.222,0.801,1.273h0.016
			C335.645,118.97,335.83,118.941,336.039,118.757 M335.652,126.17c0.072-0.582,0.072-0.582,0.006-0.677l-0.072-0.087l-0.102-0.013
			l-0.672-0.083c-0.516-0.054-0.959,0.215-1.01,0.619c-0.051,0.354,0.207,1.244,0.764,1.314h0.02
			C335.147,127.301,335.607,126.518,335.652,126.17 M336.404,114.593c0.268-0.241,0.471-0.677,0.488-0.921l0.037-0.459l0.016-0.281
			l-0.248-0.025c-0.012,0-0.146,0-0.332-0.008l-0.346-0.032c-0.223-0.022-0.461,0.032-0.627,0.139
			c-0.207,0.12-0.336,0.324-0.355,0.528c-0.02,0.353,0.266,1.215,0.82,1.272h0.02C335.994,114.812,336.186,114.782,336.404,114.593
			 M335.074,130.326c0.02-0.167-0.018-0.34-0.121-0.487c-0.146-0.21-0.389-0.358-0.686-0.394l-0.049-0.006
			c-0.506-0.058-0.918,0.2-0.973,0.594c-0.063,0.358,0.17,1.252,0.721,1.332h0.01l0.033,0.014
			C334.551,131.435,335.018,130.658,335.074,130.326 M337.217,93.788c0.328-0.34,0.539-1.071,0.539-1.239
			c0-0.27-0.27-0.457-0.695-0.51h-0.248c-0.201,0-0.398,0.038-0.547,0.099c-0.338,0.119-0.387,0.325-0.387,0.43
			c0,0.155,0.299,1.355,0.889,1.42h0.002h0.043C336.945,93.988,337.104,93.923,337.217,93.788 M334.398,134.467
			c0.039-0.172-0.006-0.329-0.113-0.48c-0.141-0.213-0.379-0.375-0.672-0.424c-0.033,0-0.064,0-0.092-0.008
			c-0.469-0.05-0.895,0.192-0.947,0.569c-0.072,0.354,0.135,1.241,0.699,1.357l0.039,0.002
			C333.859,135.545,334.338,134.792,334.398,134.467 M337.248,97.926c0.248-0.274,0.439-0.729,0.439-0.973
			c0.02-0.382-0.32-0.682-0.795-0.741h-0.113c-0.227-0.007-0.436,0.059-0.619,0.168c-0.205,0.13-0.307,0.336-0.326,0.547
			c-0.004,0.333,0.313,1.167,0.852,1.227h0.012h0.035C336.859,98.159,337.037,98.114,337.248,97.926 M306.5,151.88
			c-0.158,0.358-0.158,0.838-0.072,1.063c0.092,0.231,0.309,0.377,0.58,0.407c0.188,0.015,0.381-0.013,0.564-0.101
			c0.473-0.204,0.746-0.676,0.596-1.048c-0.123-0.285-0.57-0.74-0.99-0.784c-0.113-0.013-0.217,0-0.295,0.034
			C306.768,151.501,306.605,151.606,306.5,151.88 M336.697,110.435c0.266-0.249,0.471-0.689,0.48-0.932
			c0.027-0.392-0.328-0.733-0.813-0.792c-0.021,0-0.039-0.002-0.066,0c-0.223-0.016-0.445,0.036-0.625,0.145
			c-0.215,0.125-0.34,0.322-0.354,0.529c-0.018,0.348,0.275,1.198,0.826,1.266h0.014l0.018,0.005
			C336.299,110.665,336.486,110.626,336.697,110.435 M337.115,102.098c0.27-0.267,0.447-0.709,0.467-0.962l0.01-0.455v-0.259
			l-0.238-0.027c0,0-0.092,0-0.238-0.003l-0.443-0.015c-0.512-0.008-0.947,0.304-0.965,0.705c0,0.337,0.313,1.186,0.846,1.237h0.023
			h0.035C336.723,102.327,336.914,102.295,337.115,102.098 M336.93,106.263c0.275-0.256,0.465-0.705,0.479-0.951
			c0.02-0.379-0.34-0.71-0.814-0.754c-0.023-0.012-0.045-0.012-0.086-0.012c-0.229-0.006-0.443,0.048-0.629,0.151
			c-0.195,0.129-0.32,0.329-0.33,0.542c-0.021,0.335,0.305,1.187,0.838,1.247h0.014h0.023
			C336.539,106.492,336.732,106.455,336.93,106.263 M317.67,162.06c0,0.555,0.73,0.861,1.092,0.895c0.057,0.016,0.127,0.01,0.164,0
			c0.178-0.02,0.328-0.113,0.451-0.266c0.137-0.209,0.201-0.498,0.146-0.801c-0.078-0.531-0.771-0.787-1.068-0.816h-0.111
			C317.979,161.083,317.684,161.524,317.67,162.06 M313.82,161.114c-0.037,0.115-0.072,0.326,0.041,0.58
			c0.164,0.365,0.518,0.691,0.758,0.764l0.43,0.156l0.27,0.078l0.07-0.285l0.189-0.656c0.146-0.525-0.02-1.027-0.379-1.143
			c-0.043-0.012-0.082-0.023-0.15-0.033C314.666,160.54,314.01,160.647,313.82,161.114 M310.682,158.681
			c-0.098,0.09-0.203,0.25-0.203,0.546c-0.01,0.396,0.178,0.852,0.361,1.02c0.09,0.098,0.209,0.146,0.357,0.168
			c0.258,0.029,0.568-0.117,0.799-0.377c0.352-0.414,0.398-0.941,0.119-1.204c-0.146-0.158-0.49-0.301-0.787-0.339
			C311.049,158.474,310.84,158.539,310.682,158.681 M321.523,161.155c0.076,0.145,0.252,0.328,0.623,0.369
			c0.32,0.029,0.688-0.041,0.877-0.178c0.143-0.105,0.24-0.264,0.275-0.457c0.035-0.254-0.031-0.539-0.205-0.771
			c-0.109-0.176-0.311-0.283-0.582-0.309c-0.287-0.029-0.652,0.027-0.85,0.148C321.334,160.157,321.27,160.673,321.523,161.155
			 M308.168,155.733c-0.117,0.372-0.039,0.858,0.09,1.063c0.088,0.18,0.271,0.281,0.48,0.313c0.23,0.015,0.461-0.045,0.678-0.196
			c0.451-0.288,0.627-0.781,0.436-1.125c-0.133-0.219-0.559-0.572-0.973-0.616c-0.146-0.016-0.277,0.006-0.391,0.079
			C308.371,155.309,308.227,155.444,308.168,155.733 M327.025,155.225c0.064,0.045,0.152,0.074,0.225,0.08
			c0.479,0.055,1.023-0.403,1.158-0.671c0.07-0.151,0.09-0.323,0.027-0.511c-0.059-0.245-0.258-0.46-0.508-0.609
			c-0.076-0.028-0.145-0.054-0.221-0.065c-0.467-0.043-1.004,0.41-1.152,0.668C326.365,154.471,326.566,154.96,327.025,155.225
			 M331.551,143.635c0.535,0.05,1.027-0.632,1.104-0.949c0.037-0.163,0.014-0.332-0.076-0.495c-0.123-0.221-0.352-0.39-0.643-0.458
			c-0.061-0.021-0.119-0.027-0.168-0.034c-0.451-0.048-0.824,0.163-0.918,0.519c-0.074,0.337,0.068,1.245,0.621,1.391
			C331.488,143.621,331.518,143.625,331.551,143.635 M330.406,147.634c0.477,0.056,1.016-0.538,1.127-0.888
			c0.033-0.155,0.033-0.336-0.055-0.496c-0.123-0.229-0.336-0.422-0.629-0.502c-0.074-0.027-0.145-0.035-0.232-0.043
			c-0.41-0.046-0.764,0.137-0.859,0.473c-0.098,0.33-0.014,1.242,0.521,1.426C330.322,147.62,330.357,147.629,330.406,147.634
			 M332.496,139.577c0.545,0.051,1.041-0.667,1.117-0.988c0.027-0.168,0-0.335-0.105-0.489c-0.141-0.219-0.365-0.374-0.656-0.438
			c-0.057-0.012-0.092-0.012-0.143-0.012c-0.461-0.054-0.854,0.167-0.922,0.542c-0.08,0.348,0.098,1.245,0.645,1.37
			C332.455,139.567,332.48,139.567,332.496,139.577 M324.416,157.413c-0.264,0.309-0.143,0.828,0.25,1.188
			c0.082,0.092,0.211,0.135,0.354,0.162c0.391,0.033,0.916-0.229,1.117-0.478c0.102-0.145,0.137-0.321,0.117-0.512
			c-0.027-0.243-0.178-0.499-0.406-0.688c-0.098-0.071-0.209-0.11-0.334-0.132C325.109,156.918,324.59,157.208,324.416,157.413
			 M328.83,151.501c0.049,0.03,0.115,0.039,0.17,0.043c0.49,0.052,1.023-0.489,1.148-0.797c0.059-0.156,0.049-0.337-0.023-0.499
			c-0.096-0.243-0.311-0.439-0.58-0.546c-0.092-0.042-0.219-0.063-0.316-0.086c-0.373-0.035-0.695,0.125-0.814,0.421
			C328.285,150.365,328.318,151.269,328.83,151.501"/>
	</g>
	<g id="g330" transform="translate(263.5908,279.6807)">
		<path id="path332" fill="#C6A009" d="M297.562-3.542c0.225-1.103,0.656-1.451,0.656-1.451c0.408-0.326,0.484-0.988,0.162-1.442
			c0,0-0.73-1.064-0.434-2.505c0.035-0.189,0.086-0.373,0.125-0.567c0.309-1.473,1.219-2.355,2.029-2.038
			c4.055,1.573,8.281,1.929,12.543,1.066c0.859-0.182,1.602,0.836,1.652,2.343c0.008,0.189,0.008,0.386,0.02,0.582
			c0.045,1.472-0.854,2.393-0.854,2.393c-0.389,0.396-0.432,1.055-0.086,1.454c0,0,0.365,0.414,0.404,1.54
			c0.01,0.185,0.01,0.38,0.02,0.576c0.061,1.509-0.684,2.939-1.641,3.139c-4.625,0.962-9.238,0.564-13.648-1.146
			c-0.904-0.355-1.375-1.894-1.066-3.368C297.476-3.159,297.524-3.347,297.562-3.542"/>
	</g>
	<g id="g334" transform="translate(274.6318,303.6709)">
		<path id="path336" fill="#C6A009" d="M311.45-81.693c1.289-0.621,2.016-0.394,2.016-0.394c0.664,0.216,1.377-0.217,1.578-0.956
			c0,0,0.486-1.721,2.176-2.527c0.227-0.089,0.439-0.208,0.67-0.311c1.734-0.833,3.369-0.462,3.713,0.742
			c1.727,5.999,4.824,11.233,9.178,15.514c0.893,0.862,0.475,2.553-1.014,3.818c-0.184,0.17-0.375,0.327-0.568,0.492
			c-1.436,1.243-3.111,0.926-3.111,0.926c-0.717-0.135-1.414,0.334-1.518,1.064c0,0-0.129,0.764-1.236,1.713
			c-0.18,0.167-0.383,0.328-0.566,0.487c-1.471,1.26-3.535,1.561-4.498,0.604c-4.748-4.663-8.133-10.36-10.01-16.884
			c-0.381-1.354,0.789-3.148,2.529-3.97C311.003-81.483,311.231-81.585,311.45-81.693"/>
	</g>
	<g id="g338" transform="translate(303.2725,312.1694)">
		<path id="path340" fill="#C6A009" d="M347.468-109.379c0,0,4.094,15.44-1.213,29.372
			C346.255-80.008,349.304-99.683,347.468-109.379"/>
	</g>
	<g id="g342" transform="translate(296.5068,310.502)">
		<path id="path344" fill="#C6A009" d="M338.958-103.948c0,0,0.736,7.807-0.861,12.124c-1.615,4.337,2.904,0.919,2.904,0.919
			s7.322-6.646,7.057-6.896c-0.262-0.244-2.223-2.712-2.266-2.936"/>
	</g>
	<g id="g346" transform="translate(299.0879,303.3105)">
		<path id="path348" fill="#C6A009" d="M342.205-80.519c0.92-8.594-1.633-14.73-1.633-14.73s0.563,7.279,0.848,9.621
			c0.297,2.39-0.283,9.338-0.283,9.338S342.064-79.138,342.205-80.519"/>
	</g>
	<g id="g350" transform="translate(264.5732,281.8076)">
		<path id="path352" fill="#1E218B" d="M298.8-10.47c-0.059,0.573,0.643,0.81,0.643,0.81c4.93,1.327,11.006-0.089,11.006-0.089
			s-4.17-0.165-5.557-0.189c-1.426-0.02-5.225-1.166-5.225-1.166S298.87-11.037,298.8-10.47"/>
	</g>
	<g id="g354" transform="translate(264.2969,279.1924)">
		<path id="path356" fill="#1E218B" d="M298.449-1.949c-0.057,0.556,0.645,0.805,0.645,0.805c4.928,1.332,10.994-0.087,10.994-0.087
			s-4.158-0.176-5.561-0.191c-1.408-0.021-5.223-1.17-5.223-1.17S298.514-2.514,298.449-1.949"/>
	</g>
	<g id="g358" transform="translate(280.9365,253.4712)">
		<path id="path360" fill="#C6A009" d="M319.378,81.841c-0.361-0.265-0.42-0.476-0.42-0.476c-0.07-0.193-0.281-0.326-0.488-0.285
			c0,0-0.502,0.086-0.971-0.257c-0.063-0.038-0.123-0.086-0.182-0.132c-0.494-0.355-0.672-0.805-0.43-1.053
			c1.143-1.177,1.896-2.622,2.199-4.286c0.057-0.329,0.535-0.436,1.094-0.207c0.072,0.031,0.143,0.066,0.207,0.089
			c0.521,0.224,0.727,0.692,0.727,0.692c0.092,0.208,0.314,0.326,0.521,0.264c0,0,0.189-0.061,0.609,0.115
			c0.07,0.024,0.141,0.054,0.205,0.076c0.551,0.239,0.965,0.722,0.9,1.099c-0.346,1.803-1.148,3.37-2.412,4.659
			c-0.262,0.267-0.881,0.188-1.361-0.158C319.503,81.934,319.45,81.884,319.378,81.841"/>
	</g>
	<g id="g362" transform="translate(280.6758,254.5947)">
		<path id="path364" fill="#C6A009" d="M319.049,78.18c1.168-1.402,1.248-2.972,1.248-2.972s-0.676,1.427-0.854,1.904
			c-0.201,0.487-1.104,1.654-1.104,1.654S318.865,78.409,319.049,78.18"/>
	</g>
	<g id="g366" transform="translate(281.5635,254.1519)">
		<path id="path368" fill="#C6A009" d="M320.165,79.625c1.164-1.415,1.252-2.975,1.252-2.975s-0.674,1.428-0.871,1.907
			c-0.209,0.477-1.096,1.653-1.096,1.653S319.974,79.85,320.165,79.625"/>
	</g>
	<g id="g370" transform="translate(275.0938,302.4014)">
		<path id="path372" fill="#1E218B" d="M312.029-77.558c-0.477,0.265-0.293,1.017-0.293,1.017c1.631,5.03,6.053,9.523,6.053,9.523
			s-2.129-3.721-2.875-4.942c-0.754-1.251-1.906-5.201-1.906-5.201S312.519-77.816,312.029-77.558"/>
	</g>
	<g id="g374" transform="translate(277.8027,304.1201)">
		<path id="path376" fill="#1E218B" d="M315.438-83.156c-0.482,0.259-0.301,1.014-0.301,1.014c1.623,5.031,6.047,9.523,6.047,9.523
			s-2.119-3.717-2.863-4.938c-0.756-1.26-1.895-5.211-1.895-5.211S315.924-83.422,315.438-83.156"/>
	</g>
	<g id="g378" transform="translate(307.6328,262.4199)">
		<path id="path380" fill="#C6A009" d="M352.955,52.69c2.723,0.698,5.469,1.055,8.266,1.071
			C363.699,51.55,352.197,52.854,352.955,52.69"/>
	</g>
	<g id="g382" transform="translate(308.7158,261.6123)">
		<path id="path384" fill="#C6A009" d="M354.314,55.319c2.611,1.504,11.516,4.825,12.525-0.593
			C362.997,56.691,358.335,55.71,354.314,55.319"/>
	</g>
	<g id="g386" transform="translate(301.8027,261.1323)">
		<path id="path388" fill="#C6A009" d="M345.619,56.885c-4.441,0.246-11.539-1.655-10.174,4.342
			c-6.248,3.689-0.199,10.254,5.094,9.691c4.23-0.449,8.693,4.891,5.922,9.314c-3.426,2.664-14.004-3.237-14.412,4.336
			c4.088-1.029,6.563-0.264,10.57-1.819c0.533,1.322-1.611,3.585-2.281,4.484c2.518,0.651,3.926-2.19,4.982-3.759
			c1.514,1.024,1.342,2.546-0.51,4.577c2.311-0.654,3.813-2.119,4.488-4.44c1.326,0.137,1.732,1.206,1.23,3.21
			c2.695-0.519,0.344-4.399,1.799-5.247c1.322,1.245,2.092,4.215,4.729,3.132c-0.857-0.542-6.4-9.097-6.5-10.176
			c0.758-0.459,4.936,3.08,7.285,2.303c-3.381-0.55-3.895-7.902-8.158-4.417c-1.406-0.296,0.676-3.745,2.053-2.858
			c0.861,0.502-0.91,0.653-0.945,1.054c4.297-1.17,2.373,0.619,4.297,1.549c-0.668-5.42,4.17-5.877,7.959-6.494
			c-2.766-1.666-5.779-2.417-9.025-2.209c4.875,5.05-4.246-1.014-2.094,5.271c-2.695-2.415-3.74-1.265-5.139-4.042
			c-0.656-6.317-5.203-3.857-8.537-3.032c0.277,0.42-0.941-1.829-1.029-1.471c1.572-1.085,5.598-1.673,7.346-0.882
			c4.541,2.523,6.699,0.424,12.107,2.32c7.129,2.504,18.529,6.44,22.162-3.896C366.979,65.341,357.078,49.646,345.619,56.885"/>
	</g>
	<g id="g390" transform="translate(303.0225,258.6167)">
		<path id="path392" fill="#C6A009" d="M347.155,65.079C346.511,66.46,347.542,64.177,347.155,65.079"/>
	</g>
	<g id="g394" transform="translate(315.499,258.0107)">
		<path id="path396" fill="#C6A009" d="M362.845,67.054c-0.816,0.62-1.656,1.228-2.49,1.855c1.457,1.238,7.965,1.99,8.713-0.718
			C366.921,68.232,364.843,67.837,362.845,67.054"/>
	</g>
	<g id="g398" transform="translate(303.8379,257.4165)">
		<path id="path400" fill="#C6A009" d="M348.182,68.989c-0.881,0.394-1.639,0.326-2.299-0.218c2.018,1.51,6.209-1.048,3.633-2.354
			C349.453,67.472,349.002,68.318,348.182,68.989"/>
	</g>
	<g id="g402" transform="translate(313.1465,256.8657)">
		<path id="path404" fill="#C6A009" d="M359.889,70.784c-2.346,0.438-4.895-1.023-6.846,0.509c2.08,1.014,3.582,2.564,4.521,4.66
			c0.104-0.248-4.406-0.19-3.998-0.349c4.041,1.027,7.5,3.497,10.25,6.579c3.713-1.04,9.391-6.74,8-11.104
			C368.353,73.46,363.299,72.987,359.889,70.784"/>
	</g>
	<g id="g406" transform="translate(306.668,255.5)">
		<path id="path408" fill="#C6A009" d="M351.74,75.232c-1.393,3.152,2.781,8.451,4.045,5.267c-2.955-0.673,3.564,7.175,4.895,8.05
			c2.219,1.284,10.086,7.166,11.805,7.412c0.521-5.015-2.383-9.426-5.895-12.656c-2.496-2.311-13.316-3.967-13.824-5.003
			c0.064-0.46,6.104-3.102,6.629-3.09C357.852,73.323,352.891,72,351.74,75.232"/>
	</g>
	<g id="g410" transform="translate(302.7725,255.1431)">
		<path id="path412" fill="#C6A009" d="M346.839,76.394c1.002-0.066,1.637-0.615,1.9-1.625
			C348.063,74.103,346.853,76.183,346.839,76.394"/>
	</g>
	<g id="g414" transform="translate(302.3516,255.6597)">
		<path id="path416" fill="#C6A009" d="M346.311,74.712C345.17,77.101,348.701,72.559,346.311,74.712"/>
	</g>
	<g id="g418" transform="translate(297.1387,254.9678)">
		<path id="path420" fill="#C6A009" d="M339.754,76.968c0.494,0.95,0.992,1.883,1.48,2.826
			C342.096,78.015,341.605,77.074,339.754,76.968"/>
	</g>
	<g id="g422" transform="translate(298.4121,253.5454)">
		<path id="path424" fill="#C6A009" d="M341.357,81.6c1,5.361,3.371,1.841,6.994,5.56c1.305-0.94,1.355-2.324,0.184-4.143
			C346.291,81.79,343.898,81.314,341.357,81.6"/>
	</g>
	<g id="g426" transform="translate(293.3672,253.1548)">
		<path id="path428" fill="#C6A009" d="M335.014,82.874c3.928,4.408,7.205,2.487,10.926,0.332
			C342.141,81.541,339.025,84.032,335.014,82.874"/>
	</g>
	<g id="g430" transform="translate(297.7744,251.1479)">
		<path id="path432" fill="#C6A009" d="M340.556,89.411c1.855-2.932,0.188,7.761,0.762-2.785
			C341.056,87.548,340.804,88.488,340.556,89.411"/>
	</g>
	<g id="g434" transform="translate(306.6445,251.0972)">
		<path id="path436" fill="#C6A009" d="M351.709,89.578c0.355,1.143,0.338,5.476,2.666,3.602c-0.383-0.218-8.361,7.275-10.17,4.031
			c-2.068,1.661-4.447,2.59-7.092,2.799c-0.402-0.936,0-1.681,1.197-2.281c-5.152,3.277-8.051,7.206-14.471,9.028
			c-6.705,1.912-16.166,5.474-15.637,14.259c2.926-5.085,9.992-6.603,15.283-8.128c2.107-0.606,14.57-10.854,14.631-10.344
			c-7.934,6.345-9.279,25.576-19.217,28.032c6.299,5.649,16.525-2.058,17.85-8.647c-0.217-3.198,1.295-24.353,7.803-22.8
			c-4.459,6.348-6.076,13.506-5.682,21.361c0.393,7.61,4.635,17.881-1.65,24.231c28.707-0.337-5.342-42.556,10.475-46.516
			c-3.299-0.84-0.896,17.276-0.221,19.228c3.193,9.371,10.539,17.202,4.832,27.23c24.119-2.822-6.975-36.216-0.91-46.35
			c-3.074,0.419,5.832,15.238,6.701,16.358c2.205,2.779,4.549,5.537,6.107,8.764c1.551,3.81-0.75,6.559-0.201,10.094
			c8.891-4.093,7.74-15.487,2.012-21.633c-1.387-1.486-13.465-15.466-12.252-15.387c3.629,1.768,7.213,6.227,11.521,8.339
			c5.217,2.567,5.313,6.879,6.438,11.567c5.059-6.433,2.113-13.341-3.775-17.637C365.912,97.302,352.697,87.539,351.709,89.578"/>
	</g>
	<g id="g438" transform="translate(285.793,247.9541)">
		<path id="path440" fill="#C6A009" d="M325.484,99.814c0.076-0.184-4.797-3.025-5.412-3.167c-0.502,4.481-0.652,8.986-0.9,13.483
			c2.357,0.526,4.076-0.37,5.146-2.687c-5.896,2.593-0.656,22.588,3.5,26.196c3.508-3.152,3.207-7.787,5.734-11.663
			c-2.551,1.204-4.271,3.902-4.133,6.752c-2.441,2.127-1.564-8.927-1.738-7.936c0.736-4.1,3.645-7.148,6.891-9.467
			c-4.527-4.114-4.793-11.109-9.77-14.543C325.029,97.8,325.25,98.807,325.484,99.814"/>
	</g>
	<g id="g442" transform="translate(291.3701,245.4087)">
		<path id="path444" fill="#C6A009" d="M332.501,108.106c4.43-1.133,11.012,5.363,14.459-0.926
			C342.245,107.589,336.276,103.458,332.501,108.106"/>
	</g>
	<g id="g446" transform="translate(291.6475,239.1333)">
		<path id="path448" fill="#C6A009" d="M332.851,128.55c-2.848,2.032-5.174,4.929-5.979,8.382
			c1.943-1.625,7.676-10.174,10.881-8.069c-4.902,2.425-5.33,6.808-9.25,9.728c-5.967,4.423-10.039,12.514-13.881,18.682
			c-5.164,6.471-27.398,25.27-21.313,32.911c0.803-1.053,4.684-9.484,7.26-8.172c1.957,5.865-10.098,3.896-2.846,10.109
			c5.59,4.777,5.164-1.471,7.789-6.615c1.354-0.139-0.014,5.514-0.104,5.791c0.029,3.439,4.146,0.27,6.25,1.307
			c3.754-4.516,0.313-11.203,6.463-16.23c-1.67,2.939-1.566,5.902-1.535,9.574c1.059-1.057,8.775-18.801,9.578-17.531
			c-3.23,4.4-1.113,6.693-1.26,11.523c3.121-2.301,4.098-6.064,4.58-9.684c-0.201,1.566,1.627-12.034,3.072-7.574
			c-0.803,3.244-2.613,3.932,0.537,7.457c1.389-2.51,1.811-5.191,1.326-8.02c-2.619,5.184,4.139-10.161,3.916-6.112
			c-0.881,1.305-1.324,2.763-1.334,4.345c2.227-0.771,3.51-6.084,5.219-5.985c0.193,0.191-0.977,2.864-1.111,3.209
			c2.855-0.725,6.311-9.856,4.961-3.793c1.648-0.557,2.092-4.885,4.023-4.53c1.934,2.669-11.029,12.653-13.217,13.257
			c-1.184,2.643,20.646,11.898,19.752,12.141c-3.041-1.35-4.045-3.451-7.619-3.738c5.275,3.98,9.119,8.098,11.266,14.465
			c0.537-0.953,2.369-7.287,1.943-7.719c1.385,5.338-1.1,9.16-3.416,13.723c-1.316,2.699-2.65,5.393-4.012,8.063
			c-0.566,1.307,0.061,7.846-0.555,8.406c-0.523-0.92-0.811-1.93-0.859-3.02c-2.539,6.48,2.91,17.23,10.613,12.791
			c2.732,1.008-7.061,2.063-5.904,1.547c1.93,4.521,6.449,8.629,9.525,12.359c1.83,2.209,5.338,13.564,3.426,8.367
			c-3.141,5.967-9.146,23.334-16.656,24.984c-4.547,1.006,1.004,8.645,2.771,8.754c-0.426,0.092,9.424-10.08,9.793-8.398
			c-4.254-3.48-10.41,17.76-1.016,12.674c2.543-1.379,8.584-9.262,9.578-11.93c0.656-1.744,4.541-13.783,4.426-14.096
			c0.559,1.639,1.129,6.604,1.254,8.381c1.377-2.096-1.07-13.727,1.145-14.033c1.396,2.158,1.723,5.455,3.662,8.191
			c3.576-3.861-5.652-11.355-0.756-15.164c-0.455-0.17,4.775,8.826,4.996,9.338c2.9-6.953-4.125-11.525-2.137-18.111
			c0.814-2.729-3.955-7.094-5.332-3.867c-3.01,0.125-4.721-13.004-5.311-15.051c-1.574-6.998,3.689-16.273,4.287-23.195
			c2.199,8.256,4.307,27.924,19.146,21.98c5.92-2.373,6.631-8.508,5.521-14.031c-1.232-6.277,4.234-10.969,0.342-17.453
			c-0.303,0.914-3.262,9.832-3.242,9.795c-5.803-3.578,5.404-13.758-1.541-19.037c-0.1,2.441-4.701,8.904-2.822,11.074
			c-5.195-4.742,2.652-13.27-3.662-18.897c-0.752,3.1-3.596,5.928-2.137,9.377c0.402-7.334-7.906-15.625-0.484-24.208
			c13.67-13.358,12.354,13.014,4.346,5.99c-2.129,14.003,17.08,3.021,13.121-2.203c1.379,6.256-4.59,12.577-0.91,18.962
			c2.352,4.215,9.271,8.754,13.43,3.617c-6.789,0.477,2.488-35.647-18.359-36.385c-24.088-0.861-22.049,26.45-13.563,40.95
			c3.395,6.074,12.762,15.02,10.473,22.709c-2.824,9.494-12.408-0.209-14.426-4.439c-3.277-6.773-3.246-14.598-6.482-21.213
			c-1.789-3.684-4.6-6.748-7.35-9.732c-1.92-1.967-3.73-4.041-5.443-6.185c-2.043,0.132-3.885-0.422-5.48-1.678
			c2.078-3.179,5.156,2.407,1.549-5.05c-2.027,2.818-12.379,11.36-15.834,5.452c4.287-6.125,6.973-10.053,4.115-18.252
			c-6.639,7.173-16.584,9.762-23.623,1.224c-0.092,1.685,7.668-1.586,8.533-2.586c2.973-3.479,3.371-8.247,5.193-12.269
			C339.194,127.287,336.095,128.167,332.851,128.55"/>
	</g>
	<g id="g450" transform="translate(331.1895,231.6904)">
		<path id="path452" fill="#C6A009" d="M382.58,152.797c-0.852,0.029-1.707,0.052-2.572,0.083c0.959,1.978,1.629,4.054,2.055,6.213
			c5.16,1.477,7.24-6.627,4.467-9.566C385.74,151.246,384.42,152.333,382.58,152.797"/>
	</g>
	<g id="g454" transform="translate(288.2783,230.833)">
		<path id="path456" fill="#C6A009" d="M328.612,155.591c-1.342,0.786-2.291,1.92-2.844,3.377c0.285,0.789,5.107-5.226,5.531-6.287
			C330.106,153.376,329.21,154.348,328.612,155.591"/>
	</g>
	<g id="g458" transform="translate(310.5938,220.0513)">
		<path id="path460" fill="#C6A009" d="M356.678,190.714c0.957,3.217,3.516,4.695,3.527,8.539
			C360.363,199.349,359.291,192.087,356.678,190.714"/>
	</g>
	<g id="g462" transform="translate(297.8643,218.6001)">
		<path id="path464" fill="#C6A009" d="M340.667,195.443c-3.152,3.582-7.98,3.523-12.25,2.443
			c-7.473-1.893-5.506,5.555-6.088,10.475c-0.73,6.084-2.129,12.078-3.867,17.963c2.523,3.436,7.846,2.822,9.234,7.49
			c0.023-0.549-6.859,2.76-8.197,3.305c-8.029,3.322-9.295,7.586-14.432,14.863c1.156,0.432,4.9-0.984,5.182-0.07
			c-1.988,2.428-5.457-0.203-6.902,2.455c5.008,2.049,4.33,5.543,11.021,3.529c2.059-0.621,11.338-10.25,11.41-11.457
			c-3.203,3.514-2.223,7.5-4.566,11.164c3.164-0.775,9.109-16.27,10.357-15.443c-1.432-0.965-1.715,10.377-1.744,11.582
			c2.797-1.318,3.264-4.182,3.59-6.891c0.264-2.107,4.613-8.201,4.604-7.883c-3.014,3.514-0.805,6.373-0.555,10.191
			c4.361-2.85,3.773-9.938,5.248-14.391c0.367-6.697-8.836-4.514-6.795-11.73c1.66-5.891,10.252-8.445,14.91-11.164
			c4.037-6.232-10.953-10.543-9.99-12.262c2.051-0.943,4.77-0.869,6.977-0.598C345.866,195.9,343.526,192.667,340.667,195.443"/>
	</g>
	<g id="g466" transform="translate(299.2998,216.5459)">
		<path id="path468" fill="#C6A009" d="M342.474,202.134c2.803,2.074,5.557,3.754,8.02,6.273
			C349.79,204.028,346.817,201.616,342.474,202.134"/>
	</g>
	<g id="g470" transform="translate(287.0596,214.7871)">
		<path id="path472" fill="#C6A009" d="M327.081,207.865c0.869-1.592,0.928-3.201,0.188-4.842
			C327.194,204.623,327.052,206.248,327.081,207.865"/>
	</g>
	<g id="g474" transform="translate(273.3613,215.6348)">
		<path id="path476" fill="#C6A009" d="M309.85,205.102c0.043,0.607,0.086,1.209,0.139,1.818c1.566-0.863,2.576-2.15,3.074-3.865
			C311.465,202.945,310.4,203.617,309.85,205.102"/>
	</g>
	<g id="g478" transform="translate(272.1533,214.7656)">
		<path id="path480" fill="#C6A009" d="M308.331,207.936c0.117,0.74,0.225,1.486,0.322,2.234c2.027-1.783,1.48-2.33,1.555-4.645
			C309.149,205.99,308.521,206.785,308.331,207.936"/>
	</g>
	<g id="g482" transform="translate(272.9219,212.25)">
		<path id="path484" fill="#C6A009" d="M309.299,216.125c-1.053,2.428-1.199,3.162,0.115,5.787c1.236-1.877,0.42-1.48,2.293-2.998
			C311.535,217.533,310.725,216.609,309.299,216.125"/>
	</g>
	<g id="g486" transform="translate(311.5742,208.9561)">
		<path id="path488" fill="#C6A009" d="M357.91,226.856c-0.057,2.053-8.184,18.164-9.072,16.879c6.211,0.789,6.512,3.66,8.83,10.254
			c1.846-1.912-2.938-11.111-2.629-14.09C355.459,235.694,359.203,229.487,357.91,226.856"/>
	</g>
	<g id="g490" transform="translate(280.3203,210.3994)">
		<path id="path492" fill="#C6A009" d="M318.604,222.155c0.434,1.359,0.482,2.736,0.17,4.123c2.229-0.412,3.408-1.807,3.547-4.191
			C321.086,222.112,319.84,222.132,318.604,222.155"/>
	</g>
	<g id="g494" transform="translate(274.8828,210.8906)">
		<path id="path496" fill="#C6A009" d="M311.764,220.559c-1.227,2.723-0.98,4.627,1.354,6.828
			C313.865,225.473,316.77,219.41,311.764,220.559"/>
	</g>
	<g id="g498" transform="translate(297.1748,202.7949)">
		<path id="path500" fill="#C6A009" d="M339.8,246.93c-0.045,0.24,2.086,3.041,2.283,3.041
			C342.157,248.371,341.778,246.916,339.8,246.93"/>
	</g>
	<g id="g502" transform="translate(314.3906,194.5859)">
		<path id="path504" fill="#C6A009" d="M361.451,273.676c0.178,0.479,0.959,4.096,0.998,4.162
			C365.645,275.479,361.467,273.555,361.451,273.676"/>
	</g>
	<g id="g506" transform="translate(287.4854,193.6934)">
		<path id="path508" fill="#C6A009" d="M327.616,276.58c-0.551,1.576-1.557,2.75-3.059,3.5
			C327.378,279.885,329.464,274.766,327.616,276.58"/>
	</g>
	<g id="g510" transform="translate(280.46,191.5537)">
		<path id="path512" fill="#C6A009" d="M318.78,283.55c1.133,0.209,2.275,0.42,3.42,0.633
			C322.688,280.587,319.132,283.497,318.78,283.55"/>
	</g>
	<g id="g514" transform="translate(309.8379,180.4434)">
		<path id="path516" fill="#C6A009" d="M355.729,319.742c0-0.088-2.504,5.277-2.4,5.615
			C354.791,327.818,355.389,317.66,355.729,319.742"/>
	</g>
	<g id="g518" transform="translate(282.0488,178.4609)">
		<path id="path520" fill="#C6A009" d="M320.777,326.201C323.563,326.352,318.023,325.66,320.777,326.201"/>
	</g>
	<g id="g522" transform="translate(299.5254,176.0361)">
		<path id="path524" fill="#C6A009" d="M342.756,334.103c-0.047,1.145-0.098,2.295-0.148,3.434
			C345.221,339.786,347.184,326.524,342.756,334.103"/>
	</g>
	<g id="g526" transform="translate(302.8525,174.165)">
		<path id="path528" fill="#C6A009" d="M346.94,340.196c-0.266,1.879,0.105,3.617,1.119,5.225
			C348.157,344.491,351.417,334.087,346.94,340.196"/>
	</g>
	<g id="g530" transform="translate(300.1201,174.415)">
		<path id="path532" fill="#C6A009" d="M343.505,339.386c-0.971,3.027,3.582,4.768,5.773,6.059
			C348.981,344.677,345.798,335.519,343.505,339.386"/>
	</g>
	<g id="g534" transform="translate(286.5078,249.2607)">
		<path id="path536" fill="#C6A009" d="M326.385,95.56l-2.654-9.915l-5.869-0.703l-8.098-4.189l1.404,7.687l2.377,8.231l2.686,4.365
			l7.922-2.267"/>
	</g>
</g>
</svg>
