<svg width="95" height="423" viewBox="0 0 95 423" fill="none" xmlns="http://www.w3.org/2000/svg">
<path d="M94.7463 0L94.7463 365L0.746338 298L0.746338 0L94.7463 0Z" fill="#041CF4"/>
<path d="M94.1124 371.499V393.499L0.112366 327.499V304.499L94.1124 371.499Z" fill="#041CF4" fill-opacity="0.5"/>
<path d="M94 400.999V422.999L0 356.999V333.999L94 400.999Z" fill="#041CF4" fill-opacity="0.25"/>
<path d="M61.8381 34.3057L39.7952 43.1377L61.8381 51.9697V56.5898H34.8225V53.0273H45.343L56.6985 53.3613L34.8225 44.4922V41.7646L56.6428 32.9141L45.343 33.2666H34.8225V29.7041L61.8381 29.7041V34.3057ZM34.8225 74.7363C35.2183 74.5384 35.9234 74.3776 36.9377 74.2539C35.2802 72.6582 34.4514 70.7533 34.4514 68.5391C34.4514 66.5599 35.0081 64.9333 36.1213 63.6592C37.247 62.3975 38.6695 61.7666 40.3889 61.7666C42.4794 61.7666 44.0999 62.5583 45.2502 64.1416C46.413 65.7373 46.9944 67.9762 46.9944 70.8584V74.1982H48.5715C49.7714 74.1982 50.7239 73.8395 51.429 73.1221C52.1464 72.4046 52.5051 71.347 52.5051 69.9492C52.5051 68.7246 52.1959 67.6979 51.5774 66.8691C50.9589 66.0404 50.2105 65.626 49.3323 65.626V62.1748C50.3342 62.1748 51.2991 62.5273 52.2268 63.2324C53.1669 63.9499 53.9091 64.9147 54.4534 66.127C54.9976 67.3516 55.2698 68.6937 55.2698 70.1533C55.2698 72.4665 54.6884 74.2786 53.5256 75.5898C52.3752 76.901 50.7857 77.5814 48.7571 77.6309H39.5168C37.6737 77.6309 36.2079 77.8659 35.1194 78.3359H34.8225V74.7363ZM37.4387 69.04C37.4387 70.1162 37.717 71.1367 38.2737 72.1016C38.8303 73.0664 39.554 73.7653 40.4446 74.1982H44.5637V71.5078C44.5637 67.3021 43.3329 65.1992 40.8713 65.1992C39.7952 65.1992 38.954 65.5579 38.3479 66.2754C37.7418 66.9928 37.4387 67.9144 37.4387 69.04ZM59.76 87.6689H54.8987V91.417H52.2454V87.6689H39.7952C38.9911 87.6689 38.385 87.8359 37.9768 88.1699C37.581 88.5039 37.3831 89.0729 37.3831 89.877C37.3831 90.2728 37.4573 90.8171 37.6057 91.5098H34.8225C34.5751 90.6068 34.4514 89.7285 34.4514 88.875C34.4514 87.3411 34.9153 86.1846 35.843 85.4053C36.7708 84.626 38.0881 84.2363 39.7952 84.2363H52.2454V80.5811H54.8987V84.2363H59.76V87.6689ZM37.2532 103.496C37.2532 104.721 37.6243 105.791 38.3665 106.706C39.1086 107.621 40.0364 108.129 41.1497 108.228V111.475C39.9993 111.413 38.9045 111.017 37.8655 110.287C36.8264 109.557 35.9976 108.58 35.3792 107.355C34.7607 106.143 34.4514 104.857 34.4514 103.496C34.4514 100.762 35.3606 98.5853 37.179 96.9648C39.0097 95.3568 41.5084 94.5527 44.675 94.5527H45.2502C47.2047 94.5527 48.9426 94.9115 50.4641 95.6289C51.9856 96.3464 53.1669 97.373 54.0081 98.709C54.8492 100.057 55.2698 101.647 55.2698 103.478C55.2698 105.729 54.5956 107.597 53.2473 109.081C51.899 110.578 50.1487 111.376 47.9963 111.475V108.228C49.2952 108.129 50.359 107.634 51.1877 106.743C52.0289 105.865 52.4495 104.776 52.4495 103.478C52.4495 101.733 51.8186 100.379 50.5569 99.4141C49.3075 98.4616 47.4954 97.9854 45.1204 97.9854H44.4709C42.1578 97.9854 40.3765 98.4616 39.1272 99.4141C37.8778 100.367 37.2532 101.727 37.2532 103.496ZM52.468 118.767C54.3359 120.288 55.2698 122.267 55.2698 124.704C55.2698 128.947 52.8762 131.087 48.0891 131.124H34.8225V127.691H48.1077C49.5549 127.679 50.6249 127.345 51.3176 126.689C52.0103 126.046 52.3567 125.038 52.3567 123.665C52.3567 122.552 52.0598 121.575 51.4661 120.733C50.8723 119.892 50.093 119.237 49.1282 118.767H34.8225V115.334H63.3225V118.767H52.468ZM46.8645 154.188C47.7428 151.132 48.8189 148.906 50.093 147.508C51.3795 146.122 52.9628 145.43 54.843 145.43C56.9706 145.43 58.7271 146.277 60.1125 147.972C61.5103 149.679 62.2092 151.893 62.2092 154.614C62.2092 156.47 61.8505 158.121 61.1331 159.568C60.4156 161.028 59.426 162.154 58.1643 162.945C56.9026 163.749 55.5234 164.151 54.0266 164.151V160.57C55.6594 160.57 56.9397 160.051 57.8674 159.012C58.8075 157.973 59.2776 156.507 59.2776 154.614C59.2776 152.858 58.8879 151.485 58.1086 150.495C57.3417 149.518 56.2717 149.029 54.8987 149.029C53.7978 149.029 52.8639 149.493 52.0969 150.421C51.3424 151.361 50.6497 152.951 50.0188 155.189C49.3879 157.441 48.689 159.197 47.9221 160.459C47.1676 161.733 46.2831 162.673 45.2688 163.279C44.2545 163.898 43.0608 164.207 41.6877 164.207C39.4983 164.207 37.7418 163.354 36.4182 161.646C35.107 159.939 34.4514 157.657 34.4514 154.8C34.4514 152.944 34.804 151.213 35.509 149.604C36.2265 147.996 37.2037 146.753 38.4407 145.875C39.6777 145.009 41.0816 144.576 42.6526 144.576V148.157C41.0198 148.157 39.7271 148.757 38.7747 149.957C37.8346 151.169 37.3645 152.784 37.3645 154.8C37.3645 156.68 37.748 158.121 38.5149 159.123C39.2818 160.125 40.3271 160.626 41.6506 160.626C42.9742 160.626 43.9947 160.162 44.7122 159.234C45.442 158.307 46.1594 156.624 46.8645 154.188ZM37.2532 176.305C37.2532 177.529 37.6243 178.599 38.3665 179.515C39.1086 180.43 40.0364 180.937 41.1497 181.036V184.283C39.9993 184.221 38.9045 183.826 37.8655 183.096C36.8264 182.366 35.9976 181.389 35.3792 180.164C34.7607 178.952 34.4514 177.665 34.4514 176.305C34.4514 173.571 35.3606 171.394 37.179 169.773C39.0097 168.165 41.5084 167.361 44.675 167.361H45.2502C47.2047 167.361 48.9426 167.72 50.4641 168.438C51.9856 169.155 53.1669 170.182 54.0081 171.518C54.8492 172.866 55.2698 174.455 55.2698 176.286C55.2698 178.537 54.5956 180.405 53.2473 181.89C51.899 183.386 50.1487 184.184 47.9963 184.283V181.036C49.2952 180.937 50.359 180.442 51.1877 179.552C52.0289 178.674 52.4495 177.585 52.4495 176.286C52.4495 174.542 51.8186 173.188 50.5569 172.223C49.3075 171.27 47.4954 170.794 45.1204 170.794H44.4709C42.1578 170.794 40.3765 171.27 39.1272 172.223C37.8778 173.175 37.2532 174.536 37.2532 176.305ZM52.468 191.575C54.3359 193.097 55.2698 195.076 55.2698 197.513C55.2698 201.756 52.8762 203.896 48.0891 203.933H34.8225V200.5H48.1077C49.5549 200.488 50.6249 200.154 51.3176 199.498C52.0103 198.855 52.3567 197.847 52.3567 196.474C52.3567 195.36 52.0598 194.383 51.4661 193.542C50.8723 192.701 50.093 192.045 49.1282 191.575H34.8225V188.143H63.3225V191.575H52.468ZM34.4514 217.403C34.4514 214.682 35.342 212.468 37.1233 210.761C38.9169 209.054 41.3105 208.2 44.304 208.2H44.9348C46.9264 208.2 48.7014 208.577 50.26 209.332C51.831 210.099 53.0556 211.163 53.9338 212.523C54.8245 213.896 55.2698 215.381 55.2698 216.977C55.2698 219.587 54.4101 221.615 52.6907 223.062C50.9713 224.51 48.5097 225.233 45.3059 225.233H43.8772V211.633C41.898 211.682 40.2961 212.257 39.0715 213.358C37.8593 214.472 37.2532 215.882 37.2532 217.589C37.2532 218.801 37.5006 219.828 37.9954 220.669C38.4902 221.51 39.1458 222.246 39.9622 222.877L38.3293 224.974C35.7441 223.291 34.4514 220.768 34.4514 217.403ZM52.4495 216.977C52.4495 215.591 51.9423 214.428 50.928 213.488C49.926 212.548 48.5159 211.967 46.6975 211.744V221.801H46.9573C48.7014 221.702 50.0497 221.232 51.0022 220.391C51.967 219.549 52.4495 218.411 52.4495 216.977ZM45.0276 228.388C48.1077 228.388 50.5816 229.118 52.4495 230.577C54.3297 232.037 55.2698 233.948 55.2698 236.311C55.2698 238.661 54.4657 240.522 52.8577 241.896H63.3225V245.328H34.8225V242.174L36.9749 242.007C35.2926 240.634 34.4514 238.723 34.4514 236.273C34.4514 233.948 35.4039 232.049 37.3088 230.577C39.2138 229.118 41.7001 228.388 44.7678 228.388H45.0276ZM44.6379 231.82C42.3619 231.82 40.5806 232.29 39.2942 233.23C38.0077 234.171 37.3645 235.469 37.3645 237.127C37.3645 239.304 38.3417 240.894 40.2961 241.896H49.5178C51.4104 240.869 52.3567 239.292 52.3567 237.164C52.3567 235.482 51.7073 234.171 50.4084 233.23C49.1096 232.29 47.1861 231.82 44.6379 231.82ZM36.8079 263.066C35.2369 261.73 34.4514 259.77 34.4514 257.185C34.4514 255.045 35.0699 253.412 36.3069 252.286C37.5562 251.173 39.3993 250.61 41.8362 250.598H54.8987V254.03H41.929C38.886 254.03 37.3645 255.267 37.3645 257.741C37.3645 260.364 38.3417 262.108 40.2961 262.974H54.8987V266.406H34.8225V263.141L36.8079 263.066ZM34.8225 275.368V271.936H63.3225V275.368H34.8225ZM34.4514 289.21C34.4514 286.489 35.342 284.274 37.1233 282.567C38.9169 280.86 41.3105 280.007 44.304 280.007H44.9348C46.9264 280.007 48.7014 280.384 50.26 281.139C51.831 281.906 53.0556 282.969 53.9338 284.33C54.8245 285.703 55.2698 287.188 55.2698 288.783C55.2698 291.393 54.4101 293.422 52.6907 294.869C50.9713 296.316 48.5097 297.04 45.3059 297.04H43.8772V283.439C41.898 283.489 40.2961 284.064 39.0715 285.165C37.8593 286.278 37.2532 287.688 37.2532 289.396C37.2532 290.608 37.5006 291.634 37.9954 292.476C38.4902 293.317 39.1458 294.053 39.9622 294.684L38.3293 296.78C35.7441 295.098 34.4514 292.575 34.4514 289.21ZM52.4495 288.783C52.4495 287.398 51.9423 286.235 50.928 285.295C49.926 284.355 48.5159 283.773 46.6975 283.551V293.607H46.9573C48.7014 293.508 50.0497 293.038 51.0022 292.197C51.967 291.356 52.4495 290.218 52.4495 288.783Z" fill="white"/>
</svg>
